%TF.GenerationSoftware,KiCad,Pcbnew,(5.1.7)-1*%
%TF.CreationDate,2020-10-27T23:28:53+01:00*%
%TF.ProjectId,f1c100s,66316331-3030-4732-9e6b-696361645f70,rev?*%
%TF.SameCoordinates,Original*%
%TF.FileFunction,Copper,L4,Bot*%
%TF.FilePolarity,Positive*%
%FSLAX46Y46*%
G04 Gerber Fmt 4.6, Leading zero omitted, Abs format (unit mm)*
G04 Created by KiCad (PCBNEW (5.1.7)-1) date 2020-10-27 23:28:53*
%MOMM*%
%LPD*%
G01*
G04 APERTURE LIST*
%TA.AperFunction,ComponentPad*%
%ADD10O,1.700000X1.700000*%
%TD*%
%TA.AperFunction,ComponentPad*%
%ADD11R,1.700000X1.700000*%
%TD*%
%TA.AperFunction,ComponentPad*%
%ADD12O,0.890000X1.550000*%
%TD*%
%TA.AperFunction,ComponentPad*%
%ADD13O,1.250000X0.950000*%
%TD*%
%TA.AperFunction,ViaPad*%
%ADD14C,0.450000*%
%TD*%
%TA.AperFunction,ViaPad*%
%ADD15C,0.800000*%
%TD*%
%TA.AperFunction,ViaPad*%
%ADD16C,0.600000*%
%TD*%
%TA.AperFunction,Conductor*%
%ADD17C,0.200000*%
%TD*%
%TA.AperFunction,Conductor*%
%ADD18C,0.127000*%
%TD*%
%TA.AperFunction,Conductor*%
%ADD19C,0.300000*%
%TD*%
G04 APERTURE END LIST*
D10*
%TO.P,J5,4*%
%TO.N,GND*%
X191325500Y-73875900D03*
%TO.P,J5,3*%
X191325500Y-71335900D03*
%TO.P,J5,2*%
%TO.N,UART0_TX*%
X191325500Y-68795900D03*
D11*
%TO.P,J5,1*%
%TO.N,UART0_RX*%
X191325500Y-66255900D03*
%TD*%
D10*
%TO.P,J4,4*%
%TO.N,TPX2*%
X191815720Y-59563000D03*
%TO.P,J4,3*%
%TO.N,TPY2*%
X189275720Y-59563000D03*
%TO.P,J4,2*%
%TO.N,TPX1*%
X191815720Y-57023000D03*
D11*
%TO.P,J4,1*%
%TO.N,TPY1*%
X189275720Y-57023000D03*
%TD*%
D10*
%TO.P,J2,36*%
%TO.N,GND*%
X191785240Y-45430440D03*
%TO.P,J2,35*%
%TO.N,LCD_D17*%
X191785240Y-47970440D03*
%TO.P,J2,34*%
%TO.N,GND*%
X189245240Y-45430440D03*
%TO.P,J2,33*%
%TO.N,LCD_D16*%
X189245240Y-47970440D03*
%TO.P,J2,32*%
%TO.N,GND*%
X186705240Y-45430440D03*
%TO.P,J2,31*%
%TO.N,LCD_D15*%
X186705240Y-47970440D03*
%TO.P,J2,30*%
%TO.N,+2V8*%
X184165240Y-45430440D03*
%TO.P,J2,29*%
%TO.N,LCD_D14*%
X184165240Y-47970440D03*
%TO.P,J2,28*%
%TO.N,+2V8*%
X181625240Y-45430440D03*
%TO.P,J2,27*%
%TO.N,LCD_D13*%
X181625240Y-47970440D03*
%TO.P,J2,26*%
%TO.N,+3V3*%
X179085240Y-45430440D03*
%TO.P,J2,25*%
%TO.N,LCD_D12*%
X179085240Y-47970440D03*
%TO.P,J2,24*%
%TO.N,+3V3*%
X176545240Y-45430440D03*
%TO.P,J2,23*%
%TO.N,LCD_D11*%
X176545240Y-47970440D03*
%TO.P,J2,22*%
%TO.N,+5V*%
X174005240Y-45430440D03*
%TO.P,J2,21*%
%TO.N,LCD_D10*%
X174005240Y-47970440D03*
%TO.P,J2,20*%
%TO.N,LCD_VSYNC*%
X171465240Y-45430440D03*
%TO.P,J2,19*%
%TO.N,LCD_D9*%
X171465240Y-47970440D03*
%TO.P,J2,18*%
%TO.N,LCD_HSYNC*%
X168925240Y-45430440D03*
%TO.P,J2,17*%
%TO.N,LCD_D8*%
X168925240Y-47970440D03*
%TO.P,J2,16*%
%TO.N,LCD_DE*%
X166385240Y-45430440D03*
%TO.P,J2,15*%
%TO.N,LCD_D7*%
X166385240Y-47970440D03*
%TO.P,J2,14*%
%TO.N,LCD_CLK*%
X163845240Y-45430440D03*
%TO.P,J2,13*%
%TO.N,LCD_D6*%
X163845240Y-47970440D03*
%TO.P,J2,12*%
%TO.N,LCD_D23*%
X161305240Y-45430440D03*
%TO.P,J2,11*%
%TO.N,LCD_D5*%
X161305240Y-47970440D03*
%TO.P,J2,10*%
%TO.N,LCD_D22*%
X158765240Y-45430440D03*
%TO.P,J2,9*%
%TO.N,LCD_D4*%
X158765240Y-47970440D03*
%TO.P,J2,8*%
%TO.N,LCD_D21*%
X156225240Y-45430440D03*
%TO.P,J2,7*%
%TO.N,LCD_D3*%
X156225240Y-47970440D03*
%TO.P,J2,6*%
%TO.N,LCD_D20*%
X153685240Y-45430440D03*
%TO.P,J2,5*%
%TO.N,LCD_D2*%
X153685240Y-47970440D03*
%TO.P,J2,4*%
%TO.N,LCD_D19*%
X151145240Y-45430440D03*
%TO.P,J2,3*%
%TO.N,LCD_D1*%
X151145240Y-47970440D03*
%TO.P,J2,2*%
%TO.N,LCD_D18*%
X148605240Y-45430440D03*
D11*
%TO.P,J2,1*%
%TO.N,LCD_D0*%
X148605240Y-47970440D03*
%TD*%
D10*
%TO.P,J3,6*%
%TO.N,GND*%
X148678900Y-59182000D03*
%TO.P,J3,5*%
X148678900Y-61722000D03*
%TO.P,J3,4*%
%TO.N,SPI0_MOSI*%
X148678900Y-64262000D03*
%TO.P,J3,3*%
%TO.N,SPI0_MISO*%
X148678900Y-66802000D03*
%TO.P,J3,2*%
%TO.N,SPI0_CS*%
X148678900Y-69342000D03*
D11*
%TO.P,J3,1*%
%TO.N,SPI0_CLK*%
X148678900Y-71882000D03*
%TD*%
D12*
%TO.P,J1,6*%
%TO.N,GND*%
X178734600Y-99369400D03*
X171734600Y-99369400D03*
D13*
X177734600Y-96669400D03*
X172734600Y-96669400D03*
%TD*%
D14*
%TO.N,GND*%
X174023400Y-70391400D03*
X174023400Y-70891400D03*
X175023400Y-70391400D03*
X174523400Y-70391400D03*
D15*
X173857920Y-92049600D03*
X168259760Y-92577920D03*
X156367480Y-78658720D03*
X156367480Y-83418680D03*
X156377640Y-88117680D03*
X156403040Y-92953840D03*
X161274760Y-65069720D03*
X158927800Y-59298840D03*
X184398920Y-79034640D03*
X184348120Y-66136520D03*
D16*
X182366920Y-74107040D03*
X176819560Y-80289400D03*
X172491400Y-81534000D03*
X180934360Y-62367160D03*
X177273275Y-62394155D03*
D14*
X176971960Y-78008480D03*
X185130440Y-52725320D03*
X175023400Y-70891400D03*
X175023400Y-71391400D03*
X174523400Y-71391400D03*
X174523400Y-70891400D03*
X174023400Y-71391400D03*
X161244280Y-67635120D03*
X166613840Y-75483720D03*
D15*
X188615320Y-90317320D03*
X178429920Y-89931240D03*
X170103800Y-94747080D03*
D16*
X174812960Y-51084480D03*
X179560440Y-54696360D03*
X168188640Y-52009040D03*
X168997403Y-53671243D03*
X173080680Y-62499240D03*
D15*
%TO.N,+1V2*%
X188732160Y-89148920D03*
X184444640Y-99146360D03*
D14*
X178236880Y-64597280D03*
X170205400Y-79029560D03*
X178658520Y-79049880D03*
D15*
%TO.N,+2V8*%
X175564800Y-88656160D03*
D16*
X173012100Y-64076580D03*
X182577740Y-53677820D03*
X182577740Y-51716940D03*
D15*
X181345840Y-96047560D03*
%TO.N,+2V5*%
X181985920Y-88671400D03*
X173695360Y-81610200D03*
X184444640Y-96047560D03*
%TO.N,+3V3*%
X168864280Y-88585040D03*
X157932120Y-96337120D03*
D16*
X167203120Y-73025000D03*
X167203120Y-66862960D03*
X175173640Y-61320680D03*
X153654760Y-70774560D03*
X158600140Y-69994780D03*
X155660090Y-57862470D03*
X178249580Y-53957220D03*
X178221640Y-51727100D03*
X150144480Y-78229460D03*
X150144480Y-83210400D03*
X150144480Y-87754460D03*
X150144480Y-93004640D03*
D15*
X181345840Y-99146360D03*
D14*
X182448200Y-74970640D03*
%TO.N,/MPU/TV_VRP*%
X174619920Y-64963040D03*
X170027600Y-59060080D03*
%TO.N,/MPU/TV_VRN*%
X175265080Y-64591580D03*
X171338240Y-57795160D03*
D16*
%TO.N,Net-(C22-Pad1)*%
X176773840Y-60071000D03*
X178704240Y-60040520D03*
D14*
X176824640Y-66989960D03*
D15*
%TO.N,+5V*%
X174249080Y-93700600D03*
X169138600Y-99085400D03*
D16*
X173080680Y-52679600D03*
X174056040Y-51704240D03*
D14*
%TO.N,DEBUG_SW4*%
X182641240Y-71826120D03*
X160827720Y-91673680D03*
%TO.N,DEBUG_SW3*%
X182625625Y-70746341D03*
X160776920Y-86588600D03*
%TO.N,DEBUG_SW2*%
X160787080Y-82047080D03*
X182625740Y-69666392D03*
%TO.N,DEBUG_SW1*%
X182356760Y-69164200D03*
X160787080Y-77261720D03*
%TO.N,USB_P*%
X178155600Y-66974720D03*
%TO.N,USB_N*%
X178704240Y-66751200D03*
%TO.N,SPI0_MOSI*%
X182239920Y-66568320D03*
X161625280Y-61097160D03*
%TO.N,SPI0_MISO*%
X182219600Y-67437000D03*
X157312360Y-70078600D03*
%TO.N,SPI0_CS*%
X155209240Y-68955920D03*
X182331360Y-68092320D03*
X156093160Y-71683880D03*
%TO.N,SPI0_CLK*%
X182082440Y-68681600D03*
X152328540Y-70027800D03*
%TO.N,LCD_D0*%
X182077360Y-75651360D03*
X173009560Y-56464200D03*
X158089600Y-51541680D03*
X156738320Y-51897280D03*
%TO.N,LCD_D1*%
X182077360Y-76357480D03*
X172044360Y-57124600D03*
X166542720Y-54074400D03*
X165145720Y-55704400D03*
X160030160Y-53436520D03*
X159816800Y-55704400D03*
%TO.N,LCD_D8*%
X182057040Y-77017880D03*
X180050440Y-53817520D03*
X180284120Y-46802040D03*
X174802800Y-46863000D03*
%TO.N,LCD_D9*%
X181356000Y-77063600D03*
X177078640Y-58526680D03*
%TO.N,LCD_D16*%
X182082440Y-77729080D03*
%TO.N,LCD_D17*%
X181416960Y-78201520D03*
%TO.N,DEBUG_LED1*%
X164881560Y-96672400D03*
X162666680Y-91109800D03*
%TO.N,DEBUG_LED2*%
X164957760Y-98267520D03*
X162016440Y-91175840D03*
%TO.N,DEBUG_LED3*%
X164922200Y-99900400D03*
X161447480Y-93903800D03*
%TO.N,LCD_VSYNC*%
X173126400Y-74884280D03*
X177373280Y-57073800D03*
X177779680Y-44094400D03*
%TO.N,LCD_HSYNC*%
X172501560Y-74858880D03*
X176626520Y-57094120D03*
X175442880Y-44089320D03*
%TO.N,LCD_DE*%
X171912280Y-74863960D03*
X175803560Y-56962040D03*
%TO.N,LCD_CLK*%
X171312840Y-74838560D03*
X157861000Y-52938680D03*
X158338520Y-52075080D03*
X162077400Y-51435000D03*
X168716960Y-64129920D03*
%TO.N,LCD_D23*%
X169285920Y-77403960D03*
%TO.N,LCD_D22*%
X170017440Y-77419200D03*
%TO.N,LCD_D21*%
X169941240Y-76708000D03*
%TO.N,LCD_D20*%
X167899080Y-75641200D03*
D15*
X147736560Y-57038240D03*
X147787360Y-51435000D03*
D14*
%TO.N,LCD_D19*%
X165663880Y-73131680D03*
X164942520Y-75671680D03*
%TO.N,LCD_D18*%
X165105080Y-73131680D03*
X157388560Y-73670160D03*
%TO.N,LCD_D15*%
X164531040Y-73106280D03*
%TO.N,LCD_D14*%
X163972240Y-73116440D03*
%TO.N,LCD_D13*%
X163306760Y-73152000D03*
%TO.N,LCD_D12*%
X162605720Y-73101200D03*
%TO.N,LCD_D11*%
X161914840Y-73070720D03*
%TO.N,LCD_D10*%
X161203640Y-73045320D03*
%TO.N,LCD_D7*%
X160492440Y-73004680D03*
%TO.N,LCD_D6*%
X159776160Y-72984360D03*
%TO.N,LCD_D5*%
X158937960Y-73035160D03*
%TO.N,LCD_D4*%
X158186120Y-73004680D03*
%TO.N,LCD_D3*%
X157490160Y-72958960D03*
%TO.N,LCD_D2*%
X168838880Y-62829440D03*
X170423840Y-67045840D03*
%TO.N,UART0_RX*%
X182731500Y-70200520D03*
X183545480Y-70185280D03*
%TO.N,UART0_TX*%
X182641240Y-71286117D03*
X183545480Y-71277480D03*
%TO.N,USB_P*%
X175254920Y-95209360D03*
%TO.N,USB_N*%
X174579280Y-95549720D03*
%TD*%
D17*
%TO.N,/MPU/TV_VRP*%
X174619920Y-64963040D02*
X172354240Y-64963040D01*
X170027600Y-62636400D02*
X170027600Y-59060080D01*
X172354240Y-64963040D02*
X170027600Y-62636400D01*
%TO.N,/MPU/TV_VRN*%
X174373099Y-64366581D02*
X174076360Y-64663320D01*
X175040081Y-64366581D02*
X174373099Y-64366581D01*
X175265080Y-64591580D02*
X175040081Y-64366581D01*
X172770800Y-64658240D02*
X172459576Y-64658240D01*
X172775880Y-64663320D02*
X172770800Y-64658240D01*
X174076360Y-64663320D02*
X172775880Y-64663320D01*
X171338240Y-63536904D02*
X171338240Y-57795160D01*
X172459576Y-64658240D02*
X171338240Y-63536904D01*
%TO.N,Net-(C22-Pad1)*%
X178673760Y-60071000D02*
X178704240Y-60040520D01*
X177873276Y-60489716D02*
X177873276Y-62682156D01*
X177873276Y-62682156D02*
X177505699Y-63049733D01*
X177454560Y-60071000D02*
X177873276Y-60489716D01*
X176773840Y-60071000D02*
X177454560Y-60071000D01*
X177454560Y-60071000D02*
X178673760Y-60071000D01*
D18*
X176945461Y-66869139D02*
X176824640Y-66989960D01*
X176824640Y-66989960D02*
X177307240Y-66989960D01*
X177505699Y-66791501D02*
X177505699Y-63049733D01*
X177307240Y-66989960D02*
X177505699Y-66791501D01*
D17*
%TO.N,DEBUG_SW4*%
X160827720Y-91450160D02*
X160827720Y-91673680D01*
X162913060Y-89364820D02*
X160827720Y-91450160D01*
X163052760Y-89225120D02*
X162913060Y-89364820D01*
X181475536Y-71826120D02*
X182641240Y-71826120D01*
X181272336Y-72029320D02*
X181475536Y-71826120D01*
X181272335Y-76359865D02*
X181272336Y-72029320D01*
X180853080Y-76779120D02*
X181272335Y-76359865D01*
X180853080Y-86989920D02*
X180853080Y-76779120D01*
X180019960Y-87823040D02*
X180853080Y-86989920D01*
X164454840Y-87823040D02*
X180019960Y-87823040D01*
X162913060Y-89364820D02*
X164454840Y-87823040D01*
%TO.N,DEBUG_SW3*%
X181523626Y-70746341D02*
X182625625Y-70746341D01*
X180982327Y-71287640D02*
X181523626Y-70746341D01*
X180538120Y-76616560D02*
X180982326Y-76172354D01*
X180538120Y-86065360D02*
X180538120Y-76616560D01*
X179151280Y-87452200D02*
X180538120Y-86065360D01*
X180982326Y-76172354D02*
X180982327Y-71287640D01*
X161640520Y-87452200D02*
X179151280Y-87452200D01*
X160776920Y-86588600D02*
X161640520Y-87452200D01*
%TO.N,DEBUG_SW2*%
X180253640Y-76433680D02*
X180253640Y-85303360D01*
X180692317Y-75995003D02*
X180253640Y-76433680D01*
X180692317Y-75470419D02*
X180692317Y-75995003D01*
X180692317Y-70639339D02*
X180692317Y-75470419D01*
X181665264Y-69666392D02*
X180692317Y-70639339D01*
X182625740Y-69666392D02*
X181665264Y-69666392D01*
X178719480Y-87116920D02*
X180248110Y-85588290D01*
X180248110Y-85588290D02*
X180248110Y-85303360D01*
X163098480Y-87116920D02*
X178719480Y-87116920D01*
X160787080Y-84805520D02*
X163098480Y-87116920D01*
X160787080Y-82047080D02*
X160787080Y-84805520D01*
%TO.N,DEBUG_SW1*%
X161422080Y-84495640D02*
X161422080Y-77896720D01*
X161422080Y-77896720D02*
X160787080Y-77261720D01*
X163763960Y-86837520D02*
X161422080Y-84495640D01*
X178308000Y-86837520D02*
X163763960Y-86837520D01*
X160934400Y-77261720D02*
X160787080Y-77261720D01*
X178379570Y-86826910D02*
X178308000Y-86826910D01*
X179928520Y-85277960D02*
X178379570Y-86826910D01*
X179928520Y-76291440D02*
X179928520Y-85277960D01*
X180402307Y-75817653D02*
X179928520Y-76291440D01*
X181743606Y-69177914D02*
X180402308Y-70519212D01*
X180402308Y-70519212D02*
X180402307Y-75817653D01*
X181743606Y-69164200D02*
X181743606Y-69177914D01*
X182356760Y-69164200D02*
X181743606Y-69164200D01*
%TO.N,SPI0_MOSI*%
X158460440Y-64262000D02*
X161625280Y-61097160D01*
X148678900Y-64262000D02*
X158460440Y-64262000D01*
X158460440Y-68143120D02*
X158460440Y-64262000D01*
X157886400Y-68717160D02*
X158460440Y-68143120D01*
X157886400Y-71617840D02*
X157886400Y-68717160D01*
X182239920Y-66568320D02*
X180629560Y-68178680D01*
X178711114Y-75335950D02*
X174226348Y-75335950D01*
X156337000Y-73827640D02*
X156337000Y-73167240D01*
X180629560Y-68178680D02*
X179608480Y-68178680D01*
X157226000Y-74716640D02*
X156337000Y-73827640D01*
X179242270Y-74804794D02*
X178711114Y-75335950D01*
X156337000Y-73167240D02*
X157886400Y-71617840D01*
X174189679Y-75299281D02*
X169409399Y-75299281D01*
X179242270Y-68544890D02*
X179242270Y-74804794D01*
X167878760Y-76829920D02*
X165160960Y-76829920D01*
X179608480Y-68178680D02*
X179242270Y-68544890D01*
X169409399Y-75299281D02*
X167878760Y-76829920D01*
X165160960Y-76829920D02*
X163047680Y-74716640D01*
X174226348Y-75335950D02*
X174189679Y-75299281D01*
X163047680Y-74716640D02*
X157226000Y-74716640D01*
D19*
%TO.N,SPI0_MISO*%
X157312360Y-70078600D02*
X157312360Y-69021960D01*
X155092400Y-66802000D02*
X148678900Y-66802000D01*
X157312360Y-69021960D02*
X155092400Y-66802000D01*
D17*
X156046991Y-73047113D02*
X157312360Y-71781744D01*
X157312360Y-70078600D02*
X157312360Y-71018400D01*
X157312360Y-71018400D02*
X157312360Y-71328280D01*
X182219600Y-67437000D02*
X182219600Y-67457798D01*
X182219600Y-67457798D02*
X179532280Y-70145118D01*
X179532280Y-74924920D02*
X178831240Y-75625960D01*
X157105873Y-75006649D02*
X156046990Y-73947766D01*
X179532280Y-70145118D02*
X179532280Y-74924920D01*
X178831240Y-75625960D02*
X169492856Y-75625960D01*
X169492856Y-75625960D02*
X167998886Y-77119930D01*
X167998886Y-77119930D02*
X165040833Y-77119929D01*
X165040833Y-77119929D02*
X162927554Y-75006650D01*
X162927554Y-75006650D02*
X157105873Y-75006649D01*
X157312360Y-71781744D02*
X157312360Y-71018400D01*
X156046990Y-73947766D02*
X156046991Y-73047113D01*
%TO.N,SPI0_CS*%
X154823160Y-69342000D02*
X148678900Y-69342000D01*
X155209240Y-68955920D02*
X154823160Y-69342000D01*
X182331360Y-68092320D02*
X181995214Y-68092320D01*
X181995214Y-68092320D02*
X179822290Y-70265244D01*
X179822289Y-75045047D02*
X178951366Y-75915970D01*
X179822290Y-70265244D02*
X179822289Y-75045047D01*
X178951366Y-75915970D02*
X169612982Y-75915970D01*
X169612982Y-75915970D02*
X168119011Y-77409939D01*
X168119011Y-77409939D02*
X164920706Y-77409938D01*
X164920706Y-77409938D02*
X162807427Y-75296659D01*
X155756981Y-74067891D02*
X155756981Y-72924299D01*
X156985746Y-75296658D02*
X155756981Y-74067891D01*
X162807427Y-75296659D02*
X156985746Y-75296658D01*
X156093160Y-72588120D02*
X156093160Y-71683880D01*
X155756981Y-72924299D02*
X156093160Y-72588120D01*
%TO.N,SPI0_CLK*%
X155466971Y-74188017D02*
X150984917Y-74188017D01*
X156865619Y-75586666D02*
X155466971Y-74188017D01*
X168239136Y-77699948D02*
X164800579Y-77699947D01*
X169733107Y-76205980D02*
X168239136Y-77699948D01*
X179071492Y-76205980D02*
X169733107Y-76205980D01*
X180112298Y-75165174D02*
X179071492Y-76205980D01*
X150984917Y-74188017D02*
X148678900Y-71882000D01*
X180112299Y-70385371D02*
X180112298Y-75165174D01*
X164800579Y-77699947D02*
X162687300Y-75586668D01*
X181816070Y-68681600D02*
X180112299Y-70385371D01*
X162687300Y-75586668D02*
X156865619Y-75586666D01*
X182082440Y-68681600D02*
X181816070Y-68681600D01*
X150474340Y-71882000D02*
X152328540Y-70027800D01*
X148678900Y-71882000D02*
X150474340Y-71882000D01*
%TO.N,LCD_D0*%
X182077360Y-75651360D02*
X183134000Y-75651360D01*
X184938121Y-73847239D02*
X184938121Y-62921601D01*
X183134000Y-75651360D02*
X184938121Y-73847239D01*
X184938121Y-62921601D02*
X184938121Y-62449161D01*
X178953160Y-56464200D02*
X173009560Y-56464200D01*
X184938121Y-62449161D02*
X178953160Y-56464200D01*
X157093920Y-51541680D02*
X156738320Y-51897280D01*
X158089600Y-51541680D02*
X157093920Y-51541680D01*
%TO.N,LCD_D1*%
X182077360Y-76357480D02*
X183276240Y-76357480D01*
X183276240Y-76357480D02*
X185450480Y-74183240D01*
X185450480Y-74183240D02*
X185450480Y-62235080D01*
X179110640Y-55895240D02*
X174635160Y-55895240D01*
X185450480Y-62235080D02*
X179110640Y-55895240D01*
X174635160Y-55895240D02*
X172923200Y-55895240D01*
X172044360Y-56774080D02*
X172044360Y-57124600D01*
X172923200Y-55895240D02*
X172044360Y-56774080D01*
X165145720Y-55471400D02*
X165145720Y-55704400D01*
X166542720Y-54074400D02*
X165145720Y-55471400D01*
X160030160Y-53436520D02*
X159273240Y-54193440D01*
X159273240Y-55160840D02*
X159816800Y-55704400D01*
X159273240Y-54193440D02*
X159273240Y-55160840D01*
%TO.N,LCD_D8*%
X182057040Y-77017880D02*
X183255920Y-77017880D01*
X185740490Y-74533310D02*
X185740490Y-61031570D01*
X183255920Y-77017880D02*
X185740490Y-74533310D01*
X180050440Y-55341520D02*
X180050440Y-53817520D01*
X185740490Y-61031570D02*
X180050440Y-55341520D01*
D18*
X174863760Y-46802040D02*
X174802800Y-46863000D01*
X180284120Y-46802040D02*
X174863760Y-46802040D01*
D17*
%TO.N,LCD_D9*%
X181580999Y-76838601D02*
X181580999Y-73003201D01*
X181356000Y-77063600D02*
X181580999Y-76838601D01*
X181580999Y-73003201D02*
X182112920Y-72471280D01*
X182112920Y-72471280D02*
X183489600Y-72471280D01*
X183489600Y-72471280D02*
X184210960Y-71749920D01*
X184210960Y-71749920D02*
X184210960Y-67249040D01*
X181424361Y-64462441D02*
X181424361Y-60799761D01*
X184210960Y-67249040D02*
X181424361Y-64462441D01*
X181424361Y-60799761D02*
X181424361Y-60591481D01*
X181424361Y-60591481D02*
X180187600Y-59354720D01*
X179359560Y-58526680D02*
X177078640Y-58526680D01*
X180187600Y-59354720D02*
X179359560Y-58526680D01*
%TO.N,LCD_D17*%
X181416960Y-78201520D02*
X184617360Y-81401920D01*
X184617360Y-81401920D02*
X190271400Y-81401920D01*
X190271400Y-81401920D02*
X193512440Y-78160880D01*
X193512440Y-49697640D02*
X191785240Y-47970440D01*
X193512440Y-78160880D02*
X193512440Y-49697640D01*
%TO.N,DEBUG_LED1*%
X162666680Y-91109800D02*
X162666680Y-96489520D01*
X162849560Y-96672400D02*
X164881560Y-96672400D01*
X162666680Y-96489520D02*
X162849560Y-96672400D01*
%TO.N,DEBUG_LED2*%
X164957760Y-98267520D02*
X162488880Y-98267520D01*
X162488880Y-98267520D02*
X162031680Y-97810320D01*
X162031680Y-91191080D02*
X162016440Y-91175840D01*
X162031680Y-97810320D02*
X162031680Y-91191080D01*
%TO.N,DEBUG_LED3*%
X161447480Y-93903800D02*
X161447480Y-99303840D01*
X162044040Y-99900400D02*
X164922200Y-99900400D01*
X161447480Y-99303840D02*
X162044040Y-99900400D01*
D18*
%TO.N,LCD_VSYNC*%
X176565560Y-65303400D02*
X176565560Y-63820040D01*
X176565560Y-63820040D02*
X174071280Y-61325760D01*
X174071280Y-61325760D02*
X174071280Y-59806840D01*
X174071280Y-59806840D02*
X175610520Y-58267600D01*
X175610520Y-58267600D02*
X176245520Y-58267600D01*
X177373280Y-57139840D02*
X177373280Y-57073800D01*
X176245520Y-58267600D02*
X177373280Y-57139840D01*
X172816520Y-46781720D02*
X171465240Y-45430440D01*
X174139142Y-46781720D02*
X172816520Y-46781720D01*
X175376840Y-45544022D02*
X174139142Y-46781720D01*
X175376840Y-44871640D02*
X175376840Y-45544022D01*
X176154080Y-44094400D02*
X175376840Y-44871640D01*
X177779680Y-44094400D02*
X176154080Y-44094400D01*
X173126400Y-74884280D02*
X172074840Y-73832720D01*
X171231560Y-73832720D02*
X170921680Y-73522840D01*
X172074840Y-73832720D02*
X171231560Y-73832720D01*
X170921680Y-73522840D02*
X170921680Y-68061840D01*
X170921680Y-68061840D02*
X171643040Y-67340480D01*
X174528480Y-67340480D02*
X176565560Y-65303400D01*
X171643040Y-67340480D02*
X174528480Y-67340480D01*
%TO.N,LCD_HSYNC*%
X176215040Y-65064640D02*
X176215040Y-64028320D01*
X176215040Y-64028320D02*
X173334680Y-61147960D01*
X173334680Y-61147960D02*
X173334680Y-59898280D01*
X173334680Y-59898280D02*
X175442880Y-57790080D01*
X175930560Y-57790080D02*
X176626520Y-57094120D01*
X175442880Y-57790080D02*
X175930560Y-57790080D01*
X170266360Y-44089320D02*
X168925240Y-45430440D01*
X175442880Y-44089320D02*
X170266360Y-44089320D01*
X172501560Y-74858880D02*
X171749720Y-74107040D01*
X171749720Y-74107040D02*
X170789600Y-74107040D01*
X170789600Y-74107040D02*
X170616880Y-73934320D01*
X170616880Y-73934320D02*
X170616880Y-67955160D01*
X170616880Y-67955160D02*
X171516040Y-67056000D01*
X174223680Y-67056000D02*
X176215040Y-65064640D01*
X171516040Y-67056000D02*
X174223680Y-67056000D01*
%TO.N,LCD_DE*%
X171414440Y-66812160D02*
X173974760Y-66812160D01*
X173974760Y-66812160D02*
X175874680Y-64912240D01*
X170383200Y-67843400D02*
X171414440Y-66812160D01*
X170383200Y-74076560D02*
X170383200Y-67843400D01*
X170662600Y-74355960D02*
X170383200Y-74076560D01*
X171627800Y-74355960D02*
X170662600Y-74355960D01*
X171912280Y-74640440D02*
X171627800Y-74355960D01*
X171912280Y-74863960D02*
X171912280Y-74640440D01*
X172714920Y-59771280D02*
X175524160Y-56962040D01*
X175524160Y-56962040D02*
X175803560Y-56962040D01*
X172714920Y-61127640D02*
X172714920Y-59771280D01*
X175874680Y-64287400D02*
X172714920Y-61127640D01*
X175874680Y-64912240D02*
X175874680Y-64287400D01*
%TO.N,LCD_CLK*%
X171312840Y-74838560D02*
X170383200Y-74838560D01*
X170383200Y-74838560D02*
X169793920Y-74249280D01*
X157861000Y-52552600D02*
X158338520Y-52075080D01*
X157861000Y-52938680D02*
X157861000Y-52552600D01*
X162077400Y-51435000D02*
X162529520Y-50982880D01*
X162529520Y-46746160D02*
X163845240Y-45430440D01*
X162529520Y-50982880D02*
X162529520Y-46746160D01*
X169793920Y-74249280D02*
X168605200Y-73060560D01*
X168716960Y-72948800D02*
X168716960Y-64129920D01*
X168605200Y-73060560D02*
X168716960Y-72948800D01*
D17*
%TO.N,LCD_D23*%
X168963191Y-77386030D02*
X168958110Y-77391110D01*
X168981114Y-77403960D02*
X168963191Y-77386030D01*
X169285920Y-77403960D02*
X168981114Y-77403960D01*
X168958110Y-77391110D02*
X168359261Y-77989957D01*
X168359261Y-77989957D02*
X164680452Y-77989956D01*
X155185239Y-47471239D02*
X155726039Y-46930439D01*
X155185239Y-50462763D02*
X155185239Y-47471239D01*
X147638899Y-58009103D02*
X155185239Y-50462763D01*
X155726039Y-46930439D02*
X160270319Y-46930439D01*
X147638899Y-72884001D02*
X147638899Y-58009103D01*
X150631575Y-75876677D02*
X147638899Y-72884001D01*
X162567173Y-75876677D02*
X150631575Y-75876677D01*
X164680452Y-77989956D02*
X162567173Y-75876677D01*
X161305240Y-45895518D02*
X161305240Y-45430440D01*
X160270319Y-46930439D02*
X161305240Y-45895518D01*
%TO.N,LCD_D22*%
X157555251Y-46640429D02*
X158765240Y-45430440D01*
X155605913Y-46640429D02*
X157555251Y-46640429D01*
X170017440Y-77419200D02*
X169156674Y-78279966D01*
X147025360Y-72680598D02*
X147025360Y-56774080D01*
X169156674Y-78279966D02*
X164560325Y-78279965D01*
X164560325Y-78279965D02*
X162447047Y-76166687D01*
X162447047Y-76166687D02*
X150511448Y-76166686D01*
X154895229Y-49600171D02*
X154895230Y-47351112D01*
X150511448Y-76166686D02*
X147025360Y-72680598D01*
X147030440Y-51125120D02*
X147553680Y-50601880D01*
X147025360Y-56774080D02*
X147030440Y-56769000D01*
X147553680Y-50601880D02*
X153893520Y-50601880D01*
X147030440Y-56769000D02*
X147030440Y-51125120D01*
X153893520Y-50601880D02*
X154895229Y-49600171D01*
X154895230Y-47351112D02*
X155605913Y-46640429D01*
%TO.N,LCD_D21*%
X169941240Y-76708000D02*
X170332400Y-76708000D01*
X170332400Y-76708000D02*
X170642280Y-77017880D01*
X170642280Y-77017880D02*
X170642280Y-77607160D01*
X170642280Y-77607160D02*
X169679465Y-78569975D01*
X169679465Y-78569975D02*
X164440198Y-78569974D01*
X164440198Y-78569974D02*
X162326920Y-76456696D01*
X162326920Y-76456696D02*
X150391321Y-76456695D01*
X150391321Y-76456695D02*
X146674840Y-72740214D01*
X146674840Y-47213520D02*
X147228560Y-46659800D01*
X146674840Y-72740214D02*
X146674840Y-47213520D01*
X156225240Y-45610966D02*
X156225240Y-45430440D01*
X155176406Y-46659800D02*
X156225240Y-45610966D01*
X147228560Y-46659800D02*
X155176406Y-46659800D01*
%TO.N,LCD_D20*%
X147736560Y-51485800D02*
X147787360Y-51435000D01*
X147736560Y-57038240D02*
X147736560Y-51485800D01*
%TO.N,LCD_D19*%
X165663880Y-74950320D02*
X164942520Y-75671680D01*
X165663880Y-73131680D02*
X165663880Y-74950320D01*
%TO.N,LCD_D18*%
X165105080Y-73131680D02*
X165105080Y-73522840D01*
X165105080Y-73522840D02*
X164876480Y-73751440D01*
X157469840Y-73751440D02*
X157388560Y-73670160D01*
X164876480Y-73751440D02*
X157469840Y-73751440D01*
%TO.N,LCD_D15*%
X164690079Y-72743175D02*
X168239440Y-69193814D01*
X164690079Y-73033601D02*
X164690079Y-72743175D01*
X164617400Y-73106280D02*
X164690079Y-73033601D01*
X164531040Y-73106280D02*
X164617400Y-73106280D01*
X168239440Y-69193814D02*
X168239440Y-60050680D01*
X174822901Y-53467219D02*
X179628581Y-53467219D01*
X168239440Y-60050680D02*
X174822901Y-53467219D01*
X179628581Y-53467219D02*
X179628581Y-53411339D01*
X179628581Y-53411339D02*
X183291480Y-49748440D01*
X184927240Y-49748440D02*
X186705240Y-47970440D01*
X183291480Y-49748440D02*
X184927240Y-49748440D01*
%TO.N,LCD_D14*%
X163972240Y-73050878D02*
X167894000Y-69129118D01*
X163972240Y-73116440D02*
X163972240Y-73050878D01*
X167894000Y-69129118D02*
X167894000Y-59822080D01*
X167894000Y-59822080D02*
X175193960Y-52522120D01*
X179613560Y-52522120D02*
X184165240Y-47970440D01*
X175193960Y-52522120D02*
X179613560Y-52522120D01*
%TO.N,LCD_D13*%
X163306760Y-73152000D02*
X166669720Y-69789040D01*
X166669720Y-69789040D02*
X166669720Y-60198000D01*
X166669720Y-60198000D02*
X175910240Y-50957480D01*
X178638200Y-50957480D02*
X181625240Y-47970440D01*
X175910240Y-50957480D02*
X178638200Y-50957480D01*
%TO.N,LCD_D12*%
X162605720Y-73101200D02*
X166273480Y-69433440D01*
X166273480Y-69433440D02*
X166273480Y-58343800D01*
X172427681Y-52189599D02*
X172427681Y-52184519D01*
X166273480Y-58343800D02*
X172427681Y-52189599D01*
X172427681Y-52184519D02*
X174457360Y-50154840D01*
X176900840Y-50154840D02*
X179085240Y-47970440D01*
X174457360Y-50154840D02*
X176900840Y-50154840D01*
%TO.N,LCD_D11*%
X161914840Y-73070720D02*
X165735000Y-69250560D01*
X165735000Y-69250560D02*
X165735000Y-57947560D01*
X165735000Y-57947560D02*
X174127160Y-49555400D01*
X174960280Y-49555400D02*
X176545240Y-47970440D01*
X174127160Y-49555400D02*
X174960280Y-49555400D01*
%TO.N,LCD_D10*%
X161203640Y-73045320D02*
X165140640Y-69108320D01*
X165140640Y-56835040D02*
X174005240Y-47970440D01*
X165140640Y-69108320D02*
X165140640Y-56835040D01*
%TO.N,LCD_D7*%
X160492440Y-73004680D02*
X164597080Y-68900040D01*
X164597080Y-49758600D02*
X166385240Y-47970440D01*
X164597080Y-68900040D02*
X164597080Y-49758600D01*
%TO.N,LCD_D6*%
X159776160Y-72984360D02*
X163972240Y-68788280D01*
X163972240Y-68788280D02*
X163972240Y-56393080D01*
X163845240Y-56266080D02*
X163845240Y-47970440D01*
X163972240Y-56393080D02*
X163845240Y-56266080D01*
%TO.N,LCD_D5*%
X158937960Y-73035160D02*
X163479480Y-68493640D01*
X163479480Y-68493640D02*
X163479480Y-57952640D01*
X161305240Y-55778400D02*
X161305240Y-47970440D01*
X163479480Y-57952640D02*
X161305240Y-55778400D01*
%TO.N,LCD_D4*%
X158186120Y-73004680D02*
X162966400Y-68224400D01*
X162966400Y-68224400D02*
X162966400Y-59715400D01*
X158765240Y-55514240D02*
X158765240Y-47970440D01*
X162966400Y-59715400D02*
X158765240Y-55514240D01*
%TO.N,LCD_D3*%
X157490160Y-72958960D02*
X161930080Y-68519040D01*
X161930080Y-68519040D02*
X161940240Y-68519040D01*
X161940240Y-68519040D02*
X162397440Y-68061840D01*
X162397440Y-68061840D02*
X162397440Y-60213240D01*
X156225240Y-54041040D02*
X156225240Y-47970440D01*
X162397440Y-60213240D02*
X156225240Y-54041040D01*
%TO.N,LCD_D2*%
X170423840Y-64414400D02*
X170207940Y-64198500D01*
X170423840Y-67045840D02*
X170423840Y-64414400D01*
X170207940Y-64198500D02*
X168838880Y-62829440D01*
%TO.N,UART0_RX*%
X183530240Y-70200520D02*
X183545480Y-70185280D01*
X182731500Y-70200520D02*
X183530240Y-70200520D01*
%TO.N,UART0_TX*%
X183536843Y-71286117D02*
X183545480Y-71277480D01*
X182641240Y-71286117D02*
X183536843Y-71286117D01*
%TD*%
M02*
