%TF.GenerationSoftware,KiCad,Pcbnew,(5.1.7)-1*%
%TF.CreationDate,2020-10-28T20:28:28+01:00*%
%TF.ProjectId,f1c100s,66316331-3030-4732-9e6b-696361645f70,rev?*%
%TF.SameCoordinates,Original*%
%TF.FileFunction,Legend,Top*%
%TF.FilePolarity,Positive*%
%FSLAX46Y46*%
G04 Gerber Fmt 4.6, Leading zero omitted, Abs format (unit mm)*
G04 Created by KiCad (PCBNEW (5.1.7)-1) date 2020-10-28 20:28:28*
%MOMM*%
%LPD*%
G01*
G04 APERTURE LIST*
%ADD10C,0.150000*%
%ADD11C,0.120000*%
%ADD12C,0.200000*%
%ADD13C,0.254000*%
%ADD14C,0.100000*%
G04 APERTURE END LIST*
D10*
X165107504Y-83850171D02*
X164774171Y-83850171D01*
X164774171Y-84373980D02*
X164774171Y-83373980D01*
X165250361Y-83373980D01*
X166155123Y-84373980D02*
X165583695Y-84373980D01*
X165869409Y-84373980D02*
X165869409Y-83373980D01*
X165774171Y-83516838D01*
X165678933Y-83612076D01*
X165583695Y-83659695D01*
X167155123Y-84278742D02*
X167107504Y-84326361D01*
X166964647Y-84373980D01*
X166869409Y-84373980D01*
X166726552Y-84326361D01*
X166631314Y-84231123D01*
X166583695Y-84135885D01*
X166536076Y-83945409D01*
X166536076Y-83802552D01*
X166583695Y-83612076D01*
X166631314Y-83516838D01*
X166726552Y-83421600D01*
X166869409Y-83373980D01*
X166964647Y-83373980D01*
X167107504Y-83421600D01*
X167155123Y-83469219D01*
X168107504Y-84373980D02*
X167536076Y-84373980D01*
X167821790Y-84373980D02*
X167821790Y-83373980D01*
X167726552Y-83516838D01*
X167631314Y-83612076D01*
X167536076Y-83659695D01*
X168726552Y-83373980D02*
X168821790Y-83373980D01*
X168917028Y-83421600D01*
X168964647Y-83469219D01*
X169012266Y-83564457D01*
X169059885Y-83754933D01*
X169059885Y-83993028D01*
X169012266Y-84183504D01*
X168964647Y-84278742D01*
X168917028Y-84326361D01*
X168821790Y-84373980D01*
X168726552Y-84373980D01*
X168631314Y-84326361D01*
X168583695Y-84278742D01*
X168536076Y-84183504D01*
X168488457Y-83993028D01*
X168488457Y-83754933D01*
X168536076Y-83564457D01*
X168583695Y-83469219D01*
X168631314Y-83421600D01*
X168726552Y-83373980D01*
X169678933Y-83373980D02*
X169774171Y-83373980D01*
X169869409Y-83421600D01*
X169917028Y-83469219D01*
X169964647Y-83564457D01*
X170012266Y-83754933D01*
X170012266Y-83993028D01*
X169964647Y-84183504D01*
X169917028Y-84278742D01*
X169869409Y-84326361D01*
X169774171Y-84373980D01*
X169678933Y-84373980D01*
X169583695Y-84326361D01*
X169536076Y-84278742D01*
X169488457Y-84183504D01*
X169440838Y-83993028D01*
X169440838Y-83754933D01*
X169488457Y-83564457D01*
X169536076Y-83469219D01*
X169583695Y-83421600D01*
X169678933Y-83373980D01*
X170393219Y-84326361D02*
X170488457Y-84373980D01*
X170678933Y-84373980D01*
X170774171Y-84326361D01*
X170821790Y-84231123D01*
X170821790Y-84183504D01*
X170774171Y-84088266D01*
X170678933Y-84040647D01*
X170536076Y-84040647D01*
X170440838Y-83993028D01*
X170393219Y-83897790D01*
X170393219Y-83850171D01*
X170440838Y-83754933D01*
X170536076Y-83707314D01*
X170678933Y-83707314D01*
X170774171Y-83754933D01*
X172488457Y-84373980D02*
X172012266Y-84373980D01*
X172012266Y-83373980D01*
X172821790Y-84373980D02*
X172821790Y-83707314D01*
X172821790Y-83373980D02*
X172774171Y-83421600D01*
X172821790Y-83469219D01*
X172869409Y-83421600D01*
X172821790Y-83373980D01*
X172821790Y-83469219D01*
X173297980Y-83707314D02*
X173297980Y-84373980D01*
X173297980Y-83802552D02*
X173345600Y-83754933D01*
X173440838Y-83707314D01*
X173583695Y-83707314D01*
X173678933Y-83754933D01*
X173726552Y-83850171D01*
X173726552Y-84373980D01*
X174631314Y-83707314D02*
X174631314Y-84373980D01*
X174202742Y-83707314D02*
X174202742Y-84231123D01*
X174250361Y-84326361D01*
X174345600Y-84373980D01*
X174488457Y-84373980D01*
X174583695Y-84326361D01*
X174631314Y-84278742D01*
X175012266Y-84373980D02*
X175536076Y-83707314D01*
X175012266Y-83707314D02*
X175536076Y-84373980D01*
X176678933Y-84373980D02*
X176678933Y-83373980D01*
X176917028Y-83373980D01*
X177059885Y-83421600D01*
X177155123Y-83516838D01*
X177202742Y-83612076D01*
X177250361Y-83802552D01*
X177250361Y-83945409D01*
X177202742Y-84135885D01*
X177155123Y-84231123D01*
X177059885Y-84326361D01*
X176917028Y-84373980D01*
X176678933Y-84373980D01*
X178059885Y-84326361D02*
X177964647Y-84373980D01*
X177774171Y-84373980D01*
X177678933Y-84326361D01*
X177631314Y-84231123D01*
X177631314Y-83850171D01*
X177678933Y-83754933D01*
X177774171Y-83707314D01*
X177964647Y-83707314D01*
X178059885Y-83754933D01*
X178107504Y-83850171D01*
X178107504Y-83945409D01*
X177631314Y-84040647D01*
X178440838Y-83707314D02*
X178678933Y-84373980D01*
X178917028Y-83707314D01*
X180393219Y-83850171D02*
X180536076Y-83897790D01*
X180583695Y-83945409D01*
X180631314Y-84040647D01*
X180631314Y-84183504D01*
X180583695Y-84278742D01*
X180536076Y-84326361D01*
X180440838Y-84373980D01*
X180059885Y-84373980D01*
X180059885Y-83373980D01*
X180393219Y-83373980D01*
X180488457Y-83421600D01*
X180536076Y-83469219D01*
X180583695Y-83564457D01*
X180583695Y-83659695D01*
X180536076Y-83754933D01*
X180488457Y-83802552D01*
X180393219Y-83850171D01*
X180059885Y-83850171D01*
X181202742Y-84373980D02*
X181107504Y-84326361D01*
X181059885Y-84278742D01*
X181012266Y-84183504D01*
X181012266Y-83897790D01*
X181059885Y-83802552D01*
X181107504Y-83754933D01*
X181202742Y-83707314D01*
X181345600Y-83707314D01*
X181440838Y-83754933D01*
X181488457Y-83802552D01*
X181536076Y-83897790D01*
X181536076Y-84183504D01*
X181488457Y-84278742D01*
X181440838Y-84326361D01*
X181345600Y-84373980D01*
X181202742Y-84373980D01*
X182393219Y-84373980D02*
X182393219Y-83850171D01*
X182345600Y-83754933D01*
X182250361Y-83707314D01*
X182059885Y-83707314D01*
X181964647Y-83754933D01*
X182393219Y-84326361D02*
X182297980Y-84373980D01*
X182059885Y-84373980D01*
X181964647Y-84326361D01*
X181917028Y-84231123D01*
X181917028Y-84135885D01*
X181964647Y-84040647D01*
X182059885Y-83993028D01*
X182297980Y-83993028D01*
X182393219Y-83945409D01*
X182869409Y-84373980D02*
X182869409Y-83707314D01*
X182869409Y-83897790D02*
X182917028Y-83802552D01*
X182964647Y-83754933D01*
X183059885Y-83707314D01*
X183155123Y-83707314D01*
X183917028Y-84373980D02*
X183917028Y-83373980D01*
X183917028Y-84326361D02*
X183821790Y-84373980D01*
X183631314Y-84373980D01*
X183536076Y-84326361D01*
X183488457Y-84278742D01*
X183440838Y-84183504D01*
X183440838Y-83897790D01*
X183488457Y-83802552D01*
X183536076Y-83754933D01*
X183631314Y-83707314D01*
X183821790Y-83707314D01*
X183917028Y-83754933D01*
D11*
%TO.C,J5*%
X189995500Y-75205900D02*
X192655500Y-75205900D01*
X189995500Y-67525900D02*
X189995500Y-75205900D01*
X192655500Y-67525900D02*
X192655500Y-75205900D01*
X189995500Y-67525900D02*
X192655500Y-67525900D01*
X189995500Y-66255900D02*
X189995500Y-64925900D01*
X189995500Y-64925900D02*
X191325500Y-64925900D01*
D12*
%TO.C,IC2*%
X186054426Y-91362800D02*
X184654426Y-91362800D01*
X184304426Y-88412800D02*
X184304426Y-91312800D01*
X184104426Y-88412800D02*
X184304426Y-88412800D01*
X184104426Y-91312800D02*
X184104426Y-88412800D01*
X184304426Y-91312800D02*
X184104426Y-91312800D01*
%TO.C,IC3*%
X179508484Y-91362800D02*
X178108484Y-91362800D01*
X177758484Y-88412800D02*
X177758484Y-91312800D01*
X177558484Y-88412800D02*
X177758484Y-88412800D01*
X177558484Y-91312800D02*
X177558484Y-88412800D01*
X177758484Y-91312800D02*
X177558484Y-91312800D01*
%TO.C,IC4*%
X172962542Y-91362800D02*
X171562542Y-91362800D01*
X171212542Y-88412800D02*
X171212542Y-91312800D01*
X171012542Y-88412800D02*
X171212542Y-88412800D01*
X171012542Y-91312800D02*
X171012542Y-88412800D01*
X171212542Y-91312800D02*
X171012542Y-91312800D01*
%TO.C,IC5*%
X166416600Y-91362800D02*
X165016600Y-91362800D01*
X164666600Y-88412800D02*
X164666600Y-91312800D01*
X164466600Y-88412800D02*
X164666600Y-88412800D01*
X164466600Y-91312800D02*
X164466600Y-88412800D01*
X164666600Y-91312800D02*
X164466600Y-91312800D01*
D11*
%TO.C,J4*%
X187945720Y-60893000D02*
X193145720Y-60893000D01*
X187945720Y-58293000D02*
X187945720Y-60893000D01*
X193145720Y-55693000D02*
X193145720Y-60893000D01*
X187945720Y-58293000D02*
X190545720Y-58293000D01*
X190545720Y-58293000D02*
X190545720Y-55693000D01*
X190545720Y-55693000D02*
X193145720Y-55693000D01*
X187945720Y-57023000D02*
X187945720Y-55693000D01*
X187945720Y-55693000D02*
X189275720Y-55693000D01*
%TO.C,J2*%
X193115240Y-49300440D02*
X193115240Y-44100440D01*
X149875240Y-49300440D02*
X193115240Y-49300440D01*
X147275240Y-44100440D02*
X193115240Y-44100440D01*
X149875240Y-49300440D02*
X149875240Y-46700440D01*
X149875240Y-46700440D02*
X147275240Y-46700440D01*
X147275240Y-46700440D02*
X147275240Y-44100440D01*
X148605240Y-49300440D02*
X147275240Y-49300440D01*
X147275240Y-49300440D02*
X147275240Y-47970440D01*
%TO.C,J3*%
X150008900Y-57852000D02*
X147348900Y-57852000D01*
X150008900Y-70612000D02*
X150008900Y-57852000D01*
X147348900Y-70612000D02*
X147348900Y-57852000D01*
X150008900Y-70612000D02*
X147348900Y-70612000D01*
X150008900Y-71882000D02*
X150008900Y-73212000D01*
X150008900Y-73212000D02*
X148678900Y-73212000D01*
%TO.C,SW4*%
X149228068Y-89551867D02*
X149228068Y-90201867D01*
X155228068Y-89551867D02*
X155228068Y-90201867D01*
X155228068Y-93051867D02*
X155228068Y-92401867D01*
X149228068Y-93051867D02*
X149228068Y-92401867D01*
X149228068Y-89551867D02*
X152228068Y-89551867D01*
X152228068Y-89551867D02*
X155228068Y-89551867D01*
X149228068Y-93051867D02*
X152228068Y-93051867D01*
X152228068Y-93051867D02*
X155228068Y-93051867D01*
%TO.C,SW3*%
X149228068Y-84752310D02*
X149228068Y-85402310D01*
X155228068Y-84752310D02*
X155228068Y-85402310D01*
X155228068Y-88252310D02*
X155228068Y-87602310D01*
X149228068Y-88252310D02*
X149228068Y-87602310D01*
X149228068Y-84752310D02*
X152228068Y-84752310D01*
X152228068Y-84752310D02*
X155228068Y-84752310D01*
X149228068Y-88252310D02*
X152228068Y-88252310D01*
X152228068Y-88252310D02*
X155228068Y-88252310D01*
%TO.C,TP5*%
X167938600Y-97885400D02*
X170338600Y-97885400D01*
X170338600Y-97885400D02*
X170338600Y-100285400D01*
X170338600Y-100285400D02*
X167938600Y-100285400D01*
X167938600Y-100285400D02*
X167938600Y-97885400D01*
%TO.C,TP4*%
X180145840Y-97946360D02*
X182545840Y-97946360D01*
X182545840Y-97946360D02*
X182545840Y-100346360D01*
X182545840Y-100346360D02*
X180145840Y-100346360D01*
X180145840Y-100346360D02*
X180145840Y-97946360D01*
%TO.C,TP3*%
X180145840Y-94847560D02*
X182545840Y-94847560D01*
X182545840Y-94847560D02*
X182545840Y-97247560D01*
X182545840Y-97247560D02*
X180145840Y-97247560D01*
X180145840Y-97247560D02*
X180145840Y-94847560D01*
%TO.C,TP2*%
X183244640Y-94847560D02*
X185644640Y-94847560D01*
X185644640Y-94847560D02*
X185644640Y-97247560D01*
X185644640Y-97247560D02*
X183244640Y-97247560D01*
X183244640Y-97247560D02*
X183244640Y-94847560D01*
%TO.C,TP1*%
X183244640Y-97946360D02*
X185644640Y-97946360D01*
X185644640Y-97946360D02*
X185644640Y-100346360D01*
X185644640Y-100346360D02*
X183244640Y-100346360D01*
X183244640Y-100346360D02*
X183244640Y-97946360D01*
%TO.C,SW2*%
X149228068Y-79952755D02*
X149228068Y-80602755D01*
X155228068Y-79952755D02*
X155228068Y-80602755D01*
X155228068Y-83452755D02*
X155228068Y-82802755D01*
X149228068Y-83452755D02*
X149228068Y-82802755D01*
X149228068Y-79952755D02*
X152228068Y-79952755D01*
X152228068Y-79952755D02*
X155228068Y-79952755D01*
X149228068Y-83452755D02*
X152228068Y-83452755D01*
X152228068Y-83452755D02*
X155228068Y-83452755D01*
%TO.C,SW1*%
X149228068Y-75153200D02*
X149228068Y-75803200D01*
X155228068Y-75153200D02*
X155228068Y-75803200D01*
X155228068Y-78653200D02*
X155228068Y-78003200D01*
X149228068Y-78653200D02*
X149228068Y-78003200D01*
X149228068Y-75153200D02*
X152228068Y-75153200D01*
X152228068Y-75153200D02*
X155228068Y-75153200D01*
X149228068Y-78653200D02*
X152228068Y-78653200D01*
X152228068Y-78653200D02*
X155228068Y-78653200D01*
%TO.C,J1*%
X173474600Y-96179400D02*
X173474600Y-95729400D01*
X173924600Y-95729400D02*
X173474600Y-95729400D01*
X171474600Y-96409400D02*
X171894600Y-96409400D01*
X171474600Y-98389400D02*
X171474600Y-96409400D01*
X171474600Y-100759400D02*
X171474600Y-100359400D01*
X178994600Y-100359400D02*
X178994600Y-100759400D01*
X178994600Y-96409400D02*
X178574600Y-96409400D01*
X178994600Y-98389400D02*
X178994600Y-96409400D01*
D13*
%TO.C,IC6*%
X155457600Y-69475200D02*
G75*
G03*
X155457600Y-69475200I-125000J0D01*
G01*
%TO.C,IC1*%
X169248400Y-66091400D02*
G75*
G03*
X169248400Y-66091400I-100000J0D01*
G01*
D11*
%TO.C,D1*%
X158512380Y-95289140D02*
X159312380Y-94489140D01*
X159312380Y-94489140D02*
X161512380Y-94489140D01*
X161512380Y-94489140D02*
X161512380Y-97489140D01*
X161512380Y-97489140D02*
X158512380Y-97489140D01*
X158512380Y-97489140D02*
X158512380Y-95289140D01*
%TO.C,Y1*%
X183707400Y-72593200D02*
X183707400Y-78343200D01*
X183707400Y-66843200D02*
X183707400Y-72593200D01*
X188707400Y-72593200D02*
X188707400Y-78343200D01*
X188707400Y-66893200D02*
X188707400Y-72643200D01*
X183707400Y-78343200D02*
X184657400Y-78343200D01*
X188707400Y-78343200D02*
X187757400Y-78343200D01*
X188707400Y-66893200D02*
X187757400Y-66893200D01*
X183707400Y-66843200D02*
X184657400Y-66843200D01*
%TO.C,C1*%
X177809480Y-64184795D02*
X177809480Y-63953125D01*
X177089480Y-64184795D02*
X177089480Y-63953125D01*
%TO.C,C2*%
X173635080Y-63625995D02*
X173635080Y-63394325D01*
X174355080Y-63625995D02*
X174355080Y-63394325D01*
%TO.C,C3*%
X175702965Y-76729000D02*
X175934635Y-76729000D01*
X175702965Y-77449000D02*
X175934635Y-77449000D01*
%TO.C,C4*%
X172658035Y-76754400D02*
X172426365Y-76754400D01*
X172658035Y-77474400D02*
X172426365Y-77474400D01*
%TO.C,C5*%
X172658035Y-78528500D02*
X172426365Y-78528500D01*
X172658035Y-77808500D02*
X172426365Y-77808500D01*
%TO.C,C6*%
X172658035Y-79608000D02*
X172426365Y-79608000D01*
X172658035Y-78888000D02*
X172426365Y-78888000D01*
%TO.C,C7*%
X174826665Y-80700200D02*
X175058335Y-80700200D01*
X174826665Y-79980200D02*
X175058335Y-79980200D01*
%TO.C,C10*%
X172658035Y-80649400D02*
X172426365Y-80649400D01*
X172658035Y-79929400D02*
X172426365Y-79929400D01*
%TO.C,C11*%
X167793935Y-68334300D02*
X167562265Y-68334300D01*
X167793935Y-69054300D02*
X167562265Y-69054300D01*
%TO.C,C12*%
X181773565Y-72728500D02*
X182005235Y-72728500D01*
X181773565Y-73448500D02*
X182005235Y-73448500D01*
%TO.C,C13*%
X167793935Y-68038300D02*
X167562265Y-68038300D01*
X167793935Y-67318300D02*
X167562265Y-67318300D01*
%TO.C,C14*%
X179157365Y-63966680D02*
X179389035Y-63966680D01*
X179157365Y-63246680D02*
X179389035Y-63246680D01*
%TO.C,C15*%
X167499295Y-73919760D02*
X167267625Y-73919760D01*
X167499295Y-74639760D02*
X167267625Y-74639760D01*
%TO.C,C16*%
X175883835Y-63992080D02*
X175652165Y-63992080D01*
X175883835Y-63272080D02*
X175652165Y-63272080D01*
%TO.C,C17*%
X174560285Y-54106400D02*
X174791955Y-54106400D01*
X174560285Y-53386400D02*
X174791955Y-53386400D01*
%TO.C,C18*%
X166408785Y-52002100D02*
X166640455Y-52002100D01*
X166408785Y-52722100D02*
X166640455Y-52722100D01*
%TO.C,C19*%
X169738720Y-54138565D02*
X169738720Y-54370235D01*
X170458720Y-54138565D02*
X170458720Y-54370235D01*
%TO.C,C20*%
X182680000Y-77134165D02*
X182680000Y-77365835D01*
X183400000Y-77134165D02*
X183400000Y-77365835D01*
%TO.C,C21*%
X170824155Y-56265400D02*
X170592485Y-56265400D01*
X170824155Y-55545400D02*
X170592485Y-55545400D01*
%TO.C,C22*%
X179157365Y-62823680D02*
X179389035Y-62823680D01*
X179157365Y-62103680D02*
X179389035Y-62103680D01*
%TO.C,C23*%
X171677920Y-54151265D02*
X171677920Y-54382935D01*
X170957920Y-54151265D02*
X170957920Y-54382935D01*
%TO.C,C24*%
X182750000Y-67985835D02*
X182750000Y-67754165D01*
X183470000Y-67985835D02*
X183470000Y-67754165D01*
%TO.C,C25*%
X184542165Y-92375400D02*
X184773835Y-92375400D01*
X184542165Y-93095400D02*
X184773835Y-93095400D01*
%TO.C,C26*%
X177692631Y-93095400D02*
X177924301Y-93095400D01*
X177692631Y-92375400D02*
X177924301Y-92375400D01*
%TO.C,C27*%
X170843098Y-92375400D02*
X171074768Y-92375400D01*
X170843098Y-93095400D02*
X171074768Y-93095400D01*
%TO.C,C28*%
X163993565Y-93095400D02*
X164225235Y-93095400D01*
X163993565Y-92375400D02*
X164225235Y-92375400D01*
%TO.C,C29*%
X187117400Y-89596965D02*
X187117400Y-89828635D01*
X187837400Y-89596965D02*
X187837400Y-89828635D01*
%TO.C,C30*%
X181291455Y-89596965D02*
X181291455Y-89828635D01*
X180571455Y-89596965D02*
X180571455Y-89828635D01*
%TO.C,C31*%
X174025513Y-89596965D02*
X174025513Y-89828635D01*
X174745513Y-89596965D02*
X174745513Y-89828635D01*
%TO.C,C32*%
X168199571Y-89596965D02*
X168199571Y-89828635D01*
X167479571Y-89596965D02*
X167479571Y-89828635D01*
%TO.C,C33*%
X172912035Y-95051200D02*
X172680365Y-95051200D01*
X172912035Y-94331200D02*
X172680365Y-94331200D01*
%TO.C,C34*%
X157094925Y-59653760D02*
X157326595Y-59653760D01*
X157094925Y-58933760D02*
X157326595Y-58933760D01*
%TO.C,C35*%
X174559965Y-52360240D02*
X174791635Y-52360240D01*
X174559965Y-53080240D02*
X174791635Y-53080240D01*
%TO.C,C36*%
X178687485Y-53080240D02*
X178919155Y-53080240D01*
X178687485Y-52360240D02*
X178919155Y-52360240D01*
%TO.C,C37*%
X183037485Y-52360240D02*
X183269155Y-52360240D01*
X183037485Y-53080240D02*
X183269155Y-53080240D01*
%TO.C,C38*%
X157856600Y-92187765D02*
X157856600Y-92419435D01*
X158576600Y-92187765D02*
X158576600Y-92419435D01*
%TO.C,C39*%
X157856600Y-87133165D02*
X157856600Y-87364835D01*
X158576600Y-87133165D02*
X158576600Y-87364835D01*
%TO.C,C40*%
X158576600Y-82535765D02*
X158576600Y-82767435D01*
X157856600Y-82535765D02*
X157856600Y-82767435D01*
%TO.C,C41*%
X159466960Y-77775805D02*
X159466960Y-78007475D01*
X160186960Y-77775805D02*
X160186960Y-78007475D01*
%TO.C,R1*%
X174724079Y-79640700D02*
X175059321Y-79640700D01*
X174724079Y-78880700D02*
X175059321Y-78880700D01*
%TO.C,R2*%
X174698679Y-77775800D02*
X175033921Y-77775800D01*
X174698679Y-78535800D02*
X175033921Y-78535800D01*
%TO.C,R3*%
X174528499Y-54382400D02*
X174863741Y-54382400D01*
X174528499Y-55142400D02*
X174863741Y-55142400D01*
%TO.C,R4*%
X166336999Y-53796200D02*
X166672241Y-53796200D01*
X166336999Y-53036200D02*
X166672241Y-53036200D01*
%TO.C,R5*%
X175574979Y-62869080D02*
X175910221Y-62869080D01*
X175574979Y-62109080D02*
X175910221Y-62109080D01*
%TO.C,R6*%
X155285459Y-71088520D02*
X155620701Y-71088520D01*
X155285459Y-70328520D02*
X155620701Y-70328520D01*
%TO.C,R7*%
X160196800Y-92135979D02*
X160196800Y-92471221D01*
X159436800Y-92135979D02*
X159436800Y-92471221D01*
%TO.C,R8*%
X163299159Y-97080340D02*
X163634401Y-97080340D01*
X163299159Y-96320340D02*
X163634401Y-96320340D01*
%TO.C,R9*%
X163299159Y-97907840D02*
X163634401Y-97907840D01*
X163299159Y-98667840D02*
X163634401Y-98667840D01*
%TO.C,R10*%
X163299159Y-99495340D02*
X163634401Y-99495340D01*
X163299159Y-100255340D02*
X163634401Y-100255340D01*
%TO.C,R11*%
X159436800Y-87081379D02*
X159436800Y-87416621D01*
X160196800Y-87081379D02*
X160196800Y-87416621D01*
%TO.C,R12*%
X160196800Y-82483979D02*
X160196800Y-82819221D01*
X159436800Y-82483979D02*
X159436800Y-82819221D01*
%TO.C,R13*%
X157846760Y-77724019D02*
X157846760Y-78059261D01*
X158606760Y-77724019D02*
X158606760Y-78059261D01*
%TO.C,J5*%
D10*
X192086906Y-63277500D02*
X192086906Y-63991786D01*
X192039287Y-64134643D01*
X191944049Y-64229881D01*
X191801192Y-64277500D01*
X191705954Y-64277500D01*
X193039287Y-63277500D02*
X192563097Y-63277500D01*
X192515478Y-63753691D01*
X192563097Y-63706072D01*
X192658335Y-63658453D01*
X192896430Y-63658453D01*
X192991668Y-63706072D01*
X193039287Y-63753691D01*
X193086906Y-63848929D01*
X193086906Y-64087024D01*
X193039287Y-64182262D01*
X192991668Y-64229881D01*
X192896430Y-64277500D01*
X192658335Y-64277500D01*
X192563097Y-64229881D01*
X192515478Y-64182262D01*
%TO.C,IC2*%
D13*
X182837664Y-87440123D02*
X182837664Y-86170123D01*
X184168140Y-87319171D02*
X184107664Y-87379647D01*
X183926235Y-87440123D01*
X183805283Y-87440123D01*
X183623854Y-87379647D01*
X183502902Y-87258695D01*
X183442426Y-87137742D01*
X183381949Y-86895838D01*
X183381949Y-86714409D01*
X183442426Y-86472504D01*
X183502902Y-86351552D01*
X183623854Y-86230600D01*
X183805283Y-86170123D01*
X183926235Y-86170123D01*
X184107664Y-86230600D01*
X184168140Y-86291076D01*
X184651949Y-86291076D02*
X184712426Y-86230600D01*
X184833378Y-86170123D01*
X185135759Y-86170123D01*
X185256711Y-86230600D01*
X185317187Y-86291076D01*
X185377664Y-86412028D01*
X185377664Y-86532980D01*
X185317187Y-86714409D01*
X184591473Y-87440123D01*
X185377664Y-87440123D01*
%TO.C,IC3*%
X176325588Y-87440123D02*
X176325588Y-86170123D01*
X177656064Y-87319171D02*
X177595588Y-87379647D01*
X177414159Y-87440123D01*
X177293207Y-87440123D01*
X177111778Y-87379647D01*
X176990826Y-87258695D01*
X176930350Y-87137742D01*
X176869873Y-86895838D01*
X176869873Y-86714409D01*
X176930350Y-86472504D01*
X176990826Y-86351552D01*
X177111778Y-86230600D01*
X177293207Y-86170123D01*
X177414159Y-86170123D01*
X177595588Y-86230600D01*
X177656064Y-86291076D01*
X178079397Y-86170123D02*
X178865588Y-86170123D01*
X178442254Y-86653933D01*
X178623683Y-86653933D01*
X178744635Y-86714409D01*
X178805111Y-86774885D01*
X178865588Y-86895838D01*
X178865588Y-87198219D01*
X178805111Y-87319171D01*
X178744635Y-87379647D01*
X178623683Y-87440123D01*
X178260826Y-87440123D01*
X178139873Y-87379647D01*
X178079397Y-87319171D01*
%TO.C,IC4*%
X169813513Y-87440123D02*
X169813513Y-86170123D01*
X171143989Y-87319171D02*
X171083513Y-87379647D01*
X170902084Y-87440123D01*
X170781132Y-87440123D01*
X170599703Y-87379647D01*
X170478751Y-87258695D01*
X170418275Y-87137742D01*
X170357798Y-86895838D01*
X170357798Y-86714409D01*
X170418275Y-86472504D01*
X170478751Y-86351552D01*
X170599703Y-86230600D01*
X170781132Y-86170123D01*
X170902084Y-86170123D01*
X171083513Y-86230600D01*
X171143989Y-86291076D01*
X172232560Y-86593457D02*
X172232560Y-87440123D01*
X171930179Y-86109647D02*
X171627798Y-87016790D01*
X172413989Y-87016790D01*
%TO.C,IC5*%
X163301438Y-87440123D02*
X163301438Y-86170123D01*
X164631914Y-87319171D02*
X164571438Y-87379647D01*
X164390009Y-87440123D01*
X164269057Y-87440123D01*
X164087628Y-87379647D01*
X163966676Y-87258695D01*
X163906200Y-87137742D01*
X163845723Y-86895838D01*
X163845723Y-86714409D01*
X163906200Y-86472504D01*
X163966676Y-86351552D01*
X164087628Y-86230600D01*
X164269057Y-86170123D01*
X164390009Y-86170123D01*
X164571438Y-86230600D01*
X164631914Y-86291076D01*
X165780961Y-86170123D02*
X165176200Y-86170123D01*
X165115723Y-86774885D01*
X165176200Y-86714409D01*
X165297152Y-86653933D01*
X165599533Y-86653933D01*
X165720485Y-86714409D01*
X165780961Y-86774885D01*
X165841438Y-86895838D01*
X165841438Y-87198219D01*
X165780961Y-87319171D01*
X165720485Y-87379647D01*
X165599533Y-87440123D01*
X165297152Y-87440123D01*
X165176200Y-87379647D01*
X165115723Y-87319171D01*
%TO.C,J4*%
D10*
X192158026Y-54331620D02*
X192158026Y-55045906D01*
X192110407Y-55188763D01*
X192015169Y-55284001D01*
X191872312Y-55331620D01*
X191777074Y-55331620D01*
X193062788Y-54664954D02*
X193062788Y-55331620D01*
X192824693Y-54284001D02*
X192586598Y-54998287D01*
X193205645Y-54998287D01*
%TO.C,J2*%
X152528946Y-49983140D02*
X152528946Y-50697426D01*
X152481327Y-50840283D01*
X152386089Y-50935521D01*
X152243232Y-50983140D01*
X152147994Y-50983140D01*
X152957518Y-50078379D02*
X153005137Y-50030760D01*
X153100375Y-49983140D01*
X153338470Y-49983140D01*
X153433708Y-50030760D01*
X153481327Y-50078379D01*
X153528946Y-50173617D01*
X153528946Y-50268855D01*
X153481327Y-50411712D01*
X152909899Y-50983140D01*
X153528946Y-50983140D01*
%TO.C,J3*%
X147301626Y-74042020D02*
X147301626Y-74756306D01*
X147254007Y-74899163D01*
X147158769Y-74994401D01*
X147015912Y-75042020D01*
X146920674Y-75042020D01*
X147682579Y-74042020D02*
X148301626Y-74042020D01*
X147968293Y-74422973D01*
X148111150Y-74422973D01*
X148206388Y-74470592D01*
X148254007Y-74518211D01*
X148301626Y-74613449D01*
X148301626Y-74851544D01*
X148254007Y-74946782D01*
X148206388Y-74994401D01*
X148111150Y-75042020D01*
X147825436Y-75042020D01*
X147730198Y-74994401D01*
X147682579Y-74946782D01*
%TO.C,SW4*%
X154862161Y-92620933D02*
X154909780Y-92478076D01*
X154909780Y-92239980D01*
X154862161Y-92144742D01*
X154814542Y-92097123D01*
X154719304Y-92049504D01*
X154624066Y-92049504D01*
X154528828Y-92097123D01*
X154481209Y-92144742D01*
X154433590Y-92239980D01*
X154385971Y-92430457D01*
X154338352Y-92525695D01*
X154290733Y-92573314D01*
X154195495Y-92620933D01*
X154100257Y-92620933D01*
X154005019Y-92573314D01*
X153957400Y-92525695D01*
X153909780Y-92430457D01*
X153909780Y-92192361D01*
X153957400Y-92049504D01*
X153909780Y-91716171D02*
X154909780Y-91478076D01*
X154195495Y-91287600D01*
X154909780Y-91097123D01*
X153909780Y-90859028D01*
X154243114Y-90049504D02*
X154909780Y-90049504D01*
X153862161Y-90287600D02*
X154576447Y-90525695D01*
X154576447Y-89906647D01*
%TO.C,SW3*%
X154811361Y-87820333D02*
X154858980Y-87677476D01*
X154858980Y-87439380D01*
X154811361Y-87344142D01*
X154763742Y-87296523D01*
X154668504Y-87248904D01*
X154573266Y-87248904D01*
X154478028Y-87296523D01*
X154430409Y-87344142D01*
X154382790Y-87439380D01*
X154335171Y-87629857D01*
X154287552Y-87725095D01*
X154239933Y-87772714D01*
X154144695Y-87820333D01*
X154049457Y-87820333D01*
X153954219Y-87772714D01*
X153906600Y-87725095D01*
X153858980Y-87629857D01*
X153858980Y-87391761D01*
X153906600Y-87248904D01*
X153858980Y-86915571D02*
X154858980Y-86677476D01*
X154144695Y-86487000D01*
X154858980Y-86296523D01*
X153858980Y-86058428D01*
X153858980Y-85772714D02*
X153858980Y-85153666D01*
X154239933Y-85487000D01*
X154239933Y-85344142D01*
X154287552Y-85248904D01*
X154335171Y-85201285D01*
X154430409Y-85153666D01*
X154668504Y-85153666D01*
X154763742Y-85201285D01*
X154811361Y-85248904D01*
X154858980Y-85344142D01*
X154858980Y-85629857D01*
X154811361Y-85725095D01*
X154763742Y-85772714D01*
%TO.C,TP5*%
X167876695Y-96404180D02*
X168448123Y-96404180D01*
X168162409Y-97404180D02*
X168162409Y-96404180D01*
X168781457Y-97404180D02*
X168781457Y-96404180D01*
X169162409Y-96404180D01*
X169257647Y-96451800D01*
X169305266Y-96499419D01*
X169352885Y-96594657D01*
X169352885Y-96737514D01*
X169305266Y-96832752D01*
X169257647Y-96880371D01*
X169162409Y-96927990D01*
X168781457Y-96927990D01*
X170257647Y-96404180D02*
X169781457Y-96404180D01*
X169733838Y-96880371D01*
X169781457Y-96832752D01*
X169876695Y-96785133D01*
X170114790Y-96785133D01*
X170210028Y-96832752D01*
X170257647Y-96880371D01*
X170305266Y-96975609D01*
X170305266Y-97213704D01*
X170257647Y-97308942D01*
X170210028Y-97356561D01*
X170114790Y-97404180D01*
X169876695Y-97404180D01*
X169781457Y-97356561D01*
X169733838Y-97308942D01*
%TO.C,SW2*%
X154557361Y-82994333D02*
X154604980Y-82851476D01*
X154604980Y-82613380D01*
X154557361Y-82518142D01*
X154509742Y-82470523D01*
X154414504Y-82422904D01*
X154319266Y-82422904D01*
X154224028Y-82470523D01*
X154176409Y-82518142D01*
X154128790Y-82613380D01*
X154081171Y-82803857D01*
X154033552Y-82899095D01*
X153985933Y-82946714D01*
X153890695Y-82994333D01*
X153795457Y-82994333D01*
X153700219Y-82946714D01*
X153652600Y-82899095D01*
X153604980Y-82803857D01*
X153604980Y-82565761D01*
X153652600Y-82422904D01*
X153604980Y-82089571D02*
X154604980Y-81851476D01*
X153890695Y-81661000D01*
X154604980Y-81470523D01*
X153604980Y-81232428D01*
X153700219Y-80899095D02*
X153652600Y-80851476D01*
X153604980Y-80756238D01*
X153604980Y-80518142D01*
X153652600Y-80422904D01*
X153700219Y-80375285D01*
X153795457Y-80327666D01*
X153890695Y-80327666D01*
X154033552Y-80375285D01*
X154604980Y-80946714D01*
X154604980Y-80327666D01*
%TO.C,SW1*%
X154658961Y-78142933D02*
X154706580Y-78000076D01*
X154706580Y-77761980D01*
X154658961Y-77666742D01*
X154611342Y-77619123D01*
X154516104Y-77571504D01*
X154420866Y-77571504D01*
X154325628Y-77619123D01*
X154278009Y-77666742D01*
X154230390Y-77761980D01*
X154182771Y-77952457D01*
X154135152Y-78047695D01*
X154087533Y-78095314D01*
X153992295Y-78142933D01*
X153897057Y-78142933D01*
X153801819Y-78095314D01*
X153754200Y-78047695D01*
X153706580Y-77952457D01*
X153706580Y-77714361D01*
X153754200Y-77571504D01*
X153706580Y-77238171D02*
X154706580Y-77000076D01*
X153992295Y-76809600D01*
X154706580Y-76619123D01*
X153706580Y-76381028D01*
X154706580Y-75476266D02*
X154706580Y-76047695D01*
X154706580Y-75761980D02*
X153706580Y-75761980D01*
X153849438Y-75857219D01*
X153944676Y-75952457D01*
X153992295Y-76047695D01*
%TO.C,J1*%
X178609666Y-94270580D02*
X178609666Y-94984866D01*
X178562047Y-95127723D01*
X178466809Y-95222961D01*
X178323952Y-95270580D01*
X178228714Y-95270580D01*
X179609666Y-95270580D02*
X179038238Y-95270580D01*
X179323952Y-95270580D02*
X179323952Y-94270580D01*
X179228714Y-94413438D01*
X179133476Y-94508676D01*
X179038238Y-94556295D01*
%TO.C,IC6*%
D13*
X160810238Y-64024523D02*
X160810238Y-62754523D01*
X162140714Y-63903571D02*
X162080238Y-63964047D01*
X161898809Y-64024523D01*
X161777857Y-64024523D01*
X161596428Y-63964047D01*
X161475476Y-63843095D01*
X161415000Y-63722142D01*
X161354523Y-63480238D01*
X161354523Y-63298809D01*
X161415000Y-63056904D01*
X161475476Y-62935952D01*
X161596428Y-62815000D01*
X161777857Y-62754523D01*
X161898809Y-62754523D01*
X162080238Y-62815000D01*
X162140714Y-62875476D01*
X163229285Y-62754523D02*
X162987380Y-62754523D01*
X162866428Y-62815000D01*
X162805952Y-62875476D01*
X162685000Y-63056904D01*
X162624523Y-63298809D01*
X162624523Y-63782619D01*
X162685000Y-63903571D01*
X162745476Y-63964047D01*
X162866428Y-64024523D01*
X163108333Y-64024523D01*
X163229285Y-63964047D01*
X163289761Y-63903571D01*
X163350238Y-63782619D01*
X163350238Y-63480238D01*
X163289761Y-63359285D01*
X163229285Y-63298809D01*
X163108333Y-63238333D01*
X162866428Y-63238333D01*
X162745476Y-63298809D01*
X162685000Y-63359285D01*
X162624523Y-63480238D01*
%TO.C,IC1*%
X165960238Y-65824523D02*
X165960238Y-64554523D01*
X167290714Y-65703571D02*
X167230238Y-65764047D01*
X167048809Y-65824523D01*
X166927857Y-65824523D01*
X166746428Y-65764047D01*
X166625476Y-65643095D01*
X166565000Y-65522142D01*
X166504523Y-65280238D01*
X166504523Y-65098809D01*
X166565000Y-64856904D01*
X166625476Y-64735952D01*
X166746428Y-64615000D01*
X166927857Y-64554523D01*
X167048809Y-64554523D01*
X167230238Y-64615000D01*
X167290714Y-64675476D01*
X168500238Y-65824523D02*
X167774523Y-65824523D01*
X168137380Y-65824523D02*
X168137380Y-64554523D01*
X168016428Y-64735952D01*
X167895476Y-64856904D01*
X167774523Y-64917380D01*
%TO.C,D1*%
D10*
X158494504Y-98816420D02*
X158494504Y-97816420D01*
X158732600Y-97816420D01*
X158875457Y-97864040D01*
X158970695Y-97959278D01*
X159018314Y-98054516D01*
X159065933Y-98244992D01*
X159065933Y-98387849D01*
X159018314Y-98578325D01*
X158970695Y-98673563D01*
X158875457Y-98768801D01*
X158732600Y-98816420D01*
X158494504Y-98816420D01*
X160018314Y-98816420D02*
X159446885Y-98816420D01*
X159732600Y-98816420D02*
X159732600Y-97816420D01*
X159637361Y-97959278D01*
X159542123Y-98054516D01*
X159446885Y-98102135D01*
%TO.C,Y1*%
X186326190Y-73026190D02*
X186802380Y-73026190D01*
X185802380Y-73359523D02*
X186326190Y-73026190D01*
X185802380Y-72692857D01*
X186802380Y-71835714D02*
X186802380Y-72407142D01*
X186802380Y-72121428D02*
X185802380Y-72121428D01*
X185945238Y-72216666D01*
X186040476Y-72311904D01*
X186088095Y-72407142D01*
%TO.C,C1*%
X178949622Y-64134026D02*
X178997241Y-64181645D01*
X179044860Y-64324502D01*
X179044860Y-64419740D01*
X178997241Y-64562598D01*
X178902003Y-64657836D01*
X178806765Y-64705455D01*
X178616289Y-64753074D01*
X178473432Y-64753074D01*
X178282956Y-64705455D01*
X178187718Y-64657836D01*
X178092480Y-64562598D01*
X178044860Y-64419740D01*
X178044860Y-64324502D01*
X178092480Y-64181645D01*
X178140099Y-64134026D01*
X179044860Y-63181645D02*
X179044860Y-63753074D01*
X179044860Y-63467360D02*
X178044860Y-63467360D01*
X178187718Y-63562598D01*
X178282956Y-63657836D01*
X178330575Y-63753074D01*
%TO.C,C2*%
X173357142Y-63966666D02*
X173404761Y-64014285D01*
X173452380Y-64157142D01*
X173452380Y-64252380D01*
X173404761Y-64395238D01*
X173309523Y-64490476D01*
X173214285Y-64538095D01*
X173023809Y-64585714D01*
X172880952Y-64585714D01*
X172690476Y-64538095D01*
X172595238Y-64490476D01*
X172500000Y-64395238D01*
X172452380Y-64252380D01*
X172452380Y-64157142D01*
X172500000Y-64014285D01*
X172547619Y-63966666D01*
X172547619Y-63585714D02*
X172500000Y-63538095D01*
X172452380Y-63442857D01*
X172452380Y-63204761D01*
X172500000Y-63109523D01*
X172547619Y-63061904D01*
X172642857Y-63014285D01*
X172738095Y-63014285D01*
X172880952Y-63061904D01*
X173452380Y-63633333D01*
X173452380Y-63014285D01*
%TO.C,C3*%
X177684133Y-77674742D02*
X177636514Y-77722361D01*
X177493657Y-77769980D01*
X177398419Y-77769980D01*
X177255561Y-77722361D01*
X177160323Y-77627123D01*
X177112704Y-77531885D01*
X177065085Y-77341409D01*
X177065085Y-77198552D01*
X177112704Y-77008076D01*
X177160323Y-76912838D01*
X177255561Y-76817600D01*
X177398419Y-76769980D01*
X177493657Y-76769980D01*
X177636514Y-76817600D01*
X177684133Y-76865219D01*
X178017466Y-76769980D02*
X178636514Y-76769980D01*
X178303180Y-77150933D01*
X178446038Y-77150933D01*
X178541276Y-77198552D01*
X178588895Y-77246171D01*
X178636514Y-77341409D01*
X178636514Y-77579504D01*
X178588895Y-77674742D01*
X178541276Y-77722361D01*
X178446038Y-77769980D01*
X178160323Y-77769980D01*
X178065085Y-77722361D01*
X178017466Y-77674742D01*
%TO.C,C4*%
X170292733Y-77573142D02*
X170245114Y-77620761D01*
X170102257Y-77668380D01*
X170007019Y-77668380D01*
X169864161Y-77620761D01*
X169768923Y-77525523D01*
X169721304Y-77430285D01*
X169673685Y-77239809D01*
X169673685Y-77096952D01*
X169721304Y-76906476D01*
X169768923Y-76811238D01*
X169864161Y-76716000D01*
X170007019Y-76668380D01*
X170102257Y-76668380D01*
X170245114Y-76716000D01*
X170292733Y-76763619D01*
X171149876Y-77001714D02*
X171149876Y-77668380D01*
X170911780Y-76620761D02*
X170673685Y-77335047D01*
X171292733Y-77335047D01*
%TO.C,C5*%
X170305433Y-78792342D02*
X170257814Y-78839961D01*
X170114957Y-78887580D01*
X170019719Y-78887580D01*
X169876861Y-78839961D01*
X169781623Y-78744723D01*
X169734004Y-78649485D01*
X169686385Y-78459009D01*
X169686385Y-78316152D01*
X169734004Y-78125676D01*
X169781623Y-78030438D01*
X169876861Y-77935200D01*
X170019719Y-77887580D01*
X170114957Y-77887580D01*
X170257814Y-77935200D01*
X170305433Y-77982819D01*
X171210195Y-77887580D02*
X170734004Y-77887580D01*
X170686385Y-78363771D01*
X170734004Y-78316152D01*
X170829242Y-78268533D01*
X171067338Y-78268533D01*
X171162576Y-78316152D01*
X171210195Y-78363771D01*
X171257814Y-78459009D01*
X171257814Y-78697104D01*
X171210195Y-78792342D01*
X171162576Y-78839961D01*
X171067338Y-78887580D01*
X170829242Y-78887580D01*
X170734004Y-78839961D01*
X170686385Y-78792342D01*
%TO.C,C6*%
X170292733Y-80024242D02*
X170245114Y-80071861D01*
X170102257Y-80119480D01*
X170007019Y-80119480D01*
X169864161Y-80071861D01*
X169768923Y-79976623D01*
X169721304Y-79881385D01*
X169673685Y-79690909D01*
X169673685Y-79548052D01*
X169721304Y-79357576D01*
X169768923Y-79262338D01*
X169864161Y-79167100D01*
X170007019Y-79119480D01*
X170102257Y-79119480D01*
X170245114Y-79167100D01*
X170292733Y-79214719D01*
X171149876Y-79119480D02*
X170959400Y-79119480D01*
X170864161Y-79167100D01*
X170816542Y-79214719D01*
X170721304Y-79357576D01*
X170673685Y-79548052D01*
X170673685Y-79929004D01*
X170721304Y-80024242D01*
X170768923Y-80071861D01*
X170864161Y-80119480D01*
X171054638Y-80119480D01*
X171149876Y-80071861D01*
X171197495Y-80024242D01*
X171245114Y-79929004D01*
X171245114Y-79690909D01*
X171197495Y-79595671D01*
X171149876Y-79548052D01*
X171054638Y-79500433D01*
X170864161Y-79500433D01*
X170768923Y-79548052D01*
X170721304Y-79595671D01*
X170673685Y-79690909D01*
%TO.C,C7*%
X174839333Y-81891142D02*
X174791714Y-81938761D01*
X174648857Y-81986380D01*
X174553619Y-81986380D01*
X174410761Y-81938761D01*
X174315523Y-81843523D01*
X174267904Y-81748285D01*
X174220285Y-81557809D01*
X174220285Y-81414952D01*
X174267904Y-81224476D01*
X174315523Y-81129238D01*
X174410761Y-81034000D01*
X174553619Y-80986380D01*
X174648857Y-80986380D01*
X174791714Y-81034000D01*
X174839333Y-81081619D01*
X175172666Y-80986380D02*
X175839333Y-80986380D01*
X175410761Y-81986380D01*
%TO.C,C10*%
X171899342Y-81806542D02*
X171851723Y-81854161D01*
X171708866Y-81901780D01*
X171613628Y-81901780D01*
X171470771Y-81854161D01*
X171375533Y-81758923D01*
X171327914Y-81663685D01*
X171280295Y-81473209D01*
X171280295Y-81330352D01*
X171327914Y-81139876D01*
X171375533Y-81044638D01*
X171470771Y-80949400D01*
X171613628Y-80901780D01*
X171708866Y-80901780D01*
X171851723Y-80949400D01*
X171899342Y-80997019D01*
X172851723Y-81901780D02*
X172280295Y-81901780D01*
X172566009Y-81901780D02*
X172566009Y-80901780D01*
X172470771Y-81044638D01*
X172375533Y-81139876D01*
X172280295Y-81187495D01*
X173470771Y-80901780D02*
X173566009Y-80901780D01*
X173661247Y-80949400D01*
X173708866Y-80997019D01*
X173756485Y-81092257D01*
X173804104Y-81282733D01*
X173804104Y-81520828D01*
X173756485Y-81711304D01*
X173708866Y-81806542D01*
X173661247Y-81854161D01*
X173566009Y-81901780D01*
X173470771Y-81901780D01*
X173375533Y-81854161D01*
X173327914Y-81806542D01*
X173280295Y-81711304D01*
X173232676Y-81520828D01*
X173232676Y-81282733D01*
X173280295Y-81092257D01*
X173327914Y-80997019D01*
X173375533Y-80949400D01*
X173470771Y-80901780D01*
%TO.C,C11*%
X164571442Y-69127642D02*
X164523823Y-69175261D01*
X164380966Y-69222880D01*
X164285728Y-69222880D01*
X164142871Y-69175261D01*
X164047633Y-69080023D01*
X164000014Y-68984785D01*
X163952395Y-68794309D01*
X163952395Y-68651452D01*
X164000014Y-68460976D01*
X164047633Y-68365738D01*
X164142871Y-68270500D01*
X164285728Y-68222880D01*
X164380966Y-68222880D01*
X164523823Y-68270500D01*
X164571442Y-68318119D01*
X165523823Y-69222880D02*
X164952395Y-69222880D01*
X165238109Y-69222880D02*
X165238109Y-68222880D01*
X165142871Y-68365738D01*
X165047633Y-68460976D01*
X164952395Y-68508595D01*
X166476204Y-69222880D02*
X165904776Y-69222880D01*
X166190490Y-69222880D02*
X166190490Y-68222880D01*
X166095252Y-68365738D01*
X166000014Y-68460976D01*
X165904776Y-68508595D01*
%TO.C,C12*%
X181307142Y-74507142D02*
X181259523Y-74554761D01*
X181116666Y-74602380D01*
X181021428Y-74602380D01*
X180878571Y-74554761D01*
X180783333Y-74459523D01*
X180735714Y-74364285D01*
X180688095Y-74173809D01*
X180688095Y-74030952D01*
X180735714Y-73840476D01*
X180783333Y-73745238D01*
X180878571Y-73650000D01*
X181021428Y-73602380D01*
X181116666Y-73602380D01*
X181259523Y-73650000D01*
X181307142Y-73697619D01*
X182259523Y-74602380D02*
X181688095Y-74602380D01*
X181973809Y-74602380D02*
X181973809Y-73602380D01*
X181878571Y-73745238D01*
X181783333Y-73840476D01*
X181688095Y-73888095D01*
X182640476Y-73697619D02*
X182688095Y-73650000D01*
X182783333Y-73602380D01*
X183021428Y-73602380D01*
X183116666Y-73650000D01*
X183164285Y-73697619D01*
X183211904Y-73792857D01*
X183211904Y-73888095D01*
X183164285Y-74030952D01*
X182592857Y-74602380D01*
X183211904Y-74602380D01*
%TO.C,C13*%
X164469842Y-67794142D02*
X164422223Y-67841761D01*
X164279366Y-67889380D01*
X164184128Y-67889380D01*
X164041271Y-67841761D01*
X163946033Y-67746523D01*
X163898414Y-67651285D01*
X163850795Y-67460809D01*
X163850795Y-67317952D01*
X163898414Y-67127476D01*
X163946033Y-67032238D01*
X164041271Y-66937000D01*
X164184128Y-66889380D01*
X164279366Y-66889380D01*
X164422223Y-66937000D01*
X164469842Y-66984619D01*
X165422223Y-67889380D02*
X164850795Y-67889380D01*
X165136509Y-67889380D02*
X165136509Y-66889380D01*
X165041271Y-67032238D01*
X164946033Y-67127476D01*
X164850795Y-67175095D01*
X165755557Y-66889380D02*
X166374604Y-66889380D01*
X166041271Y-67270333D01*
X166184128Y-67270333D01*
X166279366Y-67317952D01*
X166326985Y-67365571D01*
X166374604Y-67460809D01*
X166374604Y-67698904D01*
X166326985Y-67794142D01*
X166279366Y-67841761D01*
X166184128Y-67889380D01*
X165898414Y-67889380D01*
X165803176Y-67841761D01*
X165755557Y-67794142D01*
%TO.C,C14*%
X181297342Y-63938422D02*
X181249723Y-63986041D01*
X181106866Y-64033660D01*
X181011628Y-64033660D01*
X180868771Y-63986041D01*
X180773533Y-63890803D01*
X180725914Y-63795565D01*
X180678295Y-63605089D01*
X180678295Y-63462232D01*
X180725914Y-63271756D01*
X180773533Y-63176518D01*
X180868771Y-63081280D01*
X181011628Y-63033660D01*
X181106866Y-63033660D01*
X181249723Y-63081280D01*
X181297342Y-63128899D01*
X182249723Y-64033660D02*
X181678295Y-64033660D01*
X181964009Y-64033660D02*
X181964009Y-63033660D01*
X181868771Y-63176518D01*
X181773533Y-63271756D01*
X181678295Y-63319375D01*
X183106866Y-63366994D02*
X183106866Y-64033660D01*
X182868771Y-62986041D02*
X182630676Y-63700327D01*
X183249723Y-63700327D01*
%TO.C,C15*%
X164104082Y-74692782D02*
X164056463Y-74740401D01*
X163913606Y-74788020D01*
X163818368Y-74788020D01*
X163675511Y-74740401D01*
X163580273Y-74645163D01*
X163532654Y-74549925D01*
X163485035Y-74359449D01*
X163485035Y-74216592D01*
X163532654Y-74026116D01*
X163580273Y-73930878D01*
X163675511Y-73835640D01*
X163818368Y-73788020D01*
X163913606Y-73788020D01*
X164056463Y-73835640D01*
X164104082Y-73883259D01*
X165056463Y-74788020D02*
X164485035Y-74788020D01*
X164770749Y-74788020D02*
X164770749Y-73788020D01*
X164675511Y-73930878D01*
X164580273Y-74026116D01*
X164485035Y-74073735D01*
X165961225Y-73788020D02*
X165485035Y-73788020D01*
X165437416Y-74264211D01*
X165485035Y-74216592D01*
X165580273Y-74168973D01*
X165818368Y-74168973D01*
X165913606Y-74216592D01*
X165961225Y-74264211D01*
X166008844Y-74359449D01*
X166008844Y-74597544D01*
X165961225Y-74692782D01*
X165913606Y-74740401D01*
X165818368Y-74788020D01*
X165580273Y-74788020D01*
X165485035Y-74740401D01*
X165437416Y-74692782D01*
%TO.C,C16*%
D14*
X175412765Y-64857285D02*
X175384194Y-64885857D01*
X175298480Y-64914428D01*
X175241337Y-64914428D01*
X175155622Y-64885857D01*
X175098480Y-64828714D01*
X175069908Y-64771571D01*
X175041337Y-64657285D01*
X175041337Y-64571571D01*
X175069908Y-64457285D01*
X175098480Y-64400142D01*
X175155622Y-64343000D01*
X175241337Y-64314428D01*
X175298480Y-64314428D01*
X175384194Y-64343000D01*
X175412765Y-64371571D01*
X175984194Y-64914428D02*
X175641337Y-64914428D01*
X175812765Y-64914428D02*
X175812765Y-64314428D01*
X175755622Y-64400142D01*
X175698480Y-64457285D01*
X175641337Y-64485857D01*
X176498480Y-64314428D02*
X176384194Y-64314428D01*
X176327051Y-64343000D01*
X176298480Y-64371571D01*
X176241337Y-64457285D01*
X176212765Y-64571571D01*
X176212765Y-64800142D01*
X176241337Y-64857285D01*
X176269908Y-64885857D01*
X176327051Y-64914428D01*
X176441337Y-64914428D01*
X176498480Y-64885857D01*
X176527051Y-64857285D01*
X176555622Y-64800142D01*
X176555622Y-64657285D01*
X176527051Y-64600142D01*
X176498480Y-64571571D01*
X176441337Y-64543000D01*
X176327051Y-64543000D01*
X176269908Y-64571571D01*
X176241337Y-64600142D01*
X176212765Y-64657285D01*
%TO.C,C17*%
D10*
X177095422Y-53271657D02*
X177143041Y-53319276D01*
X177190660Y-53462133D01*
X177190660Y-53557371D01*
X177143041Y-53700228D01*
X177047803Y-53795466D01*
X176952565Y-53843085D01*
X176762089Y-53890704D01*
X176619232Y-53890704D01*
X176428756Y-53843085D01*
X176333518Y-53795466D01*
X176238280Y-53700228D01*
X176190660Y-53557371D01*
X176190660Y-53462133D01*
X176238280Y-53319276D01*
X176285899Y-53271657D01*
X177190660Y-52319276D02*
X177190660Y-52890704D01*
X177190660Y-52604990D02*
X176190660Y-52604990D01*
X176333518Y-52700228D01*
X176428756Y-52795466D01*
X176476375Y-52890704D01*
X176190660Y-51985942D02*
X176190660Y-51319276D01*
X177190660Y-51747847D01*
%TO.C,C18*%
X163379862Y-52503342D02*
X163332243Y-52550961D01*
X163189386Y-52598580D01*
X163094148Y-52598580D01*
X162951291Y-52550961D01*
X162856053Y-52455723D01*
X162808434Y-52360485D01*
X162760815Y-52170009D01*
X162760815Y-52027152D01*
X162808434Y-51836676D01*
X162856053Y-51741438D01*
X162951291Y-51646200D01*
X163094148Y-51598580D01*
X163189386Y-51598580D01*
X163332243Y-51646200D01*
X163379862Y-51693819D01*
X164332243Y-52598580D02*
X163760815Y-52598580D01*
X164046529Y-52598580D02*
X164046529Y-51598580D01*
X163951291Y-51741438D01*
X163856053Y-51836676D01*
X163760815Y-51884295D01*
X164903672Y-52027152D02*
X164808434Y-51979533D01*
X164760815Y-51931914D01*
X164713196Y-51836676D01*
X164713196Y-51789057D01*
X164760815Y-51693819D01*
X164808434Y-51646200D01*
X164903672Y-51598580D01*
X165094148Y-51598580D01*
X165189386Y-51646200D01*
X165237005Y-51693819D01*
X165284624Y-51789057D01*
X165284624Y-51836676D01*
X165237005Y-51931914D01*
X165189386Y-51979533D01*
X165094148Y-52027152D01*
X164903672Y-52027152D01*
X164808434Y-52074771D01*
X164760815Y-52122390D01*
X164713196Y-52217628D01*
X164713196Y-52408104D01*
X164760815Y-52503342D01*
X164808434Y-52550961D01*
X164903672Y-52598580D01*
X165094148Y-52598580D01*
X165189386Y-52550961D01*
X165237005Y-52503342D01*
X165284624Y-52408104D01*
X165284624Y-52217628D01*
X165237005Y-52122390D01*
X165189386Y-52074771D01*
X165094148Y-52027152D01*
%TO.C,C19*%
X170278062Y-52306457D02*
X170325681Y-52354076D01*
X170373300Y-52496933D01*
X170373300Y-52592171D01*
X170325681Y-52735028D01*
X170230443Y-52830266D01*
X170135205Y-52877885D01*
X169944729Y-52925504D01*
X169801872Y-52925504D01*
X169611396Y-52877885D01*
X169516158Y-52830266D01*
X169420920Y-52735028D01*
X169373300Y-52592171D01*
X169373300Y-52496933D01*
X169420920Y-52354076D01*
X169468539Y-52306457D01*
X170373300Y-51354076D02*
X170373300Y-51925504D01*
X170373300Y-51639790D02*
X169373300Y-51639790D01*
X169516158Y-51735028D01*
X169611396Y-51830266D01*
X169659015Y-51925504D01*
X170373300Y-50877885D02*
X170373300Y-50687409D01*
X170325681Y-50592171D01*
X170278062Y-50544552D01*
X170135205Y-50449314D01*
X169944729Y-50401695D01*
X169563777Y-50401695D01*
X169468539Y-50449314D01*
X169420920Y-50496933D01*
X169373300Y-50592171D01*
X169373300Y-50782647D01*
X169420920Y-50877885D01*
X169468539Y-50925504D01*
X169563777Y-50973123D01*
X169801872Y-50973123D01*
X169897110Y-50925504D01*
X169944729Y-50877885D01*
X169992348Y-50782647D01*
X169992348Y-50592171D01*
X169944729Y-50496933D01*
X169897110Y-50449314D01*
X169801872Y-50401695D01*
%TO.C,C20*%
X183447942Y-80458257D02*
X183495561Y-80505876D01*
X183543180Y-80648733D01*
X183543180Y-80743971D01*
X183495561Y-80886828D01*
X183400323Y-80982066D01*
X183305085Y-81029685D01*
X183114609Y-81077304D01*
X182971752Y-81077304D01*
X182781276Y-81029685D01*
X182686038Y-80982066D01*
X182590800Y-80886828D01*
X182543180Y-80743971D01*
X182543180Y-80648733D01*
X182590800Y-80505876D01*
X182638419Y-80458257D01*
X182638419Y-80077304D02*
X182590800Y-80029685D01*
X182543180Y-79934447D01*
X182543180Y-79696352D01*
X182590800Y-79601114D01*
X182638419Y-79553495D01*
X182733657Y-79505876D01*
X182828895Y-79505876D01*
X182971752Y-79553495D01*
X183543180Y-80124923D01*
X183543180Y-79505876D01*
X182543180Y-78886828D02*
X182543180Y-78791590D01*
X182590800Y-78696352D01*
X182638419Y-78648733D01*
X182733657Y-78601114D01*
X182924133Y-78553495D01*
X183162228Y-78553495D01*
X183352704Y-78601114D01*
X183447942Y-78648733D01*
X183495561Y-78696352D01*
X183543180Y-78791590D01*
X183543180Y-78886828D01*
X183495561Y-78982066D01*
X183447942Y-79029685D01*
X183352704Y-79077304D01*
X183162228Y-79124923D01*
X182924133Y-79124923D01*
X182733657Y-79077304D01*
X182638419Y-79029685D01*
X182590800Y-78982066D01*
X182543180Y-78886828D01*
%TO.C,C21*%
X170065462Y-57422542D02*
X170017843Y-57470161D01*
X169874986Y-57517780D01*
X169779748Y-57517780D01*
X169636891Y-57470161D01*
X169541653Y-57374923D01*
X169494034Y-57279685D01*
X169446415Y-57089209D01*
X169446415Y-56946352D01*
X169494034Y-56755876D01*
X169541653Y-56660638D01*
X169636891Y-56565400D01*
X169779748Y-56517780D01*
X169874986Y-56517780D01*
X170017843Y-56565400D01*
X170065462Y-56613019D01*
X170446415Y-56613019D02*
X170494034Y-56565400D01*
X170589272Y-56517780D01*
X170827367Y-56517780D01*
X170922605Y-56565400D01*
X170970224Y-56613019D01*
X171017843Y-56708257D01*
X171017843Y-56803495D01*
X170970224Y-56946352D01*
X170398796Y-57517780D01*
X171017843Y-57517780D01*
X171970224Y-57517780D02*
X171398796Y-57517780D01*
X171684510Y-57517780D02*
X171684510Y-56517780D01*
X171589272Y-56660638D01*
X171494034Y-56755876D01*
X171398796Y-56803495D01*
%TO.C,C22*%
X178630342Y-61660822D02*
X178582723Y-61708441D01*
X178439866Y-61756060D01*
X178344628Y-61756060D01*
X178201771Y-61708441D01*
X178106533Y-61613203D01*
X178058914Y-61517965D01*
X178011295Y-61327489D01*
X178011295Y-61184632D01*
X178058914Y-60994156D01*
X178106533Y-60898918D01*
X178201771Y-60803680D01*
X178344628Y-60756060D01*
X178439866Y-60756060D01*
X178582723Y-60803680D01*
X178630342Y-60851299D01*
X179011295Y-60851299D02*
X179058914Y-60803680D01*
X179154152Y-60756060D01*
X179392247Y-60756060D01*
X179487485Y-60803680D01*
X179535104Y-60851299D01*
X179582723Y-60946537D01*
X179582723Y-61041775D01*
X179535104Y-61184632D01*
X178963676Y-61756060D01*
X179582723Y-61756060D01*
X179963676Y-60851299D02*
X180011295Y-60803680D01*
X180106533Y-60756060D01*
X180344628Y-60756060D01*
X180439866Y-60803680D01*
X180487485Y-60851299D01*
X180535104Y-60946537D01*
X180535104Y-61041775D01*
X180487485Y-61184632D01*
X179916057Y-61756060D01*
X180535104Y-61756060D01*
%TO.C,C23*%
X171687762Y-52306457D02*
X171735381Y-52354076D01*
X171783000Y-52496933D01*
X171783000Y-52592171D01*
X171735381Y-52735028D01*
X171640143Y-52830266D01*
X171544905Y-52877885D01*
X171354429Y-52925504D01*
X171211572Y-52925504D01*
X171021096Y-52877885D01*
X170925858Y-52830266D01*
X170830620Y-52735028D01*
X170783000Y-52592171D01*
X170783000Y-52496933D01*
X170830620Y-52354076D01*
X170878239Y-52306457D01*
X170878239Y-51925504D02*
X170830620Y-51877885D01*
X170783000Y-51782647D01*
X170783000Y-51544552D01*
X170830620Y-51449314D01*
X170878239Y-51401695D01*
X170973477Y-51354076D01*
X171068715Y-51354076D01*
X171211572Y-51401695D01*
X171783000Y-51973123D01*
X171783000Y-51354076D01*
X170783000Y-51020742D02*
X170783000Y-50401695D01*
X171163953Y-50735028D01*
X171163953Y-50592171D01*
X171211572Y-50496933D01*
X171259191Y-50449314D01*
X171354429Y-50401695D01*
X171592524Y-50401695D01*
X171687762Y-50449314D01*
X171735381Y-50496933D01*
X171783000Y-50592171D01*
X171783000Y-50877885D01*
X171735381Y-50973123D01*
X171687762Y-51020742D01*
%TO.C,C24*%
X184857142Y-68942857D02*
X184904761Y-68990476D01*
X184952380Y-69133333D01*
X184952380Y-69228571D01*
X184904761Y-69371428D01*
X184809523Y-69466666D01*
X184714285Y-69514285D01*
X184523809Y-69561904D01*
X184380952Y-69561904D01*
X184190476Y-69514285D01*
X184095238Y-69466666D01*
X184000000Y-69371428D01*
X183952380Y-69228571D01*
X183952380Y-69133333D01*
X184000000Y-68990476D01*
X184047619Y-68942857D01*
X184047619Y-68561904D02*
X184000000Y-68514285D01*
X183952380Y-68419047D01*
X183952380Y-68180952D01*
X184000000Y-68085714D01*
X184047619Y-68038095D01*
X184142857Y-67990476D01*
X184238095Y-67990476D01*
X184380952Y-68038095D01*
X184952380Y-68609523D01*
X184952380Y-67990476D01*
X184285714Y-67133333D02*
X184952380Y-67133333D01*
X183904761Y-67371428D02*
X184619047Y-67609523D01*
X184619047Y-66990476D01*
%TO.C,C25*%
X186636422Y-93178582D02*
X186588803Y-93226201D01*
X186445946Y-93273820D01*
X186350708Y-93273820D01*
X186207851Y-93226201D01*
X186112613Y-93130963D01*
X186064994Y-93035725D01*
X186017375Y-92845249D01*
X186017375Y-92702392D01*
X186064994Y-92511916D01*
X186112613Y-92416678D01*
X186207851Y-92321440D01*
X186350708Y-92273820D01*
X186445946Y-92273820D01*
X186588803Y-92321440D01*
X186636422Y-92369059D01*
X187017375Y-92369059D02*
X187064994Y-92321440D01*
X187160232Y-92273820D01*
X187398327Y-92273820D01*
X187493565Y-92321440D01*
X187541184Y-92369059D01*
X187588803Y-92464297D01*
X187588803Y-92559535D01*
X187541184Y-92702392D01*
X186969756Y-93273820D01*
X187588803Y-93273820D01*
X188493565Y-92273820D02*
X188017375Y-92273820D01*
X187969756Y-92750011D01*
X188017375Y-92702392D01*
X188112613Y-92654773D01*
X188350708Y-92654773D01*
X188445946Y-92702392D01*
X188493565Y-92750011D01*
X188541184Y-92845249D01*
X188541184Y-93083344D01*
X188493565Y-93178582D01*
X188445946Y-93226201D01*
X188350708Y-93273820D01*
X188112613Y-93273820D01*
X188017375Y-93226201D01*
X187969756Y-93178582D01*
%TO.C,C26*%
X179595542Y-93178582D02*
X179547923Y-93226201D01*
X179405066Y-93273820D01*
X179309828Y-93273820D01*
X179166971Y-93226201D01*
X179071733Y-93130963D01*
X179024114Y-93035725D01*
X178976495Y-92845249D01*
X178976495Y-92702392D01*
X179024114Y-92511916D01*
X179071733Y-92416678D01*
X179166971Y-92321440D01*
X179309828Y-92273820D01*
X179405066Y-92273820D01*
X179547923Y-92321440D01*
X179595542Y-92369059D01*
X179976495Y-92369059D02*
X180024114Y-92321440D01*
X180119352Y-92273820D01*
X180357447Y-92273820D01*
X180452685Y-92321440D01*
X180500304Y-92369059D01*
X180547923Y-92464297D01*
X180547923Y-92559535D01*
X180500304Y-92702392D01*
X179928876Y-93273820D01*
X180547923Y-93273820D01*
X181405066Y-92273820D02*
X181214590Y-92273820D01*
X181119352Y-92321440D01*
X181071733Y-92369059D01*
X180976495Y-92511916D01*
X180928876Y-92702392D01*
X180928876Y-93083344D01*
X180976495Y-93178582D01*
X181024114Y-93226201D01*
X181119352Y-93273820D01*
X181309828Y-93273820D01*
X181405066Y-93226201D01*
X181452685Y-93178582D01*
X181500304Y-93083344D01*
X181500304Y-92845249D01*
X181452685Y-92750011D01*
X181405066Y-92702392D01*
X181309828Y-92654773D01*
X181119352Y-92654773D01*
X181024114Y-92702392D01*
X180976495Y-92750011D01*
X180928876Y-92845249D01*
%TO.C,C27*%
X172635760Y-93305440D02*
X172602426Y-93338773D01*
X172502426Y-93372106D01*
X172435760Y-93372106D01*
X172335760Y-93338773D01*
X172269093Y-93272106D01*
X172235760Y-93205440D01*
X172202426Y-93072106D01*
X172202426Y-92972106D01*
X172235760Y-92838773D01*
X172269093Y-92772106D01*
X172335760Y-92705440D01*
X172435760Y-92672106D01*
X172502426Y-92672106D01*
X172602426Y-92705440D01*
X172635760Y-92738773D01*
X172902426Y-92738773D02*
X172935760Y-92705440D01*
X173002426Y-92672106D01*
X173169093Y-92672106D01*
X173235760Y-92705440D01*
X173269093Y-92738773D01*
X173302426Y-92805440D01*
X173302426Y-92872106D01*
X173269093Y-92972106D01*
X172869093Y-93372106D01*
X173302426Y-93372106D01*
X173535760Y-92672106D02*
X174002426Y-92672106D01*
X173702426Y-93372106D01*
%TO.C,C28*%
X163403042Y-94565742D02*
X163355423Y-94613361D01*
X163212566Y-94660980D01*
X163117328Y-94660980D01*
X162974471Y-94613361D01*
X162879233Y-94518123D01*
X162831614Y-94422885D01*
X162783995Y-94232409D01*
X162783995Y-94089552D01*
X162831614Y-93899076D01*
X162879233Y-93803838D01*
X162974471Y-93708600D01*
X163117328Y-93660980D01*
X163212566Y-93660980D01*
X163355423Y-93708600D01*
X163403042Y-93756219D01*
X163783995Y-93756219D02*
X163831614Y-93708600D01*
X163926852Y-93660980D01*
X164164947Y-93660980D01*
X164260185Y-93708600D01*
X164307804Y-93756219D01*
X164355423Y-93851457D01*
X164355423Y-93946695D01*
X164307804Y-94089552D01*
X163736376Y-94660980D01*
X164355423Y-94660980D01*
X164926852Y-94089552D02*
X164831614Y-94041933D01*
X164783995Y-93994314D01*
X164736376Y-93899076D01*
X164736376Y-93851457D01*
X164783995Y-93756219D01*
X164831614Y-93708600D01*
X164926852Y-93660980D01*
X165117328Y-93660980D01*
X165212566Y-93708600D01*
X165260185Y-93756219D01*
X165307804Y-93851457D01*
X165307804Y-93899076D01*
X165260185Y-93994314D01*
X165212566Y-94041933D01*
X165117328Y-94089552D01*
X164926852Y-94089552D01*
X164831614Y-94137171D01*
X164783995Y-94184790D01*
X164736376Y-94280028D01*
X164736376Y-94470504D01*
X164783995Y-94565742D01*
X164831614Y-94613361D01*
X164926852Y-94660980D01*
X165117328Y-94660980D01*
X165212566Y-94613361D01*
X165260185Y-94565742D01*
X165307804Y-94470504D01*
X165307804Y-94280028D01*
X165260185Y-94184790D01*
X165212566Y-94137171D01*
X165117328Y-94089552D01*
%TO.C,C29*%
X186607142Y-88365602D02*
X186559523Y-88413221D01*
X186416666Y-88460840D01*
X186321428Y-88460840D01*
X186178571Y-88413221D01*
X186083333Y-88317983D01*
X186035714Y-88222745D01*
X185988095Y-88032269D01*
X185988095Y-87889412D01*
X186035714Y-87698936D01*
X186083333Y-87603698D01*
X186178571Y-87508460D01*
X186321428Y-87460840D01*
X186416666Y-87460840D01*
X186559523Y-87508460D01*
X186607142Y-87556079D01*
X186988095Y-87556079D02*
X187035714Y-87508460D01*
X187130952Y-87460840D01*
X187369047Y-87460840D01*
X187464285Y-87508460D01*
X187511904Y-87556079D01*
X187559523Y-87651317D01*
X187559523Y-87746555D01*
X187511904Y-87889412D01*
X186940476Y-88460840D01*
X187559523Y-88460840D01*
X188035714Y-88460840D02*
X188226190Y-88460840D01*
X188321428Y-88413221D01*
X188369047Y-88365602D01*
X188464285Y-88222745D01*
X188511904Y-88032269D01*
X188511904Y-87651317D01*
X188464285Y-87556079D01*
X188416666Y-87508460D01*
X188321428Y-87460840D01*
X188130952Y-87460840D01*
X188035714Y-87508460D01*
X187988095Y-87556079D01*
X187940476Y-87651317D01*
X187940476Y-87889412D01*
X187988095Y-87984650D01*
X188035714Y-88032269D01*
X188130952Y-88079888D01*
X188321428Y-88079888D01*
X188416666Y-88032269D01*
X188464285Y-87984650D01*
X188511904Y-87889412D01*
%TO.C,C30*%
X179807142Y-88365602D02*
X179759523Y-88413221D01*
X179616666Y-88460840D01*
X179521428Y-88460840D01*
X179378571Y-88413221D01*
X179283333Y-88317983D01*
X179235714Y-88222745D01*
X179188095Y-88032269D01*
X179188095Y-87889412D01*
X179235714Y-87698936D01*
X179283333Y-87603698D01*
X179378571Y-87508460D01*
X179521428Y-87460840D01*
X179616666Y-87460840D01*
X179759523Y-87508460D01*
X179807142Y-87556079D01*
X180140476Y-87460840D02*
X180759523Y-87460840D01*
X180426190Y-87841793D01*
X180569047Y-87841793D01*
X180664285Y-87889412D01*
X180711904Y-87937031D01*
X180759523Y-88032269D01*
X180759523Y-88270364D01*
X180711904Y-88365602D01*
X180664285Y-88413221D01*
X180569047Y-88460840D01*
X180283333Y-88460840D01*
X180188095Y-88413221D01*
X180140476Y-88365602D01*
X181378571Y-87460840D02*
X181473809Y-87460840D01*
X181569047Y-87508460D01*
X181616666Y-87556079D01*
X181664285Y-87651317D01*
X181711904Y-87841793D01*
X181711904Y-88079888D01*
X181664285Y-88270364D01*
X181616666Y-88365602D01*
X181569047Y-88413221D01*
X181473809Y-88460840D01*
X181378571Y-88460840D01*
X181283333Y-88413221D01*
X181235714Y-88365602D01*
X181188095Y-88270364D01*
X181140476Y-88079888D01*
X181140476Y-87841793D01*
X181188095Y-87651317D01*
X181235714Y-87556079D01*
X181283333Y-87508460D01*
X181378571Y-87460840D01*
%TO.C,C31*%
X173207142Y-88365602D02*
X173159523Y-88413221D01*
X173016666Y-88460840D01*
X172921428Y-88460840D01*
X172778571Y-88413221D01*
X172683333Y-88317983D01*
X172635714Y-88222745D01*
X172588095Y-88032269D01*
X172588095Y-87889412D01*
X172635714Y-87698936D01*
X172683333Y-87603698D01*
X172778571Y-87508460D01*
X172921428Y-87460840D01*
X173016666Y-87460840D01*
X173159523Y-87508460D01*
X173207142Y-87556079D01*
X173540476Y-87460840D02*
X174159523Y-87460840D01*
X173826190Y-87841793D01*
X173969047Y-87841793D01*
X174064285Y-87889412D01*
X174111904Y-87937031D01*
X174159523Y-88032269D01*
X174159523Y-88270364D01*
X174111904Y-88365602D01*
X174064285Y-88413221D01*
X173969047Y-88460840D01*
X173683333Y-88460840D01*
X173588095Y-88413221D01*
X173540476Y-88365602D01*
X175111904Y-88460840D02*
X174540476Y-88460840D01*
X174826190Y-88460840D02*
X174826190Y-87460840D01*
X174730952Y-87603698D01*
X174635714Y-87698936D01*
X174540476Y-87746555D01*
%TO.C,C32*%
X166423102Y-88365602D02*
X166375483Y-88413221D01*
X166232626Y-88460840D01*
X166137388Y-88460840D01*
X165994531Y-88413221D01*
X165899293Y-88317983D01*
X165851674Y-88222745D01*
X165804055Y-88032269D01*
X165804055Y-87889412D01*
X165851674Y-87698936D01*
X165899293Y-87603698D01*
X165994531Y-87508460D01*
X166137388Y-87460840D01*
X166232626Y-87460840D01*
X166375483Y-87508460D01*
X166423102Y-87556079D01*
X166756436Y-87460840D02*
X167375483Y-87460840D01*
X167042150Y-87841793D01*
X167185007Y-87841793D01*
X167280245Y-87889412D01*
X167327864Y-87937031D01*
X167375483Y-88032269D01*
X167375483Y-88270364D01*
X167327864Y-88365602D01*
X167280245Y-88413221D01*
X167185007Y-88460840D01*
X166899293Y-88460840D01*
X166804055Y-88413221D01*
X166756436Y-88365602D01*
X167756436Y-87556079D02*
X167804055Y-87508460D01*
X167899293Y-87460840D01*
X168137388Y-87460840D01*
X168232626Y-87508460D01*
X168280245Y-87556079D01*
X168327864Y-87651317D01*
X168327864Y-87746555D01*
X168280245Y-87889412D01*
X167708817Y-88460840D01*
X168327864Y-88460840D01*
%TO.C,C33*%
X174782242Y-95035642D02*
X174734623Y-95083261D01*
X174591766Y-95130880D01*
X174496528Y-95130880D01*
X174353671Y-95083261D01*
X174258433Y-94988023D01*
X174210814Y-94892785D01*
X174163195Y-94702309D01*
X174163195Y-94559452D01*
X174210814Y-94368976D01*
X174258433Y-94273738D01*
X174353671Y-94178500D01*
X174496528Y-94130880D01*
X174591766Y-94130880D01*
X174734623Y-94178500D01*
X174782242Y-94226119D01*
X175115576Y-94130880D02*
X175734623Y-94130880D01*
X175401290Y-94511833D01*
X175544147Y-94511833D01*
X175639385Y-94559452D01*
X175687004Y-94607071D01*
X175734623Y-94702309D01*
X175734623Y-94940404D01*
X175687004Y-95035642D01*
X175639385Y-95083261D01*
X175544147Y-95130880D01*
X175258433Y-95130880D01*
X175163195Y-95083261D01*
X175115576Y-95035642D01*
X176067957Y-94130880D02*
X176687004Y-94130880D01*
X176353671Y-94511833D01*
X176496528Y-94511833D01*
X176591766Y-94559452D01*
X176639385Y-94607071D01*
X176687004Y-94702309D01*
X176687004Y-94940404D01*
X176639385Y-95035642D01*
X176591766Y-95083261D01*
X176496528Y-95130880D01*
X176210814Y-95130880D01*
X176115576Y-95083261D01*
X176067957Y-95035642D01*
%TO.C,C34*%
X157007142Y-58457142D02*
X156959523Y-58504761D01*
X156816666Y-58552380D01*
X156721428Y-58552380D01*
X156578571Y-58504761D01*
X156483333Y-58409523D01*
X156435714Y-58314285D01*
X156388095Y-58123809D01*
X156388095Y-57980952D01*
X156435714Y-57790476D01*
X156483333Y-57695238D01*
X156578571Y-57600000D01*
X156721428Y-57552380D01*
X156816666Y-57552380D01*
X156959523Y-57600000D01*
X157007142Y-57647619D01*
X157340476Y-57552380D02*
X157959523Y-57552380D01*
X157626190Y-57933333D01*
X157769047Y-57933333D01*
X157864285Y-57980952D01*
X157911904Y-58028571D01*
X157959523Y-58123809D01*
X157959523Y-58361904D01*
X157911904Y-58457142D01*
X157864285Y-58504761D01*
X157769047Y-58552380D01*
X157483333Y-58552380D01*
X157388095Y-58504761D01*
X157340476Y-58457142D01*
X158816666Y-57885714D02*
X158816666Y-58552380D01*
X158578571Y-57504761D02*
X158340476Y-58219047D01*
X158959523Y-58219047D01*
%TO.C,C35*%
X173857142Y-51957142D02*
X173809523Y-52004761D01*
X173666666Y-52052380D01*
X173571428Y-52052380D01*
X173428571Y-52004761D01*
X173333333Y-51909523D01*
X173285714Y-51814285D01*
X173238095Y-51623809D01*
X173238095Y-51480952D01*
X173285714Y-51290476D01*
X173333333Y-51195238D01*
X173428571Y-51100000D01*
X173571428Y-51052380D01*
X173666666Y-51052380D01*
X173809523Y-51100000D01*
X173857142Y-51147619D01*
X174190476Y-51052380D02*
X174809523Y-51052380D01*
X174476190Y-51433333D01*
X174619047Y-51433333D01*
X174714285Y-51480952D01*
X174761904Y-51528571D01*
X174809523Y-51623809D01*
X174809523Y-51861904D01*
X174761904Y-51957142D01*
X174714285Y-52004761D01*
X174619047Y-52052380D01*
X174333333Y-52052380D01*
X174238095Y-52004761D01*
X174190476Y-51957142D01*
X175714285Y-51052380D02*
X175238095Y-51052380D01*
X175190476Y-51528571D01*
X175238095Y-51480952D01*
X175333333Y-51433333D01*
X175571428Y-51433333D01*
X175666666Y-51480952D01*
X175714285Y-51528571D01*
X175761904Y-51623809D01*
X175761904Y-51861904D01*
X175714285Y-51957142D01*
X175666666Y-52004761D01*
X175571428Y-52052380D01*
X175333333Y-52052380D01*
X175238095Y-52004761D01*
X175190476Y-51957142D01*
%TO.C,C36*%
X178160462Y-51917382D02*
X178112843Y-51965001D01*
X177969986Y-52012620D01*
X177874748Y-52012620D01*
X177731891Y-51965001D01*
X177636653Y-51869763D01*
X177589034Y-51774525D01*
X177541415Y-51584049D01*
X177541415Y-51441192D01*
X177589034Y-51250716D01*
X177636653Y-51155478D01*
X177731891Y-51060240D01*
X177874748Y-51012620D01*
X177969986Y-51012620D01*
X178112843Y-51060240D01*
X178160462Y-51107859D01*
X178493796Y-51012620D02*
X179112843Y-51012620D01*
X178779510Y-51393573D01*
X178922367Y-51393573D01*
X179017605Y-51441192D01*
X179065224Y-51488811D01*
X179112843Y-51584049D01*
X179112843Y-51822144D01*
X179065224Y-51917382D01*
X179017605Y-51965001D01*
X178922367Y-52012620D01*
X178636653Y-52012620D01*
X178541415Y-51965001D01*
X178493796Y-51917382D01*
X179969986Y-51012620D02*
X179779510Y-51012620D01*
X179684272Y-51060240D01*
X179636653Y-51107859D01*
X179541415Y-51250716D01*
X179493796Y-51441192D01*
X179493796Y-51822144D01*
X179541415Y-51917382D01*
X179589034Y-51965001D01*
X179684272Y-52012620D01*
X179874748Y-52012620D01*
X179969986Y-51965001D01*
X180017605Y-51917382D01*
X180065224Y-51822144D01*
X180065224Y-51584049D01*
X180017605Y-51488811D01*
X179969986Y-51441192D01*
X179874748Y-51393573D01*
X179684272Y-51393573D01*
X179589034Y-51441192D01*
X179541415Y-51488811D01*
X179493796Y-51584049D01*
%TO.C,C37*%
X182510462Y-51917382D02*
X182462843Y-51965001D01*
X182319986Y-52012620D01*
X182224748Y-52012620D01*
X182081891Y-51965001D01*
X181986653Y-51869763D01*
X181939034Y-51774525D01*
X181891415Y-51584049D01*
X181891415Y-51441192D01*
X181939034Y-51250716D01*
X181986653Y-51155478D01*
X182081891Y-51060240D01*
X182224748Y-51012620D01*
X182319986Y-51012620D01*
X182462843Y-51060240D01*
X182510462Y-51107859D01*
X182843796Y-51012620D02*
X183462843Y-51012620D01*
X183129510Y-51393573D01*
X183272367Y-51393573D01*
X183367605Y-51441192D01*
X183415224Y-51488811D01*
X183462843Y-51584049D01*
X183462843Y-51822144D01*
X183415224Y-51917382D01*
X183367605Y-51965001D01*
X183272367Y-52012620D01*
X182986653Y-52012620D01*
X182891415Y-51965001D01*
X182843796Y-51917382D01*
X183796177Y-51012620D02*
X184462843Y-51012620D01*
X184034272Y-52012620D01*
%TO.C,C38*%
X157233382Y-94382862D02*
X157185763Y-94430481D01*
X157042906Y-94478100D01*
X156947668Y-94478100D01*
X156804811Y-94430481D01*
X156709573Y-94335243D01*
X156661954Y-94240005D01*
X156614335Y-94049529D01*
X156614335Y-93906672D01*
X156661954Y-93716196D01*
X156709573Y-93620958D01*
X156804811Y-93525720D01*
X156947668Y-93478100D01*
X157042906Y-93478100D01*
X157185763Y-93525720D01*
X157233382Y-93573339D01*
X157566716Y-93478100D02*
X158185763Y-93478100D01*
X157852430Y-93859053D01*
X157995287Y-93859053D01*
X158090525Y-93906672D01*
X158138144Y-93954291D01*
X158185763Y-94049529D01*
X158185763Y-94287624D01*
X158138144Y-94382862D01*
X158090525Y-94430481D01*
X157995287Y-94478100D01*
X157709573Y-94478100D01*
X157614335Y-94430481D01*
X157566716Y-94382862D01*
X158757192Y-93906672D02*
X158661954Y-93859053D01*
X158614335Y-93811434D01*
X158566716Y-93716196D01*
X158566716Y-93668577D01*
X158614335Y-93573339D01*
X158661954Y-93525720D01*
X158757192Y-93478100D01*
X158947668Y-93478100D01*
X159042906Y-93525720D01*
X159090525Y-93573339D01*
X159138144Y-93668577D01*
X159138144Y-93716196D01*
X159090525Y-93811434D01*
X159042906Y-93859053D01*
X158947668Y-93906672D01*
X158757192Y-93906672D01*
X158661954Y-93954291D01*
X158614335Y-94001910D01*
X158566716Y-94097148D01*
X158566716Y-94287624D01*
X158614335Y-94382862D01*
X158661954Y-94430481D01*
X158757192Y-94478100D01*
X158947668Y-94478100D01*
X159042906Y-94430481D01*
X159090525Y-94382862D01*
X159138144Y-94287624D01*
X159138144Y-94097148D01*
X159090525Y-94001910D01*
X159042906Y-93954291D01*
X158947668Y-93906672D01*
%TO.C,C39*%
X157660102Y-89401922D02*
X157612483Y-89449541D01*
X157469626Y-89497160D01*
X157374388Y-89497160D01*
X157231531Y-89449541D01*
X157136293Y-89354303D01*
X157088674Y-89259065D01*
X157041055Y-89068589D01*
X157041055Y-88925732D01*
X157088674Y-88735256D01*
X157136293Y-88640018D01*
X157231531Y-88544780D01*
X157374388Y-88497160D01*
X157469626Y-88497160D01*
X157612483Y-88544780D01*
X157660102Y-88592399D01*
X157993436Y-88497160D02*
X158612483Y-88497160D01*
X158279150Y-88878113D01*
X158422007Y-88878113D01*
X158517245Y-88925732D01*
X158564864Y-88973351D01*
X158612483Y-89068589D01*
X158612483Y-89306684D01*
X158564864Y-89401922D01*
X158517245Y-89449541D01*
X158422007Y-89497160D01*
X158136293Y-89497160D01*
X158041055Y-89449541D01*
X157993436Y-89401922D01*
X159088674Y-89497160D02*
X159279150Y-89497160D01*
X159374388Y-89449541D01*
X159422007Y-89401922D01*
X159517245Y-89259065D01*
X159564864Y-89068589D01*
X159564864Y-88687637D01*
X159517245Y-88592399D01*
X159469626Y-88544780D01*
X159374388Y-88497160D01*
X159183912Y-88497160D01*
X159088674Y-88544780D01*
X159041055Y-88592399D01*
X158993436Y-88687637D01*
X158993436Y-88925732D01*
X159041055Y-89020970D01*
X159088674Y-89068589D01*
X159183912Y-89116208D01*
X159374388Y-89116208D01*
X159469626Y-89068589D01*
X159517245Y-89020970D01*
X159564864Y-88925732D01*
%TO.C,C40*%
X157957142Y-84857142D02*
X157909523Y-84904761D01*
X157766666Y-84952380D01*
X157671428Y-84952380D01*
X157528571Y-84904761D01*
X157433333Y-84809523D01*
X157385714Y-84714285D01*
X157338095Y-84523809D01*
X157338095Y-84380952D01*
X157385714Y-84190476D01*
X157433333Y-84095238D01*
X157528571Y-84000000D01*
X157671428Y-83952380D01*
X157766666Y-83952380D01*
X157909523Y-84000000D01*
X157957142Y-84047619D01*
X158814285Y-84285714D02*
X158814285Y-84952380D01*
X158576190Y-83904761D02*
X158338095Y-84619047D01*
X158957142Y-84619047D01*
X159528571Y-83952380D02*
X159623809Y-83952380D01*
X159719047Y-84000000D01*
X159766666Y-84047619D01*
X159814285Y-84142857D01*
X159861904Y-84333333D01*
X159861904Y-84571428D01*
X159814285Y-84761904D01*
X159766666Y-84857142D01*
X159719047Y-84904761D01*
X159623809Y-84952380D01*
X159528571Y-84952380D01*
X159433333Y-84904761D01*
X159385714Y-84857142D01*
X159338095Y-84761904D01*
X159290476Y-84571428D01*
X159290476Y-84333333D01*
X159338095Y-84142857D01*
X159385714Y-84047619D01*
X159433333Y-84000000D01*
X159528571Y-83952380D01*
%TO.C,C41*%
X157957142Y-80057142D02*
X157909523Y-80104761D01*
X157766666Y-80152380D01*
X157671428Y-80152380D01*
X157528571Y-80104761D01*
X157433333Y-80009523D01*
X157385714Y-79914285D01*
X157338095Y-79723809D01*
X157338095Y-79580952D01*
X157385714Y-79390476D01*
X157433333Y-79295238D01*
X157528571Y-79200000D01*
X157671428Y-79152380D01*
X157766666Y-79152380D01*
X157909523Y-79200000D01*
X157957142Y-79247619D01*
X158814285Y-79485714D02*
X158814285Y-80152380D01*
X158576190Y-79104761D02*
X158338095Y-79819047D01*
X158957142Y-79819047D01*
X159861904Y-80152380D02*
X159290476Y-80152380D01*
X159576190Y-80152380D02*
X159576190Y-79152380D01*
X159480952Y-79295238D01*
X159385714Y-79390476D01*
X159290476Y-79438095D01*
%TO.C,R1*%
X176807833Y-80055980D02*
X176474500Y-79579790D01*
X176236404Y-80055980D02*
X176236404Y-79055980D01*
X176617357Y-79055980D01*
X176712595Y-79103600D01*
X176760214Y-79151219D01*
X176807833Y-79246457D01*
X176807833Y-79389314D01*
X176760214Y-79484552D01*
X176712595Y-79532171D01*
X176617357Y-79579790D01*
X176236404Y-79579790D01*
X177760214Y-80055980D02*
X177188785Y-80055980D01*
X177474500Y-80055980D02*
X177474500Y-79055980D01*
X177379261Y-79198838D01*
X177284023Y-79294076D01*
X177188785Y-79341695D01*
%TO.C,R2*%
X176769733Y-78824080D02*
X176436400Y-78347890D01*
X176198304Y-78824080D02*
X176198304Y-77824080D01*
X176579257Y-77824080D01*
X176674495Y-77871700D01*
X176722114Y-77919319D01*
X176769733Y-78014557D01*
X176769733Y-78157414D01*
X176722114Y-78252652D01*
X176674495Y-78300271D01*
X176579257Y-78347890D01*
X176198304Y-78347890D01*
X177150685Y-77919319D02*
X177198304Y-77871700D01*
X177293542Y-77824080D01*
X177531638Y-77824080D01*
X177626876Y-77871700D01*
X177674495Y-77919319D01*
X177722114Y-78014557D01*
X177722114Y-78109795D01*
X177674495Y-78252652D01*
X177103066Y-78824080D01*
X177722114Y-78824080D01*
%TO.C,R3*%
X176612253Y-55214780D02*
X176278920Y-54738590D01*
X176040824Y-55214780D02*
X176040824Y-54214780D01*
X176421777Y-54214780D01*
X176517015Y-54262400D01*
X176564634Y-54310019D01*
X176612253Y-54405257D01*
X176612253Y-54548114D01*
X176564634Y-54643352D01*
X176517015Y-54690971D01*
X176421777Y-54738590D01*
X176040824Y-54738590D01*
X176945586Y-54214780D02*
X177564634Y-54214780D01*
X177231300Y-54595733D01*
X177374158Y-54595733D01*
X177469396Y-54643352D01*
X177517015Y-54690971D01*
X177564634Y-54786209D01*
X177564634Y-55024304D01*
X177517015Y-55119542D01*
X177469396Y-55167161D01*
X177374158Y-55214780D01*
X177088443Y-55214780D01*
X176993205Y-55167161D01*
X176945586Y-55119542D01*
%TO.C,R4*%
X164128153Y-54046380D02*
X163794820Y-53570190D01*
X163556724Y-54046380D02*
X163556724Y-53046380D01*
X163937677Y-53046380D01*
X164032915Y-53094000D01*
X164080534Y-53141619D01*
X164128153Y-53236857D01*
X164128153Y-53379714D01*
X164080534Y-53474952D01*
X164032915Y-53522571D01*
X163937677Y-53570190D01*
X163556724Y-53570190D01*
X164985296Y-53379714D02*
X164985296Y-54046380D01*
X164747200Y-52998761D02*
X164509105Y-53713047D01*
X165128153Y-53713047D01*
%TO.C,R5*%
X173283333Y-62052380D02*
X172950000Y-61576190D01*
X172711904Y-62052380D02*
X172711904Y-61052380D01*
X173092857Y-61052380D01*
X173188095Y-61100000D01*
X173235714Y-61147619D01*
X173283333Y-61242857D01*
X173283333Y-61385714D01*
X173235714Y-61480952D01*
X173188095Y-61528571D01*
X173092857Y-61576190D01*
X172711904Y-61576190D01*
X174188095Y-61052380D02*
X173711904Y-61052380D01*
X173664285Y-61528571D01*
X173711904Y-61480952D01*
X173807142Y-61433333D01*
X174045238Y-61433333D01*
X174140476Y-61480952D01*
X174188095Y-61528571D01*
X174235714Y-61623809D01*
X174235714Y-61861904D01*
X174188095Y-61957142D01*
X174140476Y-62004761D01*
X174045238Y-62052380D01*
X173807142Y-62052380D01*
X173711904Y-62004761D01*
X173664285Y-61957142D01*
%TO.C,R6*%
X154633333Y-72402380D02*
X154300000Y-71926190D01*
X154061904Y-72402380D02*
X154061904Y-71402380D01*
X154442857Y-71402380D01*
X154538095Y-71450000D01*
X154585714Y-71497619D01*
X154633333Y-71592857D01*
X154633333Y-71735714D01*
X154585714Y-71830952D01*
X154538095Y-71878571D01*
X154442857Y-71926190D01*
X154061904Y-71926190D01*
X155490476Y-71402380D02*
X155300000Y-71402380D01*
X155204761Y-71450000D01*
X155157142Y-71497619D01*
X155061904Y-71640476D01*
X155014285Y-71830952D01*
X155014285Y-72211904D01*
X155061904Y-72307142D01*
X155109523Y-72354761D01*
X155204761Y-72402380D01*
X155395238Y-72402380D01*
X155490476Y-72354761D01*
X155538095Y-72307142D01*
X155585714Y-72211904D01*
X155585714Y-71973809D01*
X155538095Y-71878571D01*
X155490476Y-71830952D01*
X155395238Y-71783333D01*
X155204761Y-71783333D01*
X155109523Y-71830952D01*
X155061904Y-71878571D01*
X155014285Y-71973809D01*
%TO.C,R7*%
X160033333Y-91102380D02*
X159700000Y-90626190D01*
X159461904Y-91102380D02*
X159461904Y-90102380D01*
X159842857Y-90102380D01*
X159938095Y-90150000D01*
X159985714Y-90197619D01*
X160033333Y-90292857D01*
X160033333Y-90435714D01*
X159985714Y-90530952D01*
X159938095Y-90578571D01*
X159842857Y-90626190D01*
X159461904Y-90626190D01*
X160366666Y-90102380D02*
X161033333Y-90102380D01*
X160604761Y-91102380D01*
%TO.C,R8*%
X166009913Y-97017006D02*
X165776580Y-96683673D01*
X165609913Y-97017006D02*
X165609913Y-96317006D01*
X165876580Y-96317006D01*
X165943246Y-96350340D01*
X165976580Y-96383673D01*
X166009913Y-96450340D01*
X166009913Y-96550340D01*
X165976580Y-96617006D01*
X165943246Y-96650340D01*
X165876580Y-96683673D01*
X165609913Y-96683673D01*
X166409913Y-96617006D02*
X166343246Y-96583673D01*
X166309913Y-96550340D01*
X166276580Y-96483673D01*
X166276580Y-96450340D01*
X166309913Y-96383673D01*
X166343246Y-96350340D01*
X166409913Y-96317006D01*
X166543246Y-96317006D01*
X166609913Y-96350340D01*
X166643246Y-96383673D01*
X166676580Y-96450340D01*
X166676580Y-96483673D01*
X166643246Y-96550340D01*
X166609913Y-96583673D01*
X166543246Y-96617006D01*
X166409913Y-96617006D01*
X166343246Y-96650340D01*
X166309913Y-96683673D01*
X166276580Y-96750340D01*
X166276580Y-96883673D01*
X166309913Y-96950340D01*
X166343246Y-96983673D01*
X166409913Y-97017006D01*
X166543246Y-97017006D01*
X166609913Y-96983673D01*
X166643246Y-96950340D01*
X166676580Y-96883673D01*
X166676580Y-96750340D01*
X166643246Y-96683673D01*
X166609913Y-96650340D01*
X166543246Y-96617006D01*
%TO.C,R9*%
X166009913Y-98604506D02*
X165776580Y-98271173D01*
X165609913Y-98604506D02*
X165609913Y-97904506D01*
X165876580Y-97904506D01*
X165943246Y-97937840D01*
X165976580Y-97971173D01*
X166009913Y-98037840D01*
X166009913Y-98137840D01*
X165976580Y-98204506D01*
X165943246Y-98237840D01*
X165876580Y-98271173D01*
X165609913Y-98271173D01*
X166343246Y-98604506D02*
X166476580Y-98604506D01*
X166543246Y-98571173D01*
X166576580Y-98537840D01*
X166643246Y-98437840D01*
X166676580Y-98304506D01*
X166676580Y-98037840D01*
X166643246Y-97971173D01*
X166609913Y-97937840D01*
X166543246Y-97904506D01*
X166409913Y-97904506D01*
X166343246Y-97937840D01*
X166309913Y-97971173D01*
X166276580Y-98037840D01*
X166276580Y-98204506D01*
X166309913Y-98271173D01*
X166343246Y-98304506D01*
X166409913Y-98337840D01*
X166543246Y-98337840D01*
X166609913Y-98304506D01*
X166643246Y-98271173D01*
X166676580Y-98204506D01*
%TO.C,R10*%
X166009913Y-100204706D02*
X165776579Y-99871373D01*
X165609913Y-100204706D02*
X165609913Y-99504706D01*
X165876579Y-99504706D01*
X165943246Y-99538040D01*
X165976579Y-99571373D01*
X166009913Y-99638040D01*
X166009913Y-99738040D01*
X165976579Y-99804706D01*
X165943246Y-99838040D01*
X165876579Y-99871373D01*
X165609913Y-99871373D01*
X166676579Y-100204706D02*
X166276579Y-100204706D01*
X166476579Y-100204706D02*
X166476579Y-99504706D01*
X166409913Y-99604706D01*
X166343246Y-99671373D01*
X166276579Y-99704706D01*
X167109913Y-99504706D02*
X167176579Y-99504706D01*
X167243246Y-99538040D01*
X167276579Y-99571373D01*
X167309913Y-99638040D01*
X167343246Y-99771373D01*
X167343246Y-99938040D01*
X167309913Y-100071373D01*
X167276579Y-100138040D01*
X167243246Y-100171373D01*
X167176579Y-100204706D01*
X167109913Y-100204706D01*
X167043246Y-100171373D01*
X167009913Y-100138040D01*
X166976579Y-100071373D01*
X166943246Y-99938040D01*
X166943246Y-99771373D01*
X166976579Y-99638040D01*
X167009913Y-99571373D01*
X167043246Y-99538040D01*
X167109913Y-99504706D01*
%TO.C,R11*%
X159557142Y-86102380D02*
X159223809Y-85626190D01*
X158985714Y-86102380D02*
X158985714Y-85102380D01*
X159366666Y-85102380D01*
X159461904Y-85150000D01*
X159509523Y-85197619D01*
X159557142Y-85292857D01*
X159557142Y-85435714D01*
X159509523Y-85530952D01*
X159461904Y-85578571D01*
X159366666Y-85626190D01*
X158985714Y-85626190D01*
X160509523Y-86102380D02*
X159938095Y-86102380D01*
X160223809Y-86102380D02*
X160223809Y-85102380D01*
X160128571Y-85245238D01*
X160033333Y-85340476D01*
X159938095Y-85388095D01*
X161461904Y-86102380D02*
X160890476Y-86102380D01*
X161176190Y-86102380D02*
X161176190Y-85102380D01*
X161080952Y-85245238D01*
X160985714Y-85340476D01*
X160890476Y-85388095D01*
%TO.C,R12*%
X159707142Y-81452380D02*
X159373809Y-80976190D01*
X159135714Y-81452380D02*
X159135714Y-80452380D01*
X159516666Y-80452380D01*
X159611904Y-80500000D01*
X159659523Y-80547619D01*
X159707142Y-80642857D01*
X159707142Y-80785714D01*
X159659523Y-80880952D01*
X159611904Y-80928571D01*
X159516666Y-80976190D01*
X159135714Y-80976190D01*
X160659523Y-81452380D02*
X160088095Y-81452380D01*
X160373809Y-81452380D02*
X160373809Y-80452380D01*
X160278571Y-80595238D01*
X160183333Y-80690476D01*
X160088095Y-80738095D01*
X161040476Y-80547619D02*
X161088095Y-80500000D01*
X161183333Y-80452380D01*
X161421428Y-80452380D01*
X161516666Y-80500000D01*
X161564285Y-80547619D01*
X161611904Y-80642857D01*
X161611904Y-80738095D01*
X161564285Y-80880952D01*
X160992857Y-81452380D01*
X161611904Y-81452380D01*
%TO.C,R13*%
X161452380Y-78342857D02*
X160976190Y-78676190D01*
X161452380Y-78914285D02*
X160452380Y-78914285D01*
X160452380Y-78533333D01*
X160500000Y-78438095D01*
X160547619Y-78390476D01*
X160642857Y-78342857D01*
X160785714Y-78342857D01*
X160880952Y-78390476D01*
X160928571Y-78438095D01*
X160976190Y-78533333D01*
X160976190Y-78914285D01*
X161452380Y-77390476D02*
X161452380Y-77961904D01*
X161452380Y-77676190D02*
X160452380Y-77676190D01*
X160595238Y-77771428D01*
X160690476Y-77866666D01*
X160738095Y-77961904D01*
X160452380Y-77057142D02*
X160452380Y-76438095D01*
X160833333Y-76771428D01*
X160833333Y-76628571D01*
X160880952Y-76533333D01*
X160928571Y-76485714D01*
X161023809Y-76438095D01*
X161261904Y-76438095D01*
X161357142Y-76485714D01*
X161404761Y-76533333D01*
X161452380Y-76628571D01*
X161452380Y-76914285D01*
X161404761Y-77009523D01*
X161357142Y-77057142D01*
%TD*%
M02*
