M48
; DRILL file {KiCad (5.1.7)-1} date 10/28/20 20:28:33
; FORMAT={-:-/ absolute / inch / decimal}
; #@! TF.CreationDate,2020-10-28T20:28:33+01:00
; #@! TF.GenerationSoftware,Kicad,Pcbnew,(5.1.7)-1
; #@! TF.FileFunction,Plated,1,4,PTH
FMAT,2
INCH
T1C0.0079
T2C0.0118
T3C0.0157
T4C0.0197
T5C0.0217
T6C0.0394
T7C0.0866
%
G90
G05
T1
X5.9972Y-2.757
X6.1106Y-2.7148
X6.1454Y-2.8222
X6.1708Y-2.0432
X6.1934Y-2.759
X6.1964Y-2.9004
X6.2004Y-2.8724
X6.215Y-2.0842
X6.224Y-2.0292
X6.2278Y-2.8742
X6.2338Y-2.0502
X6.2574Y-2.8754
X6.2904Y-2.8734
X6.292Y-2.1931
X6.3004Y-2.1038
X6.3186Y-2.8742
X6.3298Y-3.409
X6.3302Y-3.0418
X6.3302Y-3.2302
X6.3318Y-3.6092
X6.3466Y-2.8758
X6.3482Y-2.6628
X6.3562Y-3.697
X6.3632Y-2.4054
X6.3746Y-2.8768
X6.3786Y-3.5896
X6.381Y-2.025
X6.4018Y-2.878
X6.4042Y-3.587
X6.4294Y-2.88
X6.4556Y-2.8786
X6.4776Y-2.8782
X6.4914Y-3.806
X6.493Y-3.9331
X6.4938Y-2.9792
X6.4944Y-3.8688
X6.5002Y-2.8792
X6.5018Y-2.1931
X6.5222Y-2.8792
X6.5568Y-2.1289
X6.5596Y-2.9718
X6.6102Y-2.978
X6.6424Y-2.5248
X6.6472Y-2.4736
X6.6648Y-3.0474
X6.6906Y-3.02
X6.6936Y-3.048
X6.694Y-2.3252
X6.701Y-3.1114
X6.7096Y-2.6396
X6.7446Y-2.9464
X6.7456Y-2.2754
X6.7682Y-2.9474
X6.7734Y-2.249
X6.7914Y-2.9472
X6.8114Y-2.223
X6.816Y-2.9482
X6.8513Y-2.7713
X6.8513Y-2.791
X6.8513Y-2.8107
X6.871Y-2.7713
X6.871Y-2.791
X6.871Y-2.8107
X6.8732Y-3.7618
X6.8748Y-2.5576
X6.882Y-1.845
X6.8907Y-2.7713
X6.8907Y-2.791
X6.8907Y-2.8107
X6.8998Y-3.7484
X6.9002Y-2.543
X6.9072Y-1.7358
X6.9214Y-2.2426
X6.9538Y-2.2478
X6.9616Y-2.6374
X6.9674Y-3.0712
X6.9716Y-2.3042
X6.9832Y-2.247
X6.9992Y-1.736
X7.014Y-2.6368
X7.0172Y-2.5432
X7.0338Y-3.1122
X7.0356Y-2.628
X7.0886Y-2.1188
X7.0978Y-1.8426
X7.14Y-3.034
X7.1424Y-3.0788
X7.1676Y-3.0322
X7.1684Y-2.9784
X7.1684Y-3.0062
X7.1686Y-2.704
X7.1686Y-3.0602
X7.174Y-2.655
X7.1748Y-2.6208
X7.1784Y-2.6808
X7.1794Y-2.723
X7.183Y-2.9516
X7.19Y-2.7853
X7.19Y-2.7428
X7.1906Y-2.8065
X7.1906Y-2.8278
X7.1942Y-2.7638
X7.2262Y-2.7632
X7.2262Y-2.8062
X7.2886Y-2.0758
T2
X5.9112Y-3.0799
X5.9112Y-3.276
X5.9112Y-3.4549
X5.9112Y-3.6616
X6.0494Y-2.7864
X6.1284Y-2.278
X6.2441Y-2.7557
X6.5828Y-2.6324
X6.5828Y-2.875
X6.6216Y-2.0476
X6.6534Y-2.113
X6.791Y-3.21
X6.8115Y-2.5227
X6.8142Y-2.074
X6.8142Y-2.4606
X6.8526Y-2.0356
X6.8824Y-2.0112
X6.8966Y-2.4142
X6.9596Y-2.365
X6.9614Y-3.161
X6.9793Y-2.4565
X7.0166Y-2.0365
X7.0177Y-2.1243
X7.0356Y-2.3638
X7.0693Y-2.1534
X7.1234Y-2.4554
X7.1798Y-2.9176
X7.1881Y-2.0361
X7.1881Y-2.1133
T3
X5.8164Y-2.2456
X5.8184Y-2.025
X6.1562Y-3.0968
X6.1562Y-3.2842
X6.1566Y-3.4692
X6.1576Y-3.6596
X6.2178Y-3.7928
X6.257Y-2.3346
X6.3494Y-2.5618
X6.6244Y-3.6448
X6.6482Y-3.4876
X6.659Y-3.901
X6.697Y-3.7302
X6.8384Y-3.213
X6.8448Y-3.624
X6.8602Y-3.689
X6.912Y-3.4904
X7.0248Y-3.5406
X7.1396Y-3.7814
X7.1396Y-3.9034
X7.1648Y-3.491
X7.2578Y-2.6038
X7.2598Y-3.1116
X7.2616Y-3.7814
X7.2616Y-3.9034
X7.4258Y-3.5558
X7.4304Y-3.5098
T6
X5.8506Y-1.7886
X5.8506Y-1.8886
X5.9506Y-1.7886
X5.9506Y-1.8886
X6.0506Y-1.7886
X6.0506Y-1.8886
X6.1506Y-1.7886
X6.1506Y-1.8886
X6.2506Y-1.7886
X6.2506Y-1.8886
X6.3506Y-1.7886
X6.3506Y-1.8886
X6.4506Y-1.7886
X6.4506Y-1.8886
X6.5506Y-1.7886
X6.5506Y-1.8886
X6.6506Y-1.7886
X6.6506Y-1.8886
X6.7506Y-1.7886
X6.7506Y-1.8886
X6.8506Y-1.7886
X6.8506Y-1.8886
X6.9506Y-1.7886
X6.9506Y-1.8886
X7.0506Y-1.7886
X7.0506Y-1.8886
X7.1506Y-1.7886
X7.1506Y-1.8886
X7.2506Y-1.7886
X7.2506Y-1.8886
X7.3506Y-1.7886
X7.3506Y-1.8886
X7.4506Y-1.7886
X7.4506Y-1.8886
X7.5506Y-1.7886
X7.5506Y-1.8886
X7.5325Y-2.6085
X7.5325Y-2.7085
X7.5325Y-2.8085
X7.5325Y-2.9085
X5.8535Y-2.33
X5.8535Y-2.43
X5.8535Y-2.53
X5.8535Y-2.63
X5.8535Y-2.73
X5.8535Y-2.83
X7.4518Y-2.245
X7.4518Y-2.345
X7.5518Y-2.245
X7.5518Y-2.345
T7
X7.514Y-3.8434
X5.8826Y-2.0846
X5.8826Y-3.8462
X7.514Y-2.0818
T4
G00X6.7612Y-3.8994
M15
G01X6.7612Y-3.925
M16
G05
G00X7.0368Y-3.8994
M15
G01X7.0368Y-3.925
M16
G05
T5
G00X6.7947Y-3.8059
M15
G01X6.8065Y-3.8059
M16
G05
G00X6.9915Y-3.8059
M15
G01X7.0033Y-3.8059
M16
G05
T0
M30
