%TF.GenerationSoftware,KiCad,Pcbnew,(5.1.7)-1*%
%TF.CreationDate,2020-10-27T23:28:53+01:00*%
%TF.ProjectId,f1c100s,66316331-3030-4732-9e6b-696361645f70,rev?*%
%TF.SameCoordinates,Original*%
%TF.FileFunction,Soldermask,Top*%
%TF.FilePolarity,Negative*%
%FSLAX46Y46*%
G04 Gerber Fmt 4.6, Leading zero omitted, Abs format (unit mm)*
G04 Created by KiCad (PCBNEW (5.1.7)-1) date 2020-10-27 23:28:53*
%MOMM*%
%LPD*%
G01*
G04 APERTURE LIST*
%ADD10C,2.200000*%
%ADD11O,1.700000X1.700000*%
%ADD12R,1.700000X1.700000*%
%ADD13R,1.400000X0.600000*%
%ADD14R,2.000000X2.000000*%
%ADD15O,0.890000X1.550000*%
%ADD16R,1.200000X1.550000*%
%ADD17R,1.500000X1.550000*%
%ADD18O,1.250000X0.950000*%
%ADD19R,0.400000X1.350000*%
%ADD20R,4.900000X4.750000*%
%ADD21R,0.450000X0.950000*%
%ADD22R,6.840000X6.840000*%
%ADD23R,0.200000X0.850000*%
%ADD24R,0.850000X0.200000*%
%ADD25R,0.400000X0.400000*%
G04 APERTURE END LIST*
D10*
%TO.C,REF\u002A\u002A*%
X190855600Y-97622360D03*
%TD*%
%TO.C,REF\u002A\u002A*%
X149418040Y-97693480D03*
%TD*%
%TO.C,REF\u002A\u002A*%
X149418040Y-52948840D03*
%TD*%
%TO.C,REF\u002A\u002A*%
X190855600Y-52877720D03*
%TD*%
D11*
%TO.C,J5*%
X191325500Y-73875900D03*
X191325500Y-71335900D03*
X191325500Y-68795900D03*
D12*
X191325500Y-66255900D03*
%TD*%
D13*
%TO.C,IC2*%
X183054426Y-89862800D03*
X185354426Y-88912800D03*
X185354426Y-90812800D03*
%TD*%
%TO.C,IC3*%
X176508484Y-89862800D03*
X178808484Y-88912800D03*
X178808484Y-90812800D03*
%TD*%
%TO.C,IC4*%
X169962542Y-89862800D03*
X172262542Y-88912800D03*
X172262542Y-90812800D03*
%TD*%
%TO.C,IC5*%
X163416600Y-89862800D03*
X165716600Y-88912800D03*
X165716600Y-90812800D03*
%TD*%
D11*
%TO.C,J4*%
X191815720Y-59563000D03*
X189275720Y-59563000D03*
X191815720Y-57023000D03*
D12*
X189275720Y-57023000D03*
%TD*%
D11*
%TO.C,J2*%
X191785240Y-45430440D03*
X191785240Y-47970440D03*
X189245240Y-45430440D03*
X189245240Y-47970440D03*
X186705240Y-45430440D03*
X186705240Y-47970440D03*
X184165240Y-45430440D03*
X184165240Y-47970440D03*
X181625240Y-45430440D03*
X181625240Y-47970440D03*
X179085240Y-45430440D03*
X179085240Y-47970440D03*
X176545240Y-45430440D03*
X176545240Y-47970440D03*
X174005240Y-45430440D03*
X174005240Y-47970440D03*
X171465240Y-45430440D03*
X171465240Y-47970440D03*
X168925240Y-45430440D03*
X168925240Y-47970440D03*
X166385240Y-45430440D03*
X166385240Y-47970440D03*
X163845240Y-45430440D03*
X163845240Y-47970440D03*
X161305240Y-45430440D03*
X161305240Y-47970440D03*
X158765240Y-45430440D03*
X158765240Y-47970440D03*
X156225240Y-45430440D03*
X156225240Y-47970440D03*
X153685240Y-45430440D03*
X153685240Y-47970440D03*
X151145240Y-45430440D03*
X151145240Y-47970440D03*
X148605240Y-45430440D03*
D12*
X148605240Y-47970440D03*
%TD*%
D11*
%TO.C,J3*%
X148678900Y-59182000D03*
X148678900Y-61722000D03*
X148678900Y-64262000D03*
X148678900Y-66802000D03*
X148678900Y-69342000D03*
D12*
X148678900Y-71882000D03*
%TD*%
%TO.C,SW4*%
G36*
G01*
X149128068Y-90926867D02*
X149128068Y-91676867D01*
G75*
G02*
X148753068Y-92051867I-375000J0D01*
G01*
X147503068Y-92051867D01*
G75*
G02*
X147128068Y-91676867I0J375000D01*
G01*
X147128068Y-90926867D01*
G75*
G02*
X147503068Y-90551867I375000J0D01*
G01*
X148753068Y-90551867D01*
G75*
G02*
X149128068Y-90926867I0J-375000D01*
G01*
G37*
G36*
G01*
X157328068Y-90926867D02*
X157328068Y-91676867D01*
G75*
G02*
X156953068Y-92051867I-375000J0D01*
G01*
X155703068Y-92051867D01*
G75*
G02*
X155328068Y-91676867I0J375000D01*
G01*
X155328068Y-90926867D01*
G75*
G02*
X155703068Y-90551867I375000J0D01*
G01*
X156953068Y-90551867D01*
G75*
G02*
X157328068Y-90926867I0J-375000D01*
G01*
G37*
%TD*%
%TO.C,SW3*%
G36*
G01*
X149128068Y-86127310D02*
X149128068Y-86877310D01*
G75*
G02*
X148753068Y-87252310I-375000J0D01*
G01*
X147503068Y-87252310D01*
G75*
G02*
X147128068Y-86877310I0J375000D01*
G01*
X147128068Y-86127310D01*
G75*
G02*
X147503068Y-85752310I375000J0D01*
G01*
X148753068Y-85752310D01*
G75*
G02*
X149128068Y-86127310I0J-375000D01*
G01*
G37*
G36*
G01*
X157328068Y-86127310D02*
X157328068Y-86877310D01*
G75*
G02*
X156953068Y-87252310I-375000J0D01*
G01*
X155703068Y-87252310D01*
G75*
G02*
X155328068Y-86877310I0J375000D01*
G01*
X155328068Y-86127310D01*
G75*
G02*
X155703068Y-85752310I375000J0D01*
G01*
X156953068Y-85752310D01*
G75*
G02*
X157328068Y-86127310I0J-375000D01*
G01*
G37*
%TD*%
D14*
%TO.C,TP5*%
X169138600Y-99085400D03*
%TD*%
%TO.C,TP4*%
X181345840Y-99146360D03*
%TD*%
%TO.C,TP3*%
X181345840Y-96047560D03*
%TD*%
%TO.C,TP2*%
X184444640Y-96047560D03*
%TD*%
%TO.C,TP1*%
X184444640Y-99146360D03*
%TD*%
%TO.C,SW2*%
G36*
G01*
X149128068Y-81327755D02*
X149128068Y-82077755D01*
G75*
G02*
X148753068Y-82452755I-375000J0D01*
G01*
X147503068Y-82452755D01*
G75*
G02*
X147128068Y-82077755I0J375000D01*
G01*
X147128068Y-81327755D01*
G75*
G02*
X147503068Y-80952755I375000J0D01*
G01*
X148753068Y-80952755D01*
G75*
G02*
X149128068Y-81327755I0J-375000D01*
G01*
G37*
G36*
G01*
X157328068Y-81327755D02*
X157328068Y-82077755D01*
G75*
G02*
X156953068Y-82452755I-375000J0D01*
G01*
X155703068Y-82452755D01*
G75*
G02*
X155328068Y-82077755I0J375000D01*
G01*
X155328068Y-81327755D01*
G75*
G02*
X155703068Y-80952755I375000J0D01*
G01*
X156953068Y-80952755D01*
G75*
G02*
X157328068Y-81327755I0J-375000D01*
G01*
G37*
%TD*%
%TO.C,SW1*%
G36*
G01*
X149128068Y-76528200D02*
X149128068Y-77278200D01*
G75*
G02*
X148753068Y-77653200I-375000J0D01*
G01*
X147503068Y-77653200D01*
G75*
G02*
X147128068Y-77278200I0J375000D01*
G01*
X147128068Y-76528200D01*
G75*
G02*
X147503068Y-76153200I375000J0D01*
G01*
X148753068Y-76153200D01*
G75*
G02*
X149128068Y-76528200I0J-375000D01*
G01*
G37*
G36*
G01*
X157328068Y-76528200D02*
X157328068Y-77278200D01*
G75*
G02*
X156953068Y-77653200I-375000J0D01*
G01*
X155703068Y-77653200D01*
G75*
G02*
X155328068Y-77278200I0J375000D01*
G01*
X155328068Y-76528200D01*
G75*
G02*
X155703068Y-76153200I375000J0D01*
G01*
X156953068Y-76153200D01*
G75*
G02*
X157328068Y-76528200I0J-375000D01*
G01*
G37*
%TD*%
D15*
%TO.C,J1*%
X178734600Y-99369400D03*
X171734600Y-99369400D03*
D16*
X178134600Y-99369400D03*
X172334600Y-99369400D03*
D17*
X176234600Y-99369400D03*
X174234600Y-99369400D03*
D18*
X177734600Y-96669400D03*
X172734600Y-96669400D03*
D19*
X176534600Y-96669400D03*
X175884600Y-96669400D03*
X175234600Y-96669400D03*
X174584600Y-96669400D03*
X173934600Y-96669400D03*
%TD*%
D20*
%TO.C,IC6*%
X157962600Y-65100200D03*
D21*
X156057600Y-61200200D03*
X157327600Y-61200200D03*
X158597600Y-61200200D03*
X159867600Y-61200200D03*
X159867600Y-69000200D03*
X158597600Y-69000200D03*
X157327600Y-69000200D03*
X156057600Y-69000200D03*
%TD*%
D22*
%TO.C,IC1*%
X174523400Y-70891400D03*
D23*
X170323400Y-65941400D03*
X170723400Y-65941400D03*
X171123400Y-65941400D03*
X171523400Y-65941400D03*
X171923400Y-65941400D03*
X172323400Y-65941400D03*
X172723400Y-65941400D03*
X173123400Y-65941400D03*
X173523400Y-65941400D03*
X173923400Y-65941400D03*
X174323400Y-65941400D03*
X174723400Y-65941400D03*
X175123400Y-65941400D03*
X175523400Y-65941400D03*
X175923400Y-65941400D03*
X176323400Y-65941400D03*
X176723400Y-65941400D03*
X177123400Y-65941400D03*
X177523400Y-65941400D03*
X177923400Y-65941400D03*
X178323400Y-65941400D03*
X178723400Y-65941400D03*
D24*
X179473400Y-66691400D03*
X179473400Y-67091400D03*
X179473400Y-67491400D03*
X179473400Y-67891400D03*
X179473400Y-68291400D03*
X179473400Y-68691400D03*
X179473400Y-69091400D03*
X179473400Y-69491400D03*
X179473400Y-69891400D03*
X179473400Y-70291400D03*
X179473400Y-70691400D03*
X179473400Y-71091400D03*
X179473400Y-71491400D03*
X179473400Y-71891400D03*
X179473400Y-72291400D03*
X179473400Y-72691400D03*
X179473400Y-73091400D03*
X179473400Y-73491400D03*
X179473400Y-73891400D03*
X179473400Y-74291400D03*
X179473400Y-74691400D03*
X179473400Y-75091400D03*
D23*
X178723400Y-75841400D03*
X178323400Y-75841400D03*
X177923400Y-75841400D03*
X177523400Y-75841400D03*
X177123400Y-75841400D03*
X176723400Y-75841400D03*
X176323400Y-75841400D03*
X175923400Y-75841400D03*
X175523400Y-75841400D03*
X175123400Y-75841400D03*
X174723400Y-75841400D03*
X174323400Y-75841400D03*
X173923400Y-75841400D03*
X173523400Y-75841400D03*
X173123400Y-75841400D03*
X172723400Y-75841400D03*
X172323400Y-75841400D03*
X171923400Y-75841400D03*
X171523400Y-75841400D03*
X171123400Y-75841400D03*
X170723400Y-75841400D03*
X170323400Y-75841400D03*
D24*
X169573400Y-75091400D03*
X169573400Y-74691400D03*
X169573400Y-74291400D03*
X169573400Y-73891400D03*
X169573400Y-73491400D03*
X169573400Y-73091400D03*
X169573400Y-72691400D03*
X169573400Y-72291400D03*
X169573400Y-71891400D03*
X169573400Y-71491400D03*
X169573400Y-71091400D03*
X169573400Y-70691400D03*
X169573400Y-70291400D03*
X169573400Y-69891400D03*
X169573400Y-69491400D03*
X169573400Y-69091400D03*
X169573400Y-68691400D03*
X169573400Y-68291400D03*
X169573400Y-67891400D03*
X169573400Y-67491400D03*
X169573400Y-67091400D03*
X169573400Y-66691400D03*
%TD*%
D25*
%TO.C,D1*%
X159612380Y-96389140D03*
X160412380Y-96389140D03*
X159612380Y-95589140D03*
X160412380Y-95589140D03*
%TD*%
%TO.C,Y1*%
G36*
G01*
X186707400Y-70593200D02*
X185707400Y-70593200D01*
G75*
G02*
X185207400Y-70093200I0J500000D01*
G01*
X185207400Y-65593200D01*
G75*
G02*
X185707400Y-65093200I500000J0D01*
G01*
X186707400Y-65093200D01*
G75*
G02*
X187207400Y-65593200I0J-500000D01*
G01*
X187207400Y-70093200D01*
G75*
G02*
X186707400Y-70593200I-500000J0D01*
G01*
G37*
G36*
G01*
X186707400Y-80093200D02*
X185707400Y-80093200D01*
G75*
G02*
X185207400Y-79593200I0J500000D01*
G01*
X185207400Y-75093200D01*
G75*
G02*
X185707400Y-74593200I500000J0D01*
G01*
X186707400Y-74593200D01*
G75*
G02*
X187207400Y-75093200I0J-500000D01*
G01*
X187207400Y-79593200D01*
G75*
G02*
X186707400Y-80093200I-500000J0D01*
G01*
G37*
%TD*%
%TO.C,C1*%
G36*
G01*
X177604480Y-65003960D02*
X177294480Y-65003960D01*
G75*
G02*
X177139480Y-64848960I0J155000D01*
G01*
X177139480Y-64423960D01*
G75*
G02*
X177294480Y-64268960I155000J0D01*
G01*
X177604480Y-64268960D01*
G75*
G02*
X177759480Y-64423960I0J-155000D01*
G01*
X177759480Y-64848960D01*
G75*
G02*
X177604480Y-65003960I-155000J0D01*
G01*
G37*
G36*
G01*
X177604480Y-63868960D02*
X177294480Y-63868960D01*
G75*
G02*
X177139480Y-63713960I0J155000D01*
G01*
X177139480Y-63288960D01*
G75*
G02*
X177294480Y-63133960I155000J0D01*
G01*
X177604480Y-63133960D01*
G75*
G02*
X177759480Y-63288960I0J-155000D01*
G01*
X177759480Y-63713960D01*
G75*
G02*
X177604480Y-63868960I-155000J0D01*
G01*
G37*
%TD*%
%TO.C,C2*%
G36*
G01*
X174150080Y-63310160D02*
X173840080Y-63310160D01*
G75*
G02*
X173685080Y-63155160I0J155000D01*
G01*
X173685080Y-62730160D01*
G75*
G02*
X173840080Y-62575160I155000J0D01*
G01*
X174150080Y-62575160D01*
G75*
G02*
X174305080Y-62730160I0J-155000D01*
G01*
X174305080Y-63155160D01*
G75*
G02*
X174150080Y-63310160I-155000J0D01*
G01*
G37*
G36*
G01*
X174150080Y-64445160D02*
X173840080Y-64445160D01*
G75*
G02*
X173685080Y-64290160I0J155000D01*
G01*
X173685080Y-63865160D01*
G75*
G02*
X173840080Y-63710160I155000J0D01*
G01*
X174150080Y-63710160D01*
G75*
G02*
X174305080Y-63865160I0J-155000D01*
G01*
X174305080Y-64290160D01*
G75*
G02*
X174150080Y-64445160I-155000J0D01*
G01*
G37*
%TD*%
%TO.C,C3*%
G36*
G01*
X176018800Y-77244000D02*
X176018800Y-76934000D01*
G75*
G02*
X176173800Y-76779000I155000J0D01*
G01*
X176598800Y-76779000D01*
G75*
G02*
X176753800Y-76934000I0J-155000D01*
G01*
X176753800Y-77244000D01*
G75*
G02*
X176598800Y-77399000I-155000J0D01*
G01*
X176173800Y-77399000D01*
G75*
G02*
X176018800Y-77244000I0J155000D01*
G01*
G37*
G36*
G01*
X174883800Y-77244000D02*
X174883800Y-76934000D01*
G75*
G02*
X175038800Y-76779000I155000J0D01*
G01*
X175463800Y-76779000D01*
G75*
G02*
X175618800Y-76934000I0J-155000D01*
G01*
X175618800Y-77244000D01*
G75*
G02*
X175463800Y-77399000I-155000J0D01*
G01*
X175038800Y-77399000D01*
G75*
G02*
X174883800Y-77244000I0J155000D01*
G01*
G37*
%TD*%
%TO.C,C4*%
G36*
G01*
X173477200Y-76959400D02*
X173477200Y-77269400D01*
G75*
G02*
X173322200Y-77424400I-155000J0D01*
G01*
X172897200Y-77424400D01*
G75*
G02*
X172742200Y-77269400I0J155000D01*
G01*
X172742200Y-76959400D01*
G75*
G02*
X172897200Y-76804400I155000J0D01*
G01*
X173322200Y-76804400D01*
G75*
G02*
X173477200Y-76959400I0J-155000D01*
G01*
G37*
G36*
G01*
X172342200Y-76959400D02*
X172342200Y-77269400D01*
G75*
G02*
X172187200Y-77424400I-155000J0D01*
G01*
X171762200Y-77424400D01*
G75*
G02*
X171607200Y-77269400I0J155000D01*
G01*
X171607200Y-76959400D01*
G75*
G02*
X171762200Y-76804400I155000J0D01*
G01*
X172187200Y-76804400D01*
G75*
G02*
X172342200Y-76959400I0J-155000D01*
G01*
G37*
%TD*%
%TO.C,C5*%
G36*
G01*
X172342200Y-78013500D02*
X172342200Y-78323500D01*
G75*
G02*
X172187200Y-78478500I-155000J0D01*
G01*
X171762200Y-78478500D01*
G75*
G02*
X171607200Y-78323500I0J155000D01*
G01*
X171607200Y-78013500D01*
G75*
G02*
X171762200Y-77858500I155000J0D01*
G01*
X172187200Y-77858500D01*
G75*
G02*
X172342200Y-78013500I0J-155000D01*
G01*
G37*
G36*
G01*
X173477200Y-78013500D02*
X173477200Y-78323500D01*
G75*
G02*
X173322200Y-78478500I-155000J0D01*
G01*
X172897200Y-78478500D01*
G75*
G02*
X172742200Y-78323500I0J155000D01*
G01*
X172742200Y-78013500D01*
G75*
G02*
X172897200Y-77858500I155000J0D01*
G01*
X173322200Y-77858500D01*
G75*
G02*
X173477200Y-78013500I0J-155000D01*
G01*
G37*
%TD*%
%TO.C,C6*%
G36*
G01*
X172342200Y-79093000D02*
X172342200Y-79403000D01*
G75*
G02*
X172187200Y-79558000I-155000J0D01*
G01*
X171762200Y-79558000D01*
G75*
G02*
X171607200Y-79403000I0J155000D01*
G01*
X171607200Y-79093000D01*
G75*
G02*
X171762200Y-78938000I155000J0D01*
G01*
X172187200Y-78938000D01*
G75*
G02*
X172342200Y-79093000I0J-155000D01*
G01*
G37*
G36*
G01*
X173477200Y-79093000D02*
X173477200Y-79403000D01*
G75*
G02*
X173322200Y-79558000I-155000J0D01*
G01*
X172897200Y-79558000D01*
G75*
G02*
X172742200Y-79403000I0J155000D01*
G01*
X172742200Y-79093000D01*
G75*
G02*
X172897200Y-78938000I155000J0D01*
G01*
X173322200Y-78938000D01*
G75*
G02*
X173477200Y-79093000I0J-155000D01*
G01*
G37*
%TD*%
%TO.C,C7*%
G36*
G01*
X174007500Y-80495200D02*
X174007500Y-80185200D01*
G75*
G02*
X174162500Y-80030200I155000J0D01*
G01*
X174587500Y-80030200D01*
G75*
G02*
X174742500Y-80185200I0J-155000D01*
G01*
X174742500Y-80495200D01*
G75*
G02*
X174587500Y-80650200I-155000J0D01*
G01*
X174162500Y-80650200D01*
G75*
G02*
X174007500Y-80495200I0J155000D01*
G01*
G37*
G36*
G01*
X175142500Y-80495200D02*
X175142500Y-80185200D01*
G75*
G02*
X175297500Y-80030200I155000J0D01*
G01*
X175722500Y-80030200D01*
G75*
G02*
X175877500Y-80185200I0J-155000D01*
G01*
X175877500Y-80495200D01*
G75*
G02*
X175722500Y-80650200I-155000J0D01*
G01*
X175297500Y-80650200D01*
G75*
G02*
X175142500Y-80495200I0J155000D01*
G01*
G37*
%TD*%
%TO.C,C10*%
G36*
G01*
X172342200Y-80134400D02*
X172342200Y-80444400D01*
G75*
G02*
X172187200Y-80599400I-155000J0D01*
G01*
X171762200Y-80599400D01*
G75*
G02*
X171607200Y-80444400I0J155000D01*
G01*
X171607200Y-80134400D01*
G75*
G02*
X171762200Y-79979400I155000J0D01*
G01*
X172187200Y-79979400D01*
G75*
G02*
X172342200Y-80134400I0J-155000D01*
G01*
G37*
G36*
G01*
X173477200Y-80134400D02*
X173477200Y-80444400D01*
G75*
G02*
X173322200Y-80599400I-155000J0D01*
G01*
X172897200Y-80599400D01*
G75*
G02*
X172742200Y-80444400I0J155000D01*
G01*
X172742200Y-80134400D01*
G75*
G02*
X172897200Y-79979400I155000J0D01*
G01*
X173322200Y-79979400D01*
G75*
G02*
X173477200Y-80134400I0J-155000D01*
G01*
G37*
%TD*%
%TO.C,C11*%
G36*
G01*
X168613100Y-68539300D02*
X168613100Y-68849300D01*
G75*
G02*
X168458100Y-69004300I-155000J0D01*
G01*
X168033100Y-69004300D01*
G75*
G02*
X167878100Y-68849300I0J155000D01*
G01*
X167878100Y-68539300D01*
G75*
G02*
X168033100Y-68384300I155000J0D01*
G01*
X168458100Y-68384300D01*
G75*
G02*
X168613100Y-68539300I0J-155000D01*
G01*
G37*
G36*
G01*
X167478100Y-68539300D02*
X167478100Y-68849300D01*
G75*
G02*
X167323100Y-69004300I-155000J0D01*
G01*
X166898100Y-69004300D01*
G75*
G02*
X166743100Y-68849300I0J155000D01*
G01*
X166743100Y-68539300D01*
G75*
G02*
X166898100Y-68384300I155000J0D01*
G01*
X167323100Y-68384300D01*
G75*
G02*
X167478100Y-68539300I0J-155000D01*
G01*
G37*
%TD*%
%TO.C,C12*%
G36*
G01*
X182089400Y-73243500D02*
X182089400Y-72933500D01*
G75*
G02*
X182244400Y-72778500I155000J0D01*
G01*
X182669400Y-72778500D01*
G75*
G02*
X182824400Y-72933500I0J-155000D01*
G01*
X182824400Y-73243500D01*
G75*
G02*
X182669400Y-73398500I-155000J0D01*
G01*
X182244400Y-73398500D01*
G75*
G02*
X182089400Y-73243500I0J155000D01*
G01*
G37*
G36*
G01*
X180954400Y-73243500D02*
X180954400Y-72933500D01*
G75*
G02*
X181109400Y-72778500I155000J0D01*
G01*
X181534400Y-72778500D01*
G75*
G02*
X181689400Y-72933500I0J-155000D01*
G01*
X181689400Y-73243500D01*
G75*
G02*
X181534400Y-73398500I-155000J0D01*
G01*
X181109400Y-73398500D01*
G75*
G02*
X180954400Y-73243500I0J155000D01*
G01*
G37*
%TD*%
%TO.C,C13*%
G36*
G01*
X167478100Y-67523300D02*
X167478100Y-67833300D01*
G75*
G02*
X167323100Y-67988300I-155000J0D01*
G01*
X166898100Y-67988300D01*
G75*
G02*
X166743100Y-67833300I0J155000D01*
G01*
X166743100Y-67523300D01*
G75*
G02*
X166898100Y-67368300I155000J0D01*
G01*
X167323100Y-67368300D01*
G75*
G02*
X167478100Y-67523300I0J-155000D01*
G01*
G37*
G36*
G01*
X168613100Y-67523300D02*
X168613100Y-67833300D01*
G75*
G02*
X168458100Y-67988300I-155000J0D01*
G01*
X168033100Y-67988300D01*
G75*
G02*
X167878100Y-67833300I0J155000D01*
G01*
X167878100Y-67523300D01*
G75*
G02*
X168033100Y-67368300I155000J0D01*
G01*
X168458100Y-67368300D01*
G75*
G02*
X168613100Y-67523300I0J-155000D01*
G01*
G37*
%TD*%
%TO.C,C14*%
G36*
G01*
X178338200Y-63761680D02*
X178338200Y-63451680D01*
G75*
G02*
X178493200Y-63296680I155000J0D01*
G01*
X178918200Y-63296680D01*
G75*
G02*
X179073200Y-63451680I0J-155000D01*
G01*
X179073200Y-63761680D01*
G75*
G02*
X178918200Y-63916680I-155000J0D01*
G01*
X178493200Y-63916680D01*
G75*
G02*
X178338200Y-63761680I0J155000D01*
G01*
G37*
G36*
G01*
X179473200Y-63761680D02*
X179473200Y-63451680D01*
G75*
G02*
X179628200Y-63296680I155000J0D01*
G01*
X180053200Y-63296680D01*
G75*
G02*
X180208200Y-63451680I0J-155000D01*
G01*
X180208200Y-63761680D01*
G75*
G02*
X180053200Y-63916680I-155000J0D01*
G01*
X179628200Y-63916680D01*
G75*
G02*
X179473200Y-63761680I0J155000D01*
G01*
G37*
%TD*%
%TO.C,C15*%
G36*
G01*
X168318460Y-74124760D02*
X168318460Y-74434760D01*
G75*
G02*
X168163460Y-74589760I-155000J0D01*
G01*
X167738460Y-74589760D01*
G75*
G02*
X167583460Y-74434760I0J155000D01*
G01*
X167583460Y-74124760D01*
G75*
G02*
X167738460Y-73969760I155000J0D01*
G01*
X168163460Y-73969760D01*
G75*
G02*
X168318460Y-74124760I0J-155000D01*
G01*
G37*
G36*
G01*
X167183460Y-74124760D02*
X167183460Y-74434760D01*
G75*
G02*
X167028460Y-74589760I-155000J0D01*
G01*
X166603460Y-74589760D01*
G75*
G02*
X166448460Y-74434760I0J155000D01*
G01*
X166448460Y-74124760D01*
G75*
G02*
X166603460Y-73969760I155000J0D01*
G01*
X167028460Y-73969760D01*
G75*
G02*
X167183460Y-74124760I0J-155000D01*
G01*
G37*
%TD*%
%TO.C,C16*%
G36*
G01*
X175568000Y-63477080D02*
X175568000Y-63787080D01*
G75*
G02*
X175413000Y-63942080I-155000J0D01*
G01*
X174988000Y-63942080D01*
G75*
G02*
X174833000Y-63787080I0J155000D01*
G01*
X174833000Y-63477080D01*
G75*
G02*
X174988000Y-63322080I155000J0D01*
G01*
X175413000Y-63322080D01*
G75*
G02*
X175568000Y-63477080I0J-155000D01*
G01*
G37*
G36*
G01*
X176703000Y-63477080D02*
X176703000Y-63787080D01*
G75*
G02*
X176548000Y-63942080I-155000J0D01*
G01*
X176123000Y-63942080D01*
G75*
G02*
X175968000Y-63787080I0J155000D01*
G01*
X175968000Y-63477080D01*
G75*
G02*
X176123000Y-63322080I155000J0D01*
G01*
X176548000Y-63322080D01*
G75*
G02*
X176703000Y-63477080I0J-155000D01*
G01*
G37*
%TD*%
%TO.C,C17*%
G36*
G01*
X173741120Y-53901400D02*
X173741120Y-53591400D01*
G75*
G02*
X173896120Y-53436400I155000J0D01*
G01*
X174321120Y-53436400D01*
G75*
G02*
X174476120Y-53591400I0J-155000D01*
G01*
X174476120Y-53901400D01*
G75*
G02*
X174321120Y-54056400I-155000J0D01*
G01*
X173896120Y-54056400D01*
G75*
G02*
X173741120Y-53901400I0J155000D01*
G01*
G37*
G36*
G01*
X174876120Y-53901400D02*
X174876120Y-53591400D01*
G75*
G02*
X175031120Y-53436400I155000J0D01*
G01*
X175456120Y-53436400D01*
G75*
G02*
X175611120Y-53591400I0J-155000D01*
G01*
X175611120Y-53901400D01*
G75*
G02*
X175456120Y-54056400I-155000J0D01*
G01*
X175031120Y-54056400D01*
G75*
G02*
X174876120Y-53901400I0J155000D01*
G01*
G37*
%TD*%
%TO.C,C18*%
G36*
G01*
X166724620Y-52517100D02*
X166724620Y-52207100D01*
G75*
G02*
X166879620Y-52052100I155000J0D01*
G01*
X167304620Y-52052100D01*
G75*
G02*
X167459620Y-52207100I0J-155000D01*
G01*
X167459620Y-52517100D01*
G75*
G02*
X167304620Y-52672100I-155000J0D01*
G01*
X166879620Y-52672100D01*
G75*
G02*
X166724620Y-52517100I0J155000D01*
G01*
G37*
G36*
G01*
X165589620Y-52517100D02*
X165589620Y-52207100D01*
G75*
G02*
X165744620Y-52052100I155000J0D01*
G01*
X166169620Y-52052100D01*
G75*
G02*
X166324620Y-52207100I0J-155000D01*
G01*
X166324620Y-52517100D01*
G75*
G02*
X166169620Y-52672100I-155000J0D01*
G01*
X165744620Y-52672100D01*
G75*
G02*
X165589620Y-52517100I0J155000D01*
G01*
G37*
%TD*%
%TO.C,C19*%
G36*
G01*
X169943720Y-53319400D02*
X170253720Y-53319400D01*
G75*
G02*
X170408720Y-53474400I0J-155000D01*
G01*
X170408720Y-53899400D01*
G75*
G02*
X170253720Y-54054400I-155000J0D01*
G01*
X169943720Y-54054400D01*
G75*
G02*
X169788720Y-53899400I0J155000D01*
G01*
X169788720Y-53474400D01*
G75*
G02*
X169943720Y-53319400I155000J0D01*
G01*
G37*
G36*
G01*
X169943720Y-54454400D02*
X170253720Y-54454400D01*
G75*
G02*
X170408720Y-54609400I0J-155000D01*
G01*
X170408720Y-55034400D01*
G75*
G02*
X170253720Y-55189400I-155000J0D01*
G01*
X169943720Y-55189400D01*
G75*
G02*
X169788720Y-55034400I0J155000D01*
G01*
X169788720Y-54609400D01*
G75*
G02*
X169943720Y-54454400I155000J0D01*
G01*
G37*
%TD*%
%TO.C,C20*%
G36*
G01*
X182885000Y-76315000D02*
X183195000Y-76315000D01*
G75*
G02*
X183350000Y-76470000I0J-155000D01*
G01*
X183350000Y-76895000D01*
G75*
G02*
X183195000Y-77050000I-155000J0D01*
G01*
X182885000Y-77050000D01*
G75*
G02*
X182730000Y-76895000I0J155000D01*
G01*
X182730000Y-76470000D01*
G75*
G02*
X182885000Y-76315000I155000J0D01*
G01*
G37*
G36*
G01*
X182885000Y-77450000D02*
X183195000Y-77450000D01*
G75*
G02*
X183350000Y-77605000I0J-155000D01*
G01*
X183350000Y-78030000D01*
G75*
G02*
X183195000Y-78185000I-155000J0D01*
G01*
X182885000Y-78185000D01*
G75*
G02*
X182730000Y-78030000I0J155000D01*
G01*
X182730000Y-77605000D01*
G75*
G02*
X182885000Y-77450000I155000J0D01*
G01*
G37*
%TD*%
%TO.C,C21*%
G36*
G01*
X170508320Y-55750400D02*
X170508320Y-56060400D01*
G75*
G02*
X170353320Y-56215400I-155000J0D01*
G01*
X169928320Y-56215400D01*
G75*
G02*
X169773320Y-56060400I0J155000D01*
G01*
X169773320Y-55750400D01*
G75*
G02*
X169928320Y-55595400I155000J0D01*
G01*
X170353320Y-55595400D01*
G75*
G02*
X170508320Y-55750400I0J-155000D01*
G01*
G37*
G36*
G01*
X171643320Y-55750400D02*
X171643320Y-56060400D01*
G75*
G02*
X171488320Y-56215400I-155000J0D01*
G01*
X171063320Y-56215400D01*
G75*
G02*
X170908320Y-56060400I0J155000D01*
G01*
X170908320Y-55750400D01*
G75*
G02*
X171063320Y-55595400I155000J0D01*
G01*
X171488320Y-55595400D01*
G75*
G02*
X171643320Y-55750400I0J-155000D01*
G01*
G37*
%TD*%
%TO.C,C22*%
G36*
G01*
X178338200Y-62618680D02*
X178338200Y-62308680D01*
G75*
G02*
X178493200Y-62153680I155000J0D01*
G01*
X178918200Y-62153680D01*
G75*
G02*
X179073200Y-62308680I0J-155000D01*
G01*
X179073200Y-62618680D01*
G75*
G02*
X178918200Y-62773680I-155000J0D01*
G01*
X178493200Y-62773680D01*
G75*
G02*
X178338200Y-62618680I0J155000D01*
G01*
G37*
G36*
G01*
X179473200Y-62618680D02*
X179473200Y-62308680D01*
G75*
G02*
X179628200Y-62153680I155000J0D01*
G01*
X180053200Y-62153680D01*
G75*
G02*
X180208200Y-62308680I0J-155000D01*
G01*
X180208200Y-62618680D01*
G75*
G02*
X180053200Y-62773680I-155000J0D01*
G01*
X179628200Y-62773680D01*
G75*
G02*
X179473200Y-62618680I0J155000D01*
G01*
G37*
%TD*%
%TO.C,C23*%
G36*
G01*
X171162920Y-54467100D02*
X171472920Y-54467100D01*
G75*
G02*
X171627920Y-54622100I0J-155000D01*
G01*
X171627920Y-55047100D01*
G75*
G02*
X171472920Y-55202100I-155000J0D01*
G01*
X171162920Y-55202100D01*
G75*
G02*
X171007920Y-55047100I0J155000D01*
G01*
X171007920Y-54622100D01*
G75*
G02*
X171162920Y-54467100I155000J0D01*
G01*
G37*
G36*
G01*
X171162920Y-53332100D02*
X171472920Y-53332100D01*
G75*
G02*
X171627920Y-53487100I0J-155000D01*
G01*
X171627920Y-53912100D01*
G75*
G02*
X171472920Y-54067100I-155000J0D01*
G01*
X171162920Y-54067100D01*
G75*
G02*
X171007920Y-53912100I0J155000D01*
G01*
X171007920Y-53487100D01*
G75*
G02*
X171162920Y-53332100I155000J0D01*
G01*
G37*
%TD*%
%TO.C,C24*%
G36*
G01*
X183265000Y-67670000D02*
X182955000Y-67670000D01*
G75*
G02*
X182800000Y-67515000I0J155000D01*
G01*
X182800000Y-67090000D01*
G75*
G02*
X182955000Y-66935000I155000J0D01*
G01*
X183265000Y-66935000D01*
G75*
G02*
X183420000Y-67090000I0J-155000D01*
G01*
X183420000Y-67515000D01*
G75*
G02*
X183265000Y-67670000I-155000J0D01*
G01*
G37*
G36*
G01*
X183265000Y-68805000D02*
X182955000Y-68805000D01*
G75*
G02*
X182800000Y-68650000I0J155000D01*
G01*
X182800000Y-68225000D01*
G75*
G02*
X182955000Y-68070000I155000J0D01*
G01*
X183265000Y-68070000D01*
G75*
G02*
X183420000Y-68225000I0J-155000D01*
G01*
X183420000Y-68650000D01*
G75*
G02*
X183265000Y-68805000I-155000J0D01*
G01*
G37*
%TD*%
%TO.C,C25*%
G36*
G01*
X184858000Y-92890400D02*
X184858000Y-92580400D01*
G75*
G02*
X185013000Y-92425400I155000J0D01*
G01*
X185438000Y-92425400D01*
G75*
G02*
X185593000Y-92580400I0J-155000D01*
G01*
X185593000Y-92890400D01*
G75*
G02*
X185438000Y-93045400I-155000J0D01*
G01*
X185013000Y-93045400D01*
G75*
G02*
X184858000Y-92890400I0J155000D01*
G01*
G37*
G36*
G01*
X183723000Y-92890400D02*
X183723000Y-92580400D01*
G75*
G02*
X183878000Y-92425400I155000J0D01*
G01*
X184303000Y-92425400D01*
G75*
G02*
X184458000Y-92580400I0J-155000D01*
G01*
X184458000Y-92890400D01*
G75*
G02*
X184303000Y-93045400I-155000J0D01*
G01*
X183878000Y-93045400D01*
G75*
G02*
X183723000Y-92890400I0J155000D01*
G01*
G37*
%TD*%
%TO.C,C26*%
G36*
G01*
X176873466Y-92890400D02*
X176873466Y-92580400D01*
G75*
G02*
X177028466Y-92425400I155000J0D01*
G01*
X177453466Y-92425400D01*
G75*
G02*
X177608466Y-92580400I0J-155000D01*
G01*
X177608466Y-92890400D01*
G75*
G02*
X177453466Y-93045400I-155000J0D01*
G01*
X177028466Y-93045400D01*
G75*
G02*
X176873466Y-92890400I0J155000D01*
G01*
G37*
G36*
G01*
X178008466Y-92890400D02*
X178008466Y-92580400D01*
G75*
G02*
X178163466Y-92425400I155000J0D01*
G01*
X178588466Y-92425400D01*
G75*
G02*
X178743466Y-92580400I0J-155000D01*
G01*
X178743466Y-92890400D01*
G75*
G02*
X178588466Y-93045400I-155000J0D01*
G01*
X178163466Y-93045400D01*
G75*
G02*
X178008466Y-92890400I0J155000D01*
G01*
G37*
%TD*%
%TO.C,C27*%
G36*
G01*
X171158933Y-92890400D02*
X171158933Y-92580400D01*
G75*
G02*
X171313933Y-92425400I155000J0D01*
G01*
X171738933Y-92425400D01*
G75*
G02*
X171893933Y-92580400I0J-155000D01*
G01*
X171893933Y-92890400D01*
G75*
G02*
X171738933Y-93045400I-155000J0D01*
G01*
X171313933Y-93045400D01*
G75*
G02*
X171158933Y-92890400I0J155000D01*
G01*
G37*
G36*
G01*
X170023933Y-92890400D02*
X170023933Y-92580400D01*
G75*
G02*
X170178933Y-92425400I155000J0D01*
G01*
X170603933Y-92425400D01*
G75*
G02*
X170758933Y-92580400I0J-155000D01*
G01*
X170758933Y-92890400D01*
G75*
G02*
X170603933Y-93045400I-155000J0D01*
G01*
X170178933Y-93045400D01*
G75*
G02*
X170023933Y-92890400I0J155000D01*
G01*
G37*
%TD*%
%TO.C,C28*%
G36*
G01*
X163174400Y-92890400D02*
X163174400Y-92580400D01*
G75*
G02*
X163329400Y-92425400I155000J0D01*
G01*
X163754400Y-92425400D01*
G75*
G02*
X163909400Y-92580400I0J-155000D01*
G01*
X163909400Y-92890400D01*
G75*
G02*
X163754400Y-93045400I-155000J0D01*
G01*
X163329400Y-93045400D01*
G75*
G02*
X163174400Y-92890400I0J155000D01*
G01*
G37*
G36*
G01*
X164309400Y-92890400D02*
X164309400Y-92580400D01*
G75*
G02*
X164464400Y-92425400I155000J0D01*
G01*
X164889400Y-92425400D01*
G75*
G02*
X165044400Y-92580400I0J-155000D01*
G01*
X165044400Y-92890400D01*
G75*
G02*
X164889400Y-93045400I-155000J0D01*
G01*
X164464400Y-93045400D01*
G75*
G02*
X164309400Y-92890400I0J155000D01*
G01*
G37*
%TD*%
%TO.C,C29*%
G36*
G01*
X187322400Y-88777800D02*
X187632400Y-88777800D01*
G75*
G02*
X187787400Y-88932800I0J-155000D01*
G01*
X187787400Y-89357800D01*
G75*
G02*
X187632400Y-89512800I-155000J0D01*
G01*
X187322400Y-89512800D01*
G75*
G02*
X187167400Y-89357800I0J155000D01*
G01*
X187167400Y-88932800D01*
G75*
G02*
X187322400Y-88777800I155000J0D01*
G01*
G37*
G36*
G01*
X187322400Y-89912800D02*
X187632400Y-89912800D01*
G75*
G02*
X187787400Y-90067800I0J-155000D01*
G01*
X187787400Y-90492800D01*
G75*
G02*
X187632400Y-90647800I-155000J0D01*
G01*
X187322400Y-90647800D01*
G75*
G02*
X187167400Y-90492800I0J155000D01*
G01*
X187167400Y-90067800D01*
G75*
G02*
X187322400Y-89912800I155000J0D01*
G01*
G37*
%TD*%
%TO.C,C30*%
G36*
G01*
X180776455Y-89912800D02*
X181086455Y-89912800D01*
G75*
G02*
X181241455Y-90067800I0J-155000D01*
G01*
X181241455Y-90492800D01*
G75*
G02*
X181086455Y-90647800I-155000J0D01*
G01*
X180776455Y-90647800D01*
G75*
G02*
X180621455Y-90492800I0J155000D01*
G01*
X180621455Y-90067800D01*
G75*
G02*
X180776455Y-89912800I155000J0D01*
G01*
G37*
G36*
G01*
X180776455Y-88777800D02*
X181086455Y-88777800D01*
G75*
G02*
X181241455Y-88932800I0J-155000D01*
G01*
X181241455Y-89357800D01*
G75*
G02*
X181086455Y-89512800I-155000J0D01*
G01*
X180776455Y-89512800D01*
G75*
G02*
X180621455Y-89357800I0J155000D01*
G01*
X180621455Y-88932800D01*
G75*
G02*
X180776455Y-88777800I155000J0D01*
G01*
G37*
%TD*%
%TO.C,C31*%
G36*
G01*
X174230513Y-88777800D02*
X174540513Y-88777800D01*
G75*
G02*
X174695513Y-88932800I0J-155000D01*
G01*
X174695513Y-89357800D01*
G75*
G02*
X174540513Y-89512800I-155000J0D01*
G01*
X174230513Y-89512800D01*
G75*
G02*
X174075513Y-89357800I0J155000D01*
G01*
X174075513Y-88932800D01*
G75*
G02*
X174230513Y-88777800I155000J0D01*
G01*
G37*
G36*
G01*
X174230513Y-89912800D02*
X174540513Y-89912800D01*
G75*
G02*
X174695513Y-90067800I0J-155000D01*
G01*
X174695513Y-90492800D01*
G75*
G02*
X174540513Y-90647800I-155000J0D01*
G01*
X174230513Y-90647800D01*
G75*
G02*
X174075513Y-90492800I0J155000D01*
G01*
X174075513Y-90067800D01*
G75*
G02*
X174230513Y-89912800I155000J0D01*
G01*
G37*
%TD*%
%TO.C,C32*%
G36*
G01*
X167684571Y-89912800D02*
X167994571Y-89912800D01*
G75*
G02*
X168149571Y-90067800I0J-155000D01*
G01*
X168149571Y-90492800D01*
G75*
G02*
X167994571Y-90647800I-155000J0D01*
G01*
X167684571Y-90647800D01*
G75*
G02*
X167529571Y-90492800I0J155000D01*
G01*
X167529571Y-90067800D01*
G75*
G02*
X167684571Y-89912800I155000J0D01*
G01*
G37*
G36*
G01*
X167684571Y-88777800D02*
X167994571Y-88777800D01*
G75*
G02*
X168149571Y-88932800I0J-155000D01*
G01*
X168149571Y-89357800D01*
G75*
G02*
X167994571Y-89512800I-155000J0D01*
G01*
X167684571Y-89512800D01*
G75*
G02*
X167529571Y-89357800I0J155000D01*
G01*
X167529571Y-88932800D01*
G75*
G02*
X167684571Y-88777800I155000J0D01*
G01*
G37*
%TD*%
%TO.C,C33*%
G36*
G01*
X172596200Y-94536200D02*
X172596200Y-94846200D01*
G75*
G02*
X172441200Y-95001200I-155000J0D01*
G01*
X172016200Y-95001200D01*
G75*
G02*
X171861200Y-94846200I0J155000D01*
G01*
X171861200Y-94536200D01*
G75*
G02*
X172016200Y-94381200I155000J0D01*
G01*
X172441200Y-94381200D01*
G75*
G02*
X172596200Y-94536200I0J-155000D01*
G01*
G37*
G36*
G01*
X173731200Y-94536200D02*
X173731200Y-94846200D01*
G75*
G02*
X173576200Y-95001200I-155000J0D01*
G01*
X173151200Y-95001200D01*
G75*
G02*
X172996200Y-94846200I0J155000D01*
G01*
X172996200Y-94536200D01*
G75*
G02*
X173151200Y-94381200I155000J0D01*
G01*
X173576200Y-94381200D01*
G75*
G02*
X173731200Y-94536200I0J-155000D01*
G01*
G37*
%TD*%
%TO.C,C34*%
G36*
G01*
X156275760Y-59448760D02*
X156275760Y-59138760D01*
G75*
G02*
X156430760Y-58983760I155000J0D01*
G01*
X156855760Y-58983760D01*
G75*
G02*
X157010760Y-59138760I0J-155000D01*
G01*
X157010760Y-59448760D01*
G75*
G02*
X156855760Y-59603760I-155000J0D01*
G01*
X156430760Y-59603760D01*
G75*
G02*
X156275760Y-59448760I0J155000D01*
G01*
G37*
G36*
G01*
X157410760Y-59448760D02*
X157410760Y-59138760D01*
G75*
G02*
X157565760Y-58983760I155000J0D01*
G01*
X157990760Y-58983760D01*
G75*
G02*
X158145760Y-59138760I0J-155000D01*
G01*
X158145760Y-59448760D01*
G75*
G02*
X157990760Y-59603760I-155000J0D01*
G01*
X157565760Y-59603760D01*
G75*
G02*
X157410760Y-59448760I0J155000D01*
G01*
G37*
%TD*%
%TO.C,C35*%
G36*
G01*
X174875800Y-52875240D02*
X174875800Y-52565240D01*
G75*
G02*
X175030800Y-52410240I155000J0D01*
G01*
X175455800Y-52410240D01*
G75*
G02*
X175610800Y-52565240I0J-155000D01*
G01*
X175610800Y-52875240D01*
G75*
G02*
X175455800Y-53030240I-155000J0D01*
G01*
X175030800Y-53030240D01*
G75*
G02*
X174875800Y-52875240I0J155000D01*
G01*
G37*
G36*
G01*
X173740800Y-52875240D02*
X173740800Y-52565240D01*
G75*
G02*
X173895800Y-52410240I155000J0D01*
G01*
X174320800Y-52410240D01*
G75*
G02*
X174475800Y-52565240I0J-155000D01*
G01*
X174475800Y-52875240D01*
G75*
G02*
X174320800Y-53030240I-155000J0D01*
G01*
X173895800Y-53030240D01*
G75*
G02*
X173740800Y-52875240I0J155000D01*
G01*
G37*
%TD*%
%TO.C,C36*%
G36*
G01*
X177868320Y-52875240D02*
X177868320Y-52565240D01*
G75*
G02*
X178023320Y-52410240I155000J0D01*
G01*
X178448320Y-52410240D01*
G75*
G02*
X178603320Y-52565240I0J-155000D01*
G01*
X178603320Y-52875240D01*
G75*
G02*
X178448320Y-53030240I-155000J0D01*
G01*
X178023320Y-53030240D01*
G75*
G02*
X177868320Y-52875240I0J155000D01*
G01*
G37*
G36*
G01*
X179003320Y-52875240D02*
X179003320Y-52565240D01*
G75*
G02*
X179158320Y-52410240I155000J0D01*
G01*
X179583320Y-52410240D01*
G75*
G02*
X179738320Y-52565240I0J-155000D01*
G01*
X179738320Y-52875240D01*
G75*
G02*
X179583320Y-53030240I-155000J0D01*
G01*
X179158320Y-53030240D01*
G75*
G02*
X179003320Y-52875240I0J155000D01*
G01*
G37*
%TD*%
%TO.C,C37*%
G36*
G01*
X183353320Y-52875240D02*
X183353320Y-52565240D01*
G75*
G02*
X183508320Y-52410240I155000J0D01*
G01*
X183933320Y-52410240D01*
G75*
G02*
X184088320Y-52565240I0J-155000D01*
G01*
X184088320Y-52875240D01*
G75*
G02*
X183933320Y-53030240I-155000J0D01*
G01*
X183508320Y-53030240D01*
G75*
G02*
X183353320Y-52875240I0J155000D01*
G01*
G37*
G36*
G01*
X182218320Y-52875240D02*
X182218320Y-52565240D01*
G75*
G02*
X182373320Y-52410240I155000J0D01*
G01*
X182798320Y-52410240D01*
G75*
G02*
X182953320Y-52565240I0J-155000D01*
G01*
X182953320Y-52875240D01*
G75*
G02*
X182798320Y-53030240I-155000J0D01*
G01*
X182373320Y-53030240D01*
G75*
G02*
X182218320Y-52875240I0J155000D01*
G01*
G37*
%TD*%
%TO.C,C38*%
G36*
G01*
X158061600Y-91368600D02*
X158371600Y-91368600D01*
G75*
G02*
X158526600Y-91523600I0J-155000D01*
G01*
X158526600Y-91948600D01*
G75*
G02*
X158371600Y-92103600I-155000J0D01*
G01*
X158061600Y-92103600D01*
G75*
G02*
X157906600Y-91948600I0J155000D01*
G01*
X157906600Y-91523600D01*
G75*
G02*
X158061600Y-91368600I155000J0D01*
G01*
G37*
G36*
G01*
X158061600Y-92503600D02*
X158371600Y-92503600D01*
G75*
G02*
X158526600Y-92658600I0J-155000D01*
G01*
X158526600Y-93083600D01*
G75*
G02*
X158371600Y-93238600I-155000J0D01*
G01*
X158061600Y-93238600D01*
G75*
G02*
X157906600Y-93083600I0J155000D01*
G01*
X157906600Y-92658600D01*
G75*
G02*
X158061600Y-92503600I155000J0D01*
G01*
G37*
%TD*%
%TO.C,C39*%
G36*
G01*
X158061600Y-86314000D02*
X158371600Y-86314000D01*
G75*
G02*
X158526600Y-86469000I0J-155000D01*
G01*
X158526600Y-86894000D01*
G75*
G02*
X158371600Y-87049000I-155000J0D01*
G01*
X158061600Y-87049000D01*
G75*
G02*
X157906600Y-86894000I0J155000D01*
G01*
X157906600Y-86469000D01*
G75*
G02*
X158061600Y-86314000I155000J0D01*
G01*
G37*
G36*
G01*
X158061600Y-87449000D02*
X158371600Y-87449000D01*
G75*
G02*
X158526600Y-87604000I0J-155000D01*
G01*
X158526600Y-88029000D01*
G75*
G02*
X158371600Y-88184000I-155000J0D01*
G01*
X158061600Y-88184000D01*
G75*
G02*
X157906600Y-88029000I0J155000D01*
G01*
X157906600Y-87604000D01*
G75*
G02*
X158061600Y-87449000I155000J0D01*
G01*
G37*
%TD*%
%TO.C,C40*%
G36*
G01*
X158061600Y-82851600D02*
X158371600Y-82851600D01*
G75*
G02*
X158526600Y-83006600I0J-155000D01*
G01*
X158526600Y-83431600D01*
G75*
G02*
X158371600Y-83586600I-155000J0D01*
G01*
X158061600Y-83586600D01*
G75*
G02*
X157906600Y-83431600I0J155000D01*
G01*
X157906600Y-83006600D01*
G75*
G02*
X158061600Y-82851600I155000J0D01*
G01*
G37*
G36*
G01*
X158061600Y-81716600D02*
X158371600Y-81716600D01*
G75*
G02*
X158526600Y-81871600I0J-155000D01*
G01*
X158526600Y-82296600D01*
G75*
G02*
X158371600Y-82451600I-155000J0D01*
G01*
X158061600Y-82451600D01*
G75*
G02*
X157906600Y-82296600I0J155000D01*
G01*
X157906600Y-81871600D01*
G75*
G02*
X158061600Y-81716600I155000J0D01*
G01*
G37*
%TD*%
%TO.C,C41*%
G36*
G01*
X159671960Y-76956640D02*
X159981960Y-76956640D01*
G75*
G02*
X160136960Y-77111640I0J-155000D01*
G01*
X160136960Y-77536640D01*
G75*
G02*
X159981960Y-77691640I-155000J0D01*
G01*
X159671960Y-77691640D01*
G75*
G02*
X159516960Y-77536640I0J155000D01*
G01*
X159516960Y-77111640D01*
G75*
G02*
X159671960Y-76956640I155000J0D01*
G01*
G37*
G36*
G01*
X159671960Y-78091640D02*
X159981960Y-78091640D01*
G75*
G02*
X160136960Y-78246640I0J-155000D01*
G01*
X160136960Y-78671640D01*
G75*
G02*
X159981960Y-78826640I-155000J0D01*
G01*
X159671960Y-78826640D01*
G75*
G02*
X159516960Y-78671640I0J155000D01*
G01*
X159516960Y-78246640D01*
G75*
G02*
X159671960Y-78091640I155000J0D01*
G01*
G37*
%TD*%
%TO.C,R1*%
G36*
G01*
X173936700Y-79420700D02*
X173936700Y-79100700D01*
G75*
G02*
X174096700Y-78940700I160000J0D01*
G01*
X174491700Y-78940700D01*
G75*
G02*
X174651700Y-79100700I0J-160000D01*
G01*
X174651700Y-79420700D01*
G75*
G02*
X174491700Y-79580700I-160000J0D01*
G01*
X174096700Y-79580700D01*
G75*
G02*
X173936700Y-79420700I0J160000D01*
G01*
G37*
G36*
G01*
X175131700Y-79420700D02*
X175131700Y-79100700D01*
G75*
G02*
X175291700Y-78940700I160000J0D01*
G01*
X175686700Y-78940700D01*
G75*
G02*
X175846700Y-79100700I0J-160000D01*
G01*
X175846700Y-79420700D01*
G75*
G02*
X175686700Y-79580700I-160000J0D01*
G01*
X175291700Y-79580700D01*
G75*
G02*
X175131700Y-79420700I0J160000D01*
G01*
G37*
%TD*%
%TO.C,R2*%
G36*
G01*
X175106300Y-78315800D02*
X175106300Y-77995800D01*
G75*
G02*
X175266300Y-77835800I160000J0D01*
G01*
X175661300Y-77835800D01*
G75*
G02*
X175821300Y-77995800I0J-160000D01*
G01*
X175821300Y-78315800D01*
G75*
G02*
X175661300Y-78475800I-160000J0D01*
G01*
X175266300Y-78475800D01*
G75*
G02*
X175106300Y-78315800I0J160000D01*
G01*
G37*
G36*
G01*
X173911300Y-78315800D02*
X173911300Y-77995800D01*
G75*
G02*
X174071300Y-77835800I160000J0D01*
G01*
X174466300Y-77835800D01*
G75*
G02*
X174626300Y-77995800I0J-160000D01*
G01*
X174626300Y-78315800D01*
G75*
G02*
X174466300Y-78475800I-160000J0D01*
G01*
X174071300Y-78475800D01*
G75*
G02*
X173911300Y-78315800I0J160000D01*
G01*
G37*
%TD*%
%TO.C,R3*%
G36*
G01*
X174936120Y-54922400D02*
X174936120Y-54602400D01*
G75*
G02*
X175096120Y-54442400I160000J0D01*
G01*
X175491120Y-54442400D01*
G75*
G02*
X175651120Y-54602400I0J-160000D01*
G01*
X175651120Y-54922400D01*
G75*
G02*
X175491120Y-55082400I-160000J0D01*
G01*
X175096120Y-55082400D01*
G75*
G02*
X174936120Y-54922400I0J160000D01*
G01*
G37*
G36*
G01*
X173741120Y-54922400D02*
X173741120Y-54602400D01*
G75*
G02*
X173901120Y-54442400I160000J0D01*
G01*
X174296120Y-54442400D01*
G75*
G02*
X174456120Y-54602400I0J-160000D01*
G01*
X174456120Y-54922400D01*
G75*
G02*
X174296120Y-55082400I-160000J0D01*
G01*
X173901120Y-55082400D01*
G75*
G02*
X173741120Y-54922400I0J160000D01*
G01*
G37*
%TD*%
%TO.C,R4*%
G36*
G01*
X165549620Y-53576200D02*
X165549620Y-53256200D01*
G75*
G02*
X165709620Y-53096200I160000J0D01*
G01*
X166104620Y-53096200D01*
G75*
G02*
X166264620Y-53256200I0J-160000D01*
G01*
X166264620Y-53576200D01*
G75*
G02*
X166104620Y-53736200I-160000J0D01*
G01*
X165709620Y-53736200D01*
G75*
G02*
X165549620Y-53576200I0J160000D01*
G01*
G37*
G36*
G01*
X166744620Y-53576200D02*
X166744620Y-53256200D01*
G75*
G02*
X166904620Y-53096200I160000J0D01*
G01*
X167299620Y-53096200D01*
G75*
G02*
X167459620Y-53256200I0J-160000D01*
G01*
X167459620Y-53576200D01*
G75*
G02*
X167299620Y-53736200I-160000J0D01*
G01*
X166904620Y-53736200D01*
G75*
G02*
X166744620Y-53576200I0J160000D01*
G01*
G37*
%TD*%
%TO.C,R5*%
G36*
G01*
X174787600Y-62649080D02*
X174787600Y-62329080D01*
G75*
G02*
X174947600Y-62169080I160000J0D01*
G01*
X175342600Y-62169080D01*
G75*
G02*
X175502600Y-62329080I0J-160000D01*
G01*
X175502600Y-62649080D01*
G75*
G02*
X175342600Y-62809080I-160000J0D01*
G01*
X174947600Y-62809080D01*
G75*
G02*
X174787600Y-62649080I0J160000D01*
G01*
G37*
G36*
G01*
X175982600Y-62649080D02*
X175982600Y-62329080D01*
G75*
G02*
X176142600Y-62169080I160000J0D01*
G01*
X176537600Y-62169080D01*
G75*
G02*
X176697600Y-62329080I0J-160000D01*
G01*
X176697600Y-62649080D01*
G75*
G02*
X176537600Y-62809080I-160000J0D01*
G01*
X176142600Y-62809080D01*
G75*
G02*
X175982600Y-62649080I0J160000D01*
G01*
G37*
%TD*%
%TO.C,R6*%
G36*
G01*
X154498080Y-70868520D02*
X154498080Y-70548520D01*
G75*
G02*
X154658080Y-70388520I160000J0D01*
G01*
X155053080Y-70388520D01*
G75*
G02*
X155213080Y-70548520I0J-160000D01*
G01*
X155213080Y-70868520D01*
G75*
G02*
X155053080Y-71028520I-160000J0D01*
G01*
X154658080Y-71028520D01*
G75*
G02*
X154498080Y-70868520I0J160000D01*
G01*
G37*
G36*
G01*
X155693080Y-70868520D02*
X155693080Y-70548520D01*
G75*
G02*
X155853080Y-70388520I160000J0D01*
G01*
X156248080Y-70388520D01*
G75*
G02*
X156408080Y-70548520I0J-160000D01*
G01*
X156408080Y-70868520D01*
G75*
G02*
X156248080Y-71028520I-160000J0D01*
G01*
X155853080Y-71028520D01*
G75*
G02*
X155693080Y-70868520I0J160000D01*
G01*
G37*
%TD*%
%TO.C,R7*%
G36*
G01*
X159656800Y-92543600D02*
X159976800Y-92543600D01*
G75*
G02*
X160136800Y-92703600I0J-160000D01*
G01*
X160136800Y-93098600D01*
G75*
G02*
X159976800Y-93258600I-160000J0D01*
G01*
X159656800Y-93258600D01*
G75*
G02*
X159496800Y-93098600I0J160000D01*
G01*
X159496800Y-92703600D01*
G75*
G02*
X159656800Y-92543600I160000J0D01*
G01*
G37*
G36*
G01*
X159656800Y-91348600D02*
X159976800Y-91348600D01*
G75*
G02*
X160136800Y-91508600I0J-160000D01*
G01*
X160136800Y-91903600D01*
G75*
G02*
X159976800Y-92063600I-160000J0D01*
G01*
X159656800Y-92063600D01*
G75*
G02*
X159496800Y-91903600I0J160000D01*
G01*
X159496800Y-91508600D01*
G75*
G02*
X159656800Y-91348600I160000J0D01*
G01*
G37*
%TD*%
%TO.C,R8*%
G36*
G01*
X162511780Y-96860340D02*
X162511780Y-96540340D01*
G75*
G02*
X162671780Y-96380340I160000J0D01*
G01*
X163066780Y-96380340D01*
G75*
G02*
X163226780Y-96540340I0J-160000D01*
G01*
X163226780Y-96860340D01*
G75*
G02*
X163066780Y-97020340I-160000J0D01*
G01*
X162671780Y-97020340D01*
G75*
G02*
X162511780Y-96860340I0J160000D01*
G01*
G37*
G36*
G01*
X163706780Y-96860340D02*
X163706780Y-96540340D01*
G75*
G02*
X163866780Y-96380340I160000J0D01*
G01*
X164261780Y-96380340D01*
G75*
G02*
X164421780Y-96540340I0J-160000D01*
G01*
X164421780Y-96860340D01*
G75*
G02*
X164261780Y-97020340I-160000J0D01*
G01*
X163866780Y-97020340D01*
G75*
G02*
X163706780Y-96860340I0J160000D01*
G01*
G37*
%TD*%
%TO.C,R9*%
G36*
G01*
X163706780Y-98447840D02*
X163706780Y-98127840D01*
G75*
G02*
X163866780Y-97967840I160000J0D01*
G01*
X164261780Y-97967840D01*
G75*
G02*
X164421780Y-98127840I0J-160000D01*
G01*
X164421780Y-98447840D01*
G75*
G02*
X164261780Y-98607840I-160000J0D01*
G01*
X163866780Y-98607840D01*
G75*
G02*
X163706780Y-98447840I0J160000D01*
G01*
G37*
G36*
G01*
X162511780Y-98447840D02*
X162511780Y-98127840D01*
G75*
G02*
X162671780Y-97967840I160000J0D01*
G01*
X163066780Y-97967840D01*
G75*
G02*
X163226780Y-98127840I0J-160000D01*
G01*
X163226780Y-98447840D01*
G75*
G02*
X163066780Y-98607840I-160000J0D01*
G01*
X162671780Y-98607840D01*
G75*
G02*
X162511780Y-98447840I0J160000D01*
G01*
G37*
%TD*%
%TO.C,R10*%
G36*
G01*
X163706780Y-100035340D02*
X163706780Y-99715340D01*
G75*
G02*
X163866780Y-99555340I160000J0D01*
G01*
X164261780Y-99555340D01*
G75*
G02*
X164421780Y-99715340I0J-160000D01*
G01*
X164421780Y-100035340D01*
G75*
G02*
X164261780Y-100195340I-160000J0D01*
G01*
X163866780Y-100195340D01*
G75*
G02*
X163706780Y-100035340I0J160000D01*
G01*
G37*
G36*
G01*
X162511780Y-100035340D02*
X162511780Y-99715340D01*
G75*
G02*
X162671780Y-99555340I160000J0D01*
G01*
X163066780Y-99555340D01*
G75*
G02*
X163226780Y-99715340I0J-160000D01*
G01*
X163226780Y-100035340D01*
G75*
G02*
X163066780Y-100195340I-160000J0D01*
G01*
X162671780Y-100195340D01*
G75*
G02*
X162511780Y-100035340I0J160000D01*
G01*
G37*
%TD*%
%TO.C,R11*%
G36*
G01*
X159656800Y-86294000D02*
X159976800Y-86294000D01*
G75*
G02*
X160136800Y-86454000I0J-160000D01*
G01*
X160136800Y-86849000D01*
G75*
G02*
X159976800Y-87009000I-160000J0D01*
G01*
X159656800Y-87009000D01*
G75*
G02*
X159496800Y-86849000I0J160000D01*
G01*
X159496800Y-86454000D01*
G75*
G02*
X159656800Y-86294000I160000J0D01*
G01*
G37*
G36*
G01*
X159656800Y-87489000D02*
X159976800Y-87489000D01*
G75*
G02*
X160136800Y-87649000I0J-160000D01*
G01*
X160136800Y-88044000D01*
G75*
G02*
X159976800Y-88204000I-160000J0D01*
G01*
X159656800Y-88204000D01*
G75*
G02*
X159496800Y-88044000I0J160000D01*
G01*
X159496800Y-87649000D01*
G75*
G02*
X159656800Y-87489000I160000J0D01*
G01*
G37*
%TD*%
%TO.C,R12*%
G36*
G01*
X159656800Y-82891600D02*
X159976800Y-82891600D01*
G75*
G02*
X160136800Y-83051600I0J-160000D01*
G01*
X160136800Y-83446600D01*
G75*
G02*
X159976800Y-83606600I-160000J0D01*
G01*
X159656800Y-83606600D01*
G75*
G02*
X159496800Y-83446600I0J160000D01*
G01*
X159496800Y-83051600D01*
G75*
G02*
X159656800Y-82891600I160000J0D01*
G01*
G37*
G36*
G01*
X159656800Y-81696600D02*
X159976800Y-81696600D01*
G75*
G02*
X160136800Y-81856600I0J-160000D01*
G01*
X160136800Y-82251600D01*
G75*
G02*
X159976800Y-82411600I-160000J0D01*
G01*
X159656800Y-82411600D01*
G75*
G02*
X159496800Y-82251600I0J160000D01*
G01*
X159496800Y-81856600D01*
G75*
G02*
X159656800Y-81696600I160000J0D01*
G01*
G37*
%TD*%
%TO.C,R13*%
G36*
G01*
X158066760Y-76936640D02*
X158386760Y-76936640D01*
G75*
G02*
X158546760Y-77096640I0J-160000D01*
G01*
X158546760Y-77491640D01*
G75*
G02*
X158386760Y-77651640I-160000J0D01*
G01*
X158066760Y-77651640D01*
G75*
G02*
X157906760Y-77491640I0J160000D01*
G01*
X157906760Y-77096640D01*
G75*
G02*
X158066760Y-76936640I160000J0D01*
G01*
G37*
G36*
G01*
X158066760Y-78131640D02*
X158386760Y-78131640D01*
G75*
G02*
X158546760Y-78291640I0J-160000D01*
G01*
X158546760Y-78686640D01*
G75*
G02*
X158386760Y-78846640I-160000J0D01*
G01*
X158066760Y-78846640D01*
G75*
G02*
X157906760Y-78686640I0J160000D01*
G01*
X157906760Y-78291640D01*
G75*
G02*
X158066760Y-78131640I160000J0D01*
G01*
G37*
%TD*%
M02*
